<?xml version='1.0' encoding='UTF-8'?>
<svg xmlns="http://www.w3.org/2000/svg" xmlns:xlink="http://www.w3.org/1999/xlink" version="1.1" viewBox="1319.1549 -416.8451 49.0501 16.4401">
  <defs>
    <style>
      .st0, .st1, .st2, .st3, .st4, .st5, .st6, .st7, .st8, .st9, .st10, .st11, .st12, .st13, .st14, .st15, .st16, .st17, .st18, .st19, .st20, .st21, .st22, .st23, .st24, .st25, .st26, .st27, .st28, .st29, .st30, .st31, .st32, .st33, .st34, .st35, .st36, .st37, .st38, .st39, .st40, .st41, .st42, .st43, .st44, .st45, .st46, .st47, .st48, .st49, .st50, .st51, .st52, .st53, .st54, .st55, .st56, .st57, .st58, .st59, .st60, .st61, .st62, .st63, .st64, .st65, .st66, .st67, .st68, .st69, .st70, .st71, .st72, .st73, .st74, .st75, .st76, .st77 {
        fill: none;
      }

      .st0, .st1, .st2, .st3, .st5, .st8, .st9, .st12, .st13, .st14, .st15, .st16, .st78, .st17, .st18, .st20, .st21, .st22, .st23, .st25, .st26, .st30, .st31, .st32, .st34, .st35, .st79, .st39, .st40, .st41, .st42, .st43, .st44, .st45, .st46, .st48, .st49, .st51, .st53, .st55, .st57, .st58, .st80, .st59, .st60, .st81, .st64, .st82, .st65, .st66, .st69, .st70, .st73, .st76, .st77 {
        stroke-miterlimit: 10;
      }

      .st0, .st1, .st2, .st5, .st7, .st8, .st9, .st11, .st13, .st14, .st15, .st16, .st17, .st18, .st19, .st20, .st21, .st22, .st23, .st24, .st25, .st26, .st27, .st29, .st30, .st31, .st32, .st34, .st38, .st39, .st40, .st41, .st45, .st46, .st47, .st48, .st49, .st50, .st52, .st53, .st54, .st55, .st58, .st60, .st61, .st63, .st64, .st65, .st66, .st68, .st69, .st70, .st71, .st73, .st75, .st76, .st77 {
        stroke-width: .5px;
      }

      .st0, .st2, .st3, .st4, .st7, .st9, .st10, .st11, .st12, .st13, .st14, .st15, .st17, .st18, .st19, .st20, .st23, .st24, .st25, .st26, .st27, .st28, .st29, .st30, .st32, .st36, .st37, .st38, .st40, .st41, .st48, .st50, .st52, .st53, .st54, .st55, .st56, .st58, .st61, .st62, .st63, .st64, .st65, .st68, .st70, .st71, .st72, .st74, .st75 {
        stroke: #000;
      }

      .st1, .st5, .st6, .st8, .st16, .st78, .st21, .st22, .st33, .st34, .st35, .st79, .st39, .st42, .st45, .st49, .st80, .st59, .st60, .st81, .st82, .st66, .st67, .st69, .st73, .st76, .st77 {
        stroke: #231815;
      }

      .st1, .st19, .st35, .st65 {
        stroke-dasharray: 3 2 3 2 3 2;
      }

      .st2 {
        stroke-dasharray: 2.93 1.96 2.93 1.96 2.93 1.96;
      }

      .st4, .st6, .st7, .st10, .st11, .st19, .st24, .st27, .st28, .st29, .st33, .st36, .st37, .st38, .st47, .st50, .st52, .st54, .st61, .st62, .st63, .st68, .st71, .st72, .st74, .st75 {
        stroke-linejoin: round;
      }

      .st4, .st10, .st12, .st28, .st33, .st79, .st37, .st42, .st43, .st44, .st51, .st62, .st82, .st72, .st74 {
        stroke-width: .75px;
      }

      .st5 {
        stroke-dasharray: 2.11 1.4 2.11 1.4 2.11 1.4;
      }

      .st7 {
        stroke-dasharray: 3.33 2.22 3.33 2.22;
      }

      .st8 {
        stroke-dasharray: 2.1 1.4 2.1 1.4;
      }

      .st9 {
        stroke-dasharray: 1 1;
      }

      .st10 {
        stroke-dasharray: 2.15 1.44 2.15 1.44;
      }

      .st11 {
        stroke-dasharray: 2.77 1.84 2.77 1.84 2.77 1.84;
      }

      .st13 {
        stroke-dasharray: 3.17 2.12 3.17 2.12 3.17 2.12;
      }

      .st14 {
        stroke-dasharray: 3.2 2.13 3.2 2.13 3.2 2.13;
      }

      .st15 {
        stroke-dasharray: 3.2 2.13 3.2 2.13;
      }

      .st16 {
        stroke-dasharray: 3.15 2.1 3.15 2.1 3.15 2.1;
      }

      .st78 {
        fill: url(#_무제_그라디언트_32);
      }

      .st17 {
        stroke-dasharray: 2.86 1.91 2.86 1.91 2.86 1.91;
      }

      .st83 {
        fill: #e1e3ce;
      }

      .st84 {
        fill: #fcf9ed;
      }

      .st85, .st82 {
        fill: #fff;
      }

      .st18 {
        stroke-dasharray: 3.34 2.23 3.34 2.23;
      }

      .st20 {
        stroke-dasharray: 3.24 2.16 3.24 2.16 3.24 2.16;
      }

      .st21 {
        stroke-dasharray: 2.97 1.98 2.97 1.98 2.97 1.98;
      }

      .st23 {
        stroke-dasharray: 2.86 1.91 2.86 1.91;
      }

      .st24 {
        stroke-dasharray: 2.86 1.91 2.86 1.91;
      }

      .st25 {
        stroke-dasharray: 3.24 2.16 3.24 2.16;
      }

      .st86 {
        fill: #f4f8e0;
      }

      .st26 {
        stroke-dasharray: 2.43 1.62 2.43 1.62;
      }

      .st87 {
        font-size: 8.99px;
      }

      .st87, .st88, .st89 {
        font-family: HyhwpEQ, HyhwpEQ;
      }

      .st28 {
        stroke-dasharray: 2.15 1.44 2.15 1.44 2.15 1.44;
      }

      .st29 {
        stroke-dasharray: 3.35 2.24 3.35 2.24 3.35 2.24;
      }

      .st30 {
        stroke-dasharray: 3.33 2.22 3.33 2.22;
      }

      .st31 {
        stroke: #e2cae0;
      }

      .st32 {
        stroke-dasharray: 3.34 2.23 3.34 2.23 3.34 2.23;
      }

      .st90 {
        fill: #e2cae0;
      }

      .st91 {
        fill: #c7dccb;
      }

      .st34 {
        stroke-dasharray: 3.04 2.03 3.04 2.03 3.04 2.03;
      }

      .st92 {
        opacity: .3;
      }

      .st92, .st93 {
        fill: #231815;
      }

      .st94 {
        fill: #afd5e4;
      }

      .st79, .st95 {
        fill: #aeb6d9;
      }

      .st37 {
        stroke-dasharray: 2.76 1.84 2.76 1.84 2.76 1.84;
      }

      .st38 {
        stroke-dasharray: 1.96 1.31 1.96 1.31;
      }

      .st39 {
        stroke-dasharray: 2.11 1.4 2.11 1.4;
      }

      .st40 {
        stroke-dasharray: 3.2 2.13 3.2 2.13;
      }

      .st41 {
        stroke-dasharray: 2.43 1.62 2.43 1.62 2.43 1.62;
      }

      .st43 {
        stroke: #036eb8;
      }

      .st44 {
        stroke: #094;
      }

      .st96 {
        fill: #c9caca;
      }

      .st45 {
        stroke-dasharray: 3.15 2.1 3.15 2.1;
      }

      .st46 {
        stroke: #aeb6d9;
      }

      .st97 {
        opacity: .75;
      }

      .st97, .st98 {
        fill: #d1c8e3;
      }

      .st47 {
        stroke: #080103;
        stroke-linecap: round;
      }

      .st99 {
        fill: #080103;
      }

      .st48 {
        stroke-dasharray: 2.93 1.96 2.93 1.96;
      }

      .st49 {
        stroke-dasharray: 3.19 2.12 3.19 2.12 3.19 2.12;
      }

      .st50 {
        stroke-dasharray: 3.09 2.06 3.09 2.06 3.09 2.06;
      }

      .st51 {
        stroke: #ea5514;
      }

      .st52 {
        stroke-dasharray: 2.86 1.91 2.86 1.91 2.86 1.91;
      }

      .st53 {
        stroke-dasharray: 3.2 2.13 3.2 2.13 3.2 2.13;
      }

      .st54 {
        stroke-dasharray: 3.33 2.22 3.33 2.22 3.33 2.22;
      }

      .st55 {
        stroke-dasharray: 3.17 2.12 3.17 2.12;
      }

      .st56, .st67 {
        stroke-linejoin: bevel;
      }

      .st57 {
        stroke: #a3af7b;
      }

      .st58 {
        stroke-dasharray: 3.49 2.33 3.49 2.33;
      }

      .st80 {
        fill: url(#_무제_그라디언트_3);
      }

      .st60 {
        stroke-dasharray: 2.97 1.98 2.97 1.98;
      }

      .st100 {
        fill: #cddee2;
      }

      .st88 {
        font-size: 9px;
      }

      .st61 {
        stroke-dasharray: 3.02 2.01 3.02 2.01 3.02 2.01;
      }

      .st62 {
        stroke-dasharray: 2.76 1.84 2.76 1.84;
      }

      .st63 {
        stroke-dasharray: 3.02 2.01 3.02 2.01;
      }

      .st81 {
        fill: url(#_무제_그라디언트_31);
      }

      .st64 {
        stroke-dasharray: 3.33 2.22 3.33 2.22 3.33 2.22;
      }

      .st66 {
        stroke-dasharray: 3.19 2.12 3.19 2.12;
      }

      .st101 {
        fill: #e6cce2;
      }

      .st89 {
        font-size: 6.11px;
      }

      .st68 {
        stroke-dasharray: 2.77 1.84 2.77 1.84;
      }

      .st69 {
        stroke-dasharray: 3.15 2.1 3.15 2.1 3.15 2.1;
      }

      .st70 {
        stroke-dasharray: 3.49 2.33 3.49 2.33 3.49 2.33;
      }

      .st71 {
        stroke-dasharray: 3.35 2.24 3.35 2.24;
      }

      .st72 {
        stroke-dasharray: 3.18 2.12 3.18 2.12;
      }

      .st73 {
        stroke-dasharray: 3.04 2.03 3.04 2.03;
      }

      .st74 {
        stroke-dasharray: 3.18 2.12 3.18 2.12 3.18 2.12;
      }

      .st75 {
        stroke-dasharray: 3.09 2.06 3.09 2.06;
      }

      .st76 {
        stroke-dasharray: 2.1 1.4 2.1 1.4 2.1 1.4;
      }

      .st77 {
        stroke-dasharray: 3.15 2.1 3.15 2.1;
      }
    </style>
    <radialGradient id="_무제_그라디언트_3" data-name="무제 그라디언트 3" cx="807.71" cy="-829.6" fx="807.71" fy="-829.6" r="9.65" gradientUnits="userSpaceOnUse">
      <stop offset=".08" stop-color="#fff"/>
      <stop offset="1" stop-color="#000"/>
    </radialGradient>
    <radialGradient id="_무제_그라디언트_31" data-name="무제 그라디언트 3" cy="-897.72" fy="-897.72" r="9.65" xlink:href="#_무제_그라디언트_3"/>
    <radialGradient id="_무제_그라디언트_32" data-name="무제 그라디언트 3" cy="-938.61" fy="-938.61" xlink:href="#_무제_그라디언트_3"/>
  </defs>
  <rect class="st94" x="1320.14" y="-415.86" width="47.08" height="14.47" rx="-193.46" ry="-193.46"/>
  <path class="st93" d="M1330.03-408.21s.06,0,.09.02.05.04.05.06l.05.34c0,.09-.03.14-.12.15-.43.07-.89.12-1.37.18-.48.05-.96.09-1.44.12v2.98s-.01.07-.04.1c-.02.03-.05.04-.09.04h-.43s-.06-.02-.09-.04c-.03-.03-.04-.06-.04-.1v-2.95c-.21.01-.44.02-.69.03-.25,0-.49.01-.72.02-.24,0-.46.01-.68.01-.21,0-.39,0-.53,0-.04,0-.08-.01-.11-.04-.03-.03-.04-.06-.04-.09v-.34s.01-.07.04-.1.07-.04.11-.04c.19,0,.42,0,.69,0,.27,0,.55,0,.83-.02.28,0,.56-.01.82-.02.26,0,.49-.02.67-.02.19,0,.42-.02.67-.04s.52-.04.8-.07c.28-.03.55-.06.82-.08.27-.03.51-.06.74-.1ZM1329.27-410.9c0,.26-.06.5-.18.73s-.29.43-.5.6-.47.31-.76.42c-.29.1-.61.16-.96.16s-.65-.05-.94-.15c-.29-.1-.54-.24-.75-.42-.21-.18-.38-.38-.5-.61-.12-.23-.18-.48-.18-.73,0-.29.06-.55.18-.79.12-.24.29-.44.5-.61s.46-.3.75-.39c.29-.09.6-.13.94-.13.32,0,.62.05.92.14.29.09.54.22.76.39.22.17.4.37.53.6.13.24.19.5.19.79ZM1328.57-410.91c0-.21-.04-.39-.14-.55-.09-.16-.21-.29-.37-.4-.16-.11-.34-.19-.54-.25-.21-.06-.42-.08-.65-.08-.24,0-.46.03-.66.09s-.38.15-.53.25c-.15.11-.27.25-.35.41-.08.16-.12.34-.12.54s.04.37.12.53.19.3.34.42.32.21.53.27c.2.06.43.09.67.09.23,0,.44-.03.65-.1.21-.07.39-.16.54-.28.16-.12.28-.25.37-.42.09-.16.14-.33.14-.52ZM1331.32-404.04h-.41c-.09,0-.14-.05-.14-.14v-8.94c0-.09.05-.14.14-.14h.41c.09,0,.14.05.14.14v8.94c0,.09-.05.14-.14.14Z"/>
  <path class="st93" d="M1337.14-406.22v-1.74h-2c-.31,0-.52-.06-.62-.17s-.14-.31-.14-.6v-1.25c0-.29.06-.48.17-.57s.33-.14.62-.14h4.51c.09,0,.15-.01.18-.04.02-.03.03-.09.03-.19v-1.04c0-.1-.01-.16-.03-.19-.02-.03-.08-.04-.18-.04h-5.17s-.06,0-.09-.03-.04-.05-.04-.08v-.38s.01-.06.04-.08.06-.03.09-.03h5.28c.16,0,.29.01.39.04.1.02.18.06.24.11.06.05.1.13.12.23s.04.22.04.35v1.25c0,.29-.06.48-.17.57-.12.09-.33.14-.62.14h-4.51c-.09,0-.15.01-.18.04-.02.03-.04.09-.04.19v1.08c0,.09.01.16.04.19.03.03.09.04.18.04h5.37s.06.01.09.03.04.05.04.08v.37s-.01.06-.04.08c-.03.02-.06.04-.08.04h-2.84v1.74h3.93s.07.01.1.03c.03.02.05.06.05.1v.34s-.02.06-.05.09c-.03.03-.07.04-.1.04h-8.5s-.08-.01-.1-.04c-.03-.03-.05-.06-.05-.09v-.34s.02-.07.05-.1c.03-.02.06-.03.1-.03h3.88Z"/>
  <path class="st93" d="M1350.05-410.04v.88h3.91s.07.01.1.04.05.06.05.1v.34s-.02.06-.05.09c-.03.03-.07.04-.1.04h-8.5s-.08-.01-.11-.04c-.03-.03-.04-.06-.04-.09v-.34s.01-.07.04-.1.07-.04.11-.04h3.9v-.88h-1.85c-.16,0-.29,0-.38-.03-.1-.02-.17-.06-.23-.12s-.09-.13-.11-.22c-.02-.09-.03-.21-.03-.35v-2.43s.01-.06.04-.08c.03-.02.06-.03.09-.03h.43s.06.01.08.04c.02.03.04.05.04.08v.93h4.54v-.92s.01-.06.04-.09c.02-.03.05-.04.08-.04h.43s.06.01.09.03c.03.02.04.05.04.08v2.5c0,.25-.05.42-.16.51-.11.09-.31.13-.6.13h-1.85ZM1352.91-404.22s-.01.06-.04.08c-.03.02-.06.03-.08.03h-5.32c-.31,0-.52-.06-.62-.17s-.15-.31-.15-.6v-.68c0-.28.06-.47.18-.56.12-.1.32-.15.62-.15h4.3c.09,0,.15-.01.18-.04.03-.03.04-.09.04-.19v-.52c0-.1-.01-.16-.04-.19-.02-.03-.08-.04-.17-.04h-4.99s-.06-.01-.09-.03-.04-.05-.04-.08v-.35s.01-.06.04-.08.06-.03.09-.03h5.09c.16,0,.29.01.39.04.1.02.18.06.24.11.06.05.1.13.12.23s.04.22.04.35v.68c0,.28-.06.47-.17.56s-.33.15-.62.15h-4.31c-.09,0-.15.01-.18.04-.02.03-.03.09-.03.19v.55c0,.09.01.16.04.19.03.03.09.04.18.04h5.17s.07.01.09.03c.03.02.04.05.04.08v.35ZM1347.44-411.66v.79c0,.1.02.17.05.2.03.03.1.04.19.04h4.06c.09,0,.16-.02.19-.04.03-.03.05-.1.05-.2v-.79h-4.54Z"/>
  <path class="st93" d="M1362.24-409.46s-.01.06-.04.08-.06.04-.08.04h-2.69v1h3.94s.07.01.1.03c.03.02.05.06.05.1v.34s-.02.06-.05.09c-.03.03-.07.04-.1.04h-8.5s-.08-.01-.1-.04c-.03-.03-.05-.06-.05-.09v-.34s.02-.07.05-.1c.03-.02.06-.03.1-.03h3.87v-1h-1.83c-.31,0-.52-.06-.62-.18-.1-.12-.14-.31-.14-.59v-.7c0-.28.06-.47.17-.56.12-.1.33-.15.62-.15h4.24c.09,0,.15-.01.17-.04.02-.02.04-.09.04-.19v-.55c0-.1-.01-.16-.04-.19-.02-.03-.08-.04-.17-.04h-4.9s-.06-.01-.09-.03-.04-.05-.04-.08v-.36s.01-.06.04-.08.06-.03.09-.03h5.01c.16,0,.29.01.39.04.1.02.18.06.24.11.06.05.1.13.12.23s.04.21.04.35v.73c0,.28-.06.47-.17.56s-.33.15-.62.15h-4.25c-.09,0-.15.01-.17.04s-.04.09-.04.19v.57c0,.09.01.16.04.19.03.03.09.04.18.04h5.06s.06.01.09.03.04.05.04.08v.34ZM1355.94-406.86s.07-.03.1-.03h5.31c.31,0,.52.06.62.18.1.12.14.31.14.58v2.05c0,.09-.05.14-.14.14h-.41c-.09,0-.14-.05-.14-.14v-2c0-.09-.01-.15-.04-.17-.03-.02-.09-.04-.18-.04h-5.15s-.07-.01-.1-.03-.05-.05-.05-.09v-.36s.02-.07.05-.09Z"/>
</svg>
