<?xml version='1.0' encoding='UTF-8'?>
<svg xmlns="http://www.w3.org/2000/svg" xmlns:xlink="http://www.w3.org/1999/xlink" version="1.1" viewBox="817.39 -419.5 150.44 131.28">
  <defs>
    <style>
      .st0, .st1, .st2, .st3, .st4, .st5, .st6, .st7, .st8, .st9, .st10, .st11, .st12, .st13, .st14, .st15, .st16, .st17, .st18, .st19, .st20, .st21, .st22, .st23, .st24, .st25, .st26, .st27, .st28, .st29, .st30, .st31, .st32, .st33, .st34, .st35, .st36, .st37, .st38, .st39, .st40, .st41, .st42, .st43, .st44, .st45, .st46, .st47, .st48, .st49, .st50, .st51, .st52, .st53, .st54, .st55, .st56, .st57, .st58, .st59, .st60, .st61, .st62, .st63, .st64, .st65, .st66, .st67, .st68, .st69, .st70, .st71, .st72, .st73, .st74, .st75, .st76, .st77 {
        fill: none;
      }

      .st0, .st1, .st2, .st3, .st5, .st8, .st9, .st12, .st13, .st14, .st15, .st16, .st78, .st17, .st18, .st20, .st21, .st22, .st23, .st25, .st26, .st30, .st31, .st32, .st34, .st35, .st79, .st39, .st40, .st41, .st42, .st43, .st44, .st45, .st46, .st48, .st49, .st51, .st53, .st55, .st57, .st58, .st80, .st59, .st60, .st81, .st64, .st82, .st65, .st66, .st69, .st70, .st73, .st76, .st77 {
        stroke-miterlimit: 10;
      }

      .st0, .st1, .st2, .st5, .st7, .st8, .st9, .st11, .st13, .st14, .st15, .st16, .st17, .st18, .st19, .st20, .st21, .st22, .st23, .st24, .st25, .st26, .st27, .st29, .st30, .st31, .st32, .st34, .st38, .st39, .st40, .st41, .st45, .st46, .st47, .st48, .st49, .st50, .st52, .st53, .st54, .st55, .st58, .st60, .st61, .st63, .st64, .st65, .st66, .st68, .st69, .st70, .st71, .st73, .st75, .st76, .st77 {
        stroke-width: .5px;
      }

      .st0, .st2, .st3, .st4, .st7, .st9, .st10, .st11, .st12, .st13, .st14, .st15, .st17, .st18, .st19, .st20, .st23, .st24, .st25, .st26, .st27, .st28, .st29, .st30, .st32, .st36, .st37, .st38, .st40, .st41, .st48, .st50, .st52, .st53, .st54, .st55, .st56, .st58, .st61, .st62, .st63, .st64, .st65, .st68, .st70, .st71, .st72, .st74, .st75 {
        stroke: #000;
      }

      .st1, .st5, .st6, .st8, .st16, .st78, .st21, .st22, .st33, .st34, .st35, .st79, .st39, .st42, .st45, .st49, .st80, .st59, .st60, .st81, .st82, .st66, .st67, .st69, .st73, .st76, .st77 {
        stroke: #231815;
      }

      .st1, .st19, .st35, .st65 {
        stroke-dasharray: 3 2 3 2 3 2;
      }

      .st2 {
        stroke-dasharray: 2.93 1.96 2.93 1.96 2.93 1.96;
      }

      .st4, .st6, .st7, .st10, .st11, .st19, .st24, .st27, .st28, .st29, .st33, .st36, .st37, .st38, .st47, .st50, .st52, .st54, .st61, .st62, .st63, .st68, .st71, .st72, .st74, .st75 {
        stroke-linejoin: round;
      }

      .st4, .st10, .st12, .st28, .st33, .st79, .st37, .st42, .st43, .st44, .st51, .st62, .st82, .st72, .st74 {
        stroke-width: .75px;
      }

      .st5 {
        stroke-dasharray: 2.11 1.4 2.11 1.4 2.11 1.4;
      }

      .st7 {
        stroke-dasharray: 3.33 2.22 3.33 2.22;
      }

      .st8 {
        stroke-dasharray: 2.1 1.4 2.1 1.4;
      }

      .st9 {
        stroke-dasharray: 1 1;
      }

      .st10 {
        stroke-dasharray: 2.15 1.44 2.15 1.44;
      }

      .st11 {
        stroke-dasharray: 2.77 1.84 2.77 1.84 2.77 1.84;
      }

      .st13 {
        stroke-dasharray: 3.17 2.12 3.17 2.12 3.17 2.12;
      }

      .st14 {
        stroke-dasharray: 3.2 2.13 3.2 2.13 3.2 2.13;
      }

      .st15 {
        stroke-dasharray: 3.2 2.13 3.2 2.13;
      }

      .st16 {
        stroke-dasharray: 3.15 2.1 3.15 2.1 3.15 2.1;
      }

      .st78 {
        fill: url(#_무제_그라디언트_32);
      }

      .st17 {
        stroke-dasharray: 2.86 1.91 2.86 1.91 2.86 1.91;
      }

      .st83 {
        fill: #e1e3ce;
      }

      .st84 {
        fill: #fcf9ed;
      }

      .st85, .st82 {
        fill: #fff;
      }

      .st18 {
        stroke-dasharray: 3.34 2.23 3.34 2.23;
      }

      .st20 {
        stroke-dasharray: 3.24 2.16 3.24 2.16 3.24 2.16;
      }

      .st21 {
        stroke-dasharray: 2.97 1.98 2.97 1.98 2.97 1.98;
      }

      .st23 {
        stroke-dasharray: 2.86 1.91 2.86 1.91;
      }

      .st24 {
        stroke-dasharray: 2.86 1.91 2.86 1.91;
      }

      .st25 {
        stroke-dasharray: 3.24 2.16 3.24 2.16;
      }

      .st86 {
        fill: #f4f8e0;
      }

      .st26 {
        stroke-dasharray: 2.43 1.62 2.43 1.62;
      }

      .st87 {
        font-size: 8.99px;
      }

      .st87, .st88, .st89 {
        font-family: HyhwpEQ, HyhwpEQ;
      }

      .st28 {
        stroke-dasharray: 2.15 1.44 2.15 1.44 2.15 1.44;
      }

      .st29 {
        stroke-dasharray: 3.35 2.24 3.35 2.24 3.35 2.24;
      }

      .st30 {
        stroke-dasharray: 3.33 2.22 3.33 2.22;
      }

      .st31 {
        stroke: #e2cae0;
      }

      .st32 {
        stroke-dasharray: 3.34 2.23 3.34 2.23 3.34 2.23;
      }

      .st90 {
        fill: #e2cae0;
      }

      .st91 {
        fill: #c7dccb;
      }

      .st34 {
        stroke-dasharray: 3.04 2.03 3.04 2.03 3.04 2.03;
      }

      .st92 {
        opacity: .3;
      }

      .st92, .st93 {
        fill: #231815;
      }

      .st94 {
        fill: #afd5e4;
      }

      .st79, .st95 {
        fill: #aeb6d9;
      }

      .st37 {
        stroke-dasharray: 2.76 1.84 2.76 1.84 2.76 1.84;
      }

      .st38 {
        stroke-dasharray: 1.96 1.31 1.96 1.31;
      }

      .st39 {
        stroke-dasharray: 2.11 1.4 2.11 1.4;
      }

      .st40 {
        stroke-dasharray: 3.2 2.13 3.2 2.13;
      }

      .st41 {
        stroke-dasharray: 2.43 1.62 2.43 1.62 2.43 1.62;
      }

      .st43 {
        stroke: #036eb8;
      }

      .st44 {
        stroke: #094;
      }

      .st96 {
        fill: #c9caca;
      }

      .st45 {
        stroke-dasharray: 3.15 2.1 3.15 2.1;
      }

      .st46 {
        stroke: #aeb6d9;
      }

      .st97 {
        opacity: .75;
      }

      .st97, .st98 {
        fill: #d1c8e3;
      }

      .st47 {
        stroke: #080103;
        stroke-linecap: round;
      }

      .st99 {
        fill: #080103;
      }

      .st48 {
        stroke-dasharray: 2.93 1.96 2.93 1.96;
      }

      .st49 {
        stroke-dasharray: 3.19 2.12 3.19 2.12 3.19 2.12;
      }

      .st50 {
        stroke-dasharray: 3.09 2.06 3.09 2.06 3.09 2.06;
      }

      .st51 {
        stroke: #ea5514;
      }

      .st52 {
        stroke-dasharray: 2.86 1.91 2.86 1.91 2.86 1.91;
      }

      .st53 {
        stroke-dasharray: 3.2 2.13 3.2 2.13 3.2 2.13;
      }

      .st54 {
        stroke-dasharray: 3.33 2.22 3.33 2.22 3.33 2.22;
      }

      .st55 {
        stroke-dasharray: 3.17 2.12 3.17 2.12;
      }

      .st56, .st67 {
        stroke-linejoin: bevel;
      }

      .st57 {
        stroke: #a3af7b;
      }

      .st58 {
        stroke-dasharray: 3.49 2.33 3.49 2.33;
      }

      .st80 {
        fill: url(#_무제_그라디언트_3);
      }

      .st60 {
        stroke-dasharray: 2.97 1.98 2.97 1.98;
      }

      .st100 {
        fill: #cddee2;
      }

      .st88 {
        font-size: 9px;
      }

      .st61 {
        stroke-dasharray: 3.02 2.01 3.02 2.01 3.02 2.01;
      }

      .st62 {
        stroke-dasharray: 2.76 1.84 2.76 1.84;
      }

      .st63 {
        stroke-dasharray: 3.02 2.01 3.02 2.01;
      }

      .st81 {
        fill: url(#_무제_그라디언트_31);
      }

      .st64 {
        stroke-dasharray: 3.33 2.22 3.33 2.22 3.33 2.22;
      }

      .st66 {
        stroke-dasharray: 3.19 2.12 3.19 2.12;
      }

      .st101 {
        fill: #e6cce2;
      }

      .st89 {
        font-size: 6.11px;
      }

      .st68 {
        stroke-dasharray: 2.77 1.84 2.77 1.84;
      }

      .st69 {
        stroke-dasharray: 3.15 2.1 3.15 2.1 3.15 2.1;
      }

      .st70 {
        stroke-dasharray: 3.49 2.33 3.49 2.33 3.49 2.33;
      }

      .st71 {
        stroke-dasharray: 3.35 2.24 3.35 2.24;
      }

      .st72 {
        stroke-dasharray: 3.18 2.12 3.18 2.12;
      }

      .st73 {
        stroke-dasharray: 3.04 2.03 3.04 2.03;
      }

      .st74 {
        stroke-dasharray: 3.18 2.12 3.18 2.12 3.18 2.12;
      }

      .st75 {
        stroke-dasharray: 3.09 2.06 3.09 2.06;
      }

      .st76 {
        stroke-dasharray: 2.1 1.4 2.1 1.4 2.1 1.4;
      }

      .st77 {
        stroke-dasharray: 3.15 2.1 3.15 2.1;
      }
    </style>
    <radialGradient id="_무제_그라디언트_3" data-name="무제 그라디언트 3" cx="807.71" cy="-829.6" fx="807.71" fy="-829.6" r="9.65" gradientUnits="userSpaceOnUse">
      <stop offset=".08" stop-color="#fff"/>
      <stop offset="1" stop-color="#000"/>
    </radialGradient>
    <radialGradient id="_무제_그라디언트_31" data-name="무제 그라디언트 3" cy="-897.72" fy="-897.72" r="9.65" xlink:href="#_무제_그라디언트_3"/>
    <radialGradient id="_무제_그라디언트_32" data-name="무제 그라디언트 3" cy="-938.61" fy="-938.61" xlink:href="#_무제_그라디언트_3"/>
  </defs>
  <path d="M938.57-405.68c.37-.09.52.13.58.58.02.18.21.31.3.48.1.18.28.42.25.56-.17.65-.4,1.27-.61,1.9-.07.23-.14.46-.21.69-.13.4-.26.8-.4,1.21.13.37.44.84.43,1.3,0,.46-.33.91-.52,1.37,1.36,1.17,1.03,1.75.07,2.71.17.15.35.29.5.45.55.57.55,1.29.01,1.87-.09.09-.2.15-.27.25-.07.11-.11.25-.16.39.11.03.21.09.32.09.18.02.37,0,.64,0-.22.59-.38,1.03-.61,1.65.14.08.36.21.66.39-.27.2-.38.25-.45.35-.13.17-.28.35-.33.57-.09.34.08.56.32.73.88.63,1.76,1.27,2.64,1.92.14.11.27.25.48.44-.25.13-.42.2-.57.3-.4.27-.56.88-1.07,1.1-.29.13,0,1.14.38,1.35,2.24,1.23,4.47,2.47,6.72,3.7.34.19.35.39.21.8-.24.74-.62,1.16-1.22,1.43-1.01.45-1.99,1.03-3,1.52-.29.14-.4.35-.39.73.01.78.02,1.56,0,2.34-.01.46.13.69.46.78.19.05.37.15.55.23.27.11.45.29.42.7-.03.39.12.58.41.71,1.59.71,3.17,1.46,4.76,2.16.36.16.39.34.25.76-.3.87-.76,1.42-1.48,1.76-1.23.58-2.42,1.31-3.64,1.96-.28.15-.43.35-.42.78.02,1.03,0,2.06,0,3.08,0,.12-.02.34.01.36.56.23.49,1.2,1.06,1.42.13.05.3.33.3.51,0,.48.17.62.51.73,1.88.59,3.76,1.22,5.65,1.81.32.1.33.29.21.62-.35.9-.78,1.61-1.56,2.03-1.34.72-2.64,1.59-3.94,2.44-.15.1-.27.48-.27.73-.02,3.8-.01,7.61-.01,11.41,0,.8.02,1.6,0,2.41-.01.46.11.6.46.62,2.73.19,5.46.4,8.18.6.97.07.97.06.97,1.27q0,.64-.77.81c-.02.41-.03.83-.05,1.26-.08.03-.14.07-.2.08q-.73.08-.73,1.04c0,3.15,0,6.29,0,9.44,0,.24,0,.48,0,.8.66,0,1.26.02,1.86,0,.38-.02.64.05.58.65-.04.42.19.52.45.55,1.47.22,2.94.43,4.4.65.44.07.89.16,1.4.25-.11.72.2,1.43-.2,2.18-.2.37-.06,1.03-.05,1.57,0,.07.13.21.19.2.37-.06.38.24.38.57,0,.64,0,1.27,0,1.91,0,.35-.1.52-.37.59-2.93.75-5.85,1.5-8.78,2.26-2.97.77-5.94,1.56-8.91,2.34-2.36.62-4.72,1.23-7.08,1.83-.23.06-.49.06-.72.01-2.26-.49-4.52-1.01-6.78-1.51-2.01-.44-4.02-.87-6.03-1.31-2.23-.49-4.46-.99-6.69-1.48-2.06-.45-4.11-.9-6.17-1.35-.57-.13-1.14-.24-1.7-.4-.12-.04-.29-.28-.29-.44-.03-.84,0-1.69-.02-2.53,0-.36.13-.48.39-.44.21.03.41.03.69.05-.04-.68.09-1.29-.13-1.97-.18-.56-.05-1.29-.03-1.94,0-.08.19-.19.3-.21,1.75-.28,3.51-.55,5.26-.79.4-.06.75-.1.67-.8-.04-.37.16-.44.4-.43.58,0,1.15,0,1.76,0v-11.2c-.95.04-.42-.91-.63-1.4,0,0-.03-.05-.06-.06-.24-.06-.66-.05-.69-.19-.1-.41-.08-.89-.04-1.33.01-.13.24-.31.38-.32,1.83-.15,3.66-.29,5.49-.41,1.32-.09,2.63-.19,3.95-.24.39-.02.48-.22.47-.68-.01-2.9,0-5.8,0-8.7,0-1.79-.01-3.58,0-5.37,0-.46-.12-.69-.45-.87-1.46-.79-2.89-1.69-4.37-2.43-.86-.43-1.3-1.26-1.78-2.29.62-.22,1.19-.44,1.77-.64,1.5-.53,3-1.06,4.5-1.56.27-.09.39-.24.36-.59-.03-.43.13-.65.47-.68.08,0,.2-.01.23-.07.23-.51.56-1.01.62-1.56.11-.95.04-1.93.08-2.89.02-.47-.19-.64-.48-.8-1.33-.71-2.64-1.5-4-2.11-.87-.39-1.08-1.28-1.44-2.24.73-.29,1.41-.57,2.1-.83,1.04-.41,2.08-.82,3.13-1.19.26-.09.41-.23.37-.58-.07-.54.19-.71.53-.83.86-.31.86-.31.86-1.45,0-.68-.02-1.36,0-2.03.02-.47-.14-.68-.46-.86-1.09-.6-2.15-1.28-3.25-1.86-.64-.34-.74-1.14-1.02-1.78-.02-.05.18-.34.31-.4,1.04-.47,2.1-.9,3.14-1.35,1.2-.51,2.4-1.05,3.6-1.54.3-.12.38-.31.36-.66-.01-.27,0-.53,0-.8,0-.12-.03-.32-.07-.33-.71-.17-.78-1.41-1.53-1.49-.02,0-.04-.06-.11-.16.12-.09.23-.19.34-.25,1.06-.48,2.12-.94,3.17-1.44.21-.1.52-.31.55-.52.06-.49.19-1.09-.32-1.41-.15-.1-.27-.26-.41-.4.52-.63.53-.69.13-1.72.22-.02.41-.03.59-.06.11-.01.22-.04.33-.06-.05-.15-.09-.31-.17-.44-.07-.11-.19-.16-.27-.25-.5-.57-.5-1.3.02-1.85.16-.17.33-.3.5-.45-1.1-1.51-1.1-1.56.11-2.71-.2-.46-.53-.9-.56-1.36-.02-.43.27-.9.4-1.27-.12-.51-.23-1.04-.36-1.55-.04-.15-.16-.26-.21-.4-.21-.57-.45-1.12-.59-1.71-.1-.41-.05-.86.46-.76.09-.52.04-1.13.64-1.12.04-.45-.1-1.01.5-.98-.17-1.38-.5-2.79.72-3.65-.77-1.18-.78-1.36-.06-2.13-.1-.1-.2-.19-.29-.29-.3-.34-.38-.99-.07-1.25.44-.36.43-.85.42-1.38,0-.09.04-.18.08-.35.08.1.15.15.15.2,0,.61-.02,1.18.46,1.62.29.27.17.76-.08,1.1-.09.13-.21.23-.32.35.73.82.72,1.14-.08,2.09,1.18.88.86,2.28.75,3.66.67,0,.37.69.5,1.09-.19.02-.38.04-.62.06.02.29.03.52.04.76.05.02.1.03.15.05.14-.3.27-.59.41-.89ZM936.5-350.96c-.4.05-.75.07-1.09.13-1.77.3-3.53.63-5.3.89-.48.07-.62.25-.61.86.02,4.6.02,9.21,0,13.81,0,.59.14.73.58.69,1.96-.17,3.91-.31,5.87-.43.45-.03.6-.21.59-.8-.02-4.81,0-9.62-.01-14.43,0-.22-.02-.44-.03-.73ZM939.31-350.97c-.02.28-.04.44-.04.6,0,4.89,0,9.78,0,14.67,0,.54.18.66.54.68,1.67.1,3.34.22,5,.35.31.03.43-.08.43-.49,0-4.73,0-9.45,0-14.18,0-.38-.1-.53-.41-.58-.92-.15-1.84-.36-2.76-.54-.9-.17-1.8-.33-2.77-.51ZM931.49-318.24c.02-.14.03-.22.03-.3,0-3.97,0-7.94,0-11.9,0-.43-.14-.51-.44-.5-1.37.06-2.73.12-4.1.16-.75.02-1.5,0-2.29,0,0,.41,0,.65,0,.9,0,3.39,0,6.78,0,10.18,0,.97,0,.98.74,1.05,1.64.14,3.27.28,4.91.41.36.03.73,0,1.14,0ZM961.19-317c0-.05,0-.1,0-.15-.3-.04-.6-.08-.9-.12-1.7-.21-3.38-.67-5.13-.38-2.5.41-5.02.61-7.53.91-3.01.37-6.01.88-9.02,1.07-1.82.12-3.65-.22-5.48-.4-2.16-.21-4.32-.48-6.48-.72-2.15-.24-4.3-.39-6.43-.73-2.14-.34-4.26-.24-6.38.17-.37.07-.74.14-1.11.21,1.06.25,2.11.39,3.17.51,2.06.24,4.13.46,6.19.7,2.66.3,5.31.61,7.97.92,1.55.18,3.1.4,4.66.54,1.46.13,2.93.35,4.37.21,3.51-.34,7-.86,10.5-1.3,3.02-.38,6.05-.73,9.07-1.1.85-.1,1.69-.23,2.53-.35ZM943.7-318.2c.45-.03.85-.04,1.24-.08,1.04-.1,2.08-.26,3.12-.31.46-.02.56-.22.56-.76-.02-3.04,0-6.08,0-9.12,0-.73,0-1.47,0-2.3-1.67-.07-3.28-.14-4.91-.2v12.77ZM935.95-317.86c.02-.15.05-.26.05-.38,0-4.13,0-8.26,0-12.39,0-.43-.15-.52-.44-.5-1.11.06-2.22.12-3.32.15-.33,0-.44.16-.44.58.01,3.9.01,7.81,0,11.71,0,.43.12.58.44.6,1.12.08,2.24.18,3.37.27.11,0,.22-.03.34-.04ZM926.99-306.37c0-.99-.04-1.91.01-2.82.04-.64-.19-.83-.61-.89-.7-.1-1.4-.22-2.1-.34-1.75-.3-3.5-.6-5.25-.91-1.75-.31-3.5-.62-5.25-.92-1.03-.18-2.07-.33-3.11-.51-.44-.08-.57.14-.54.68.03.45.03.91,0,1.36-.04.57.16.76.58.8.43.04.86.16,1.28.26,2.04.45,4.08.91,6.12,1.36,2.01.45,4.02.9,6.02,1.34.91.2,1.83.39,2.84.6ZM948.94-330.76c-.03.2-.05.26-.05.32,0,3.76,0,7.52,0,11.28,0,.45.17.48.45.45,1.06-.11,2.11-.24,3.17-.29.46-.02.57-.24.56-.78-.01-1.87.01-3.74.01-5.61,0-1.52,0-3.04-.03-4.56,0-.2-.16-.57-.25-.58-1.28-.11-2.56-.16-3.86-.23ZM939.75-317.87c.13.02.24.05.35.04.91-.08,1.82-.19,2.74-.25.46-.03.58-.28.57-.84-.02-3.59,0-7.19-.01-10.79,0-1.45.18-1.26-.99-1.33-.88-.05-1.75,0-2.66,0v13.17ZM938.04-312.56c0,.23.01.45,0,.68-.03.44.12.58.45.52,1.35-.25,2.7-.48,4.06-.7,1.82-.3,3.63-.6,5.45-.9,1.78-.29,3.57-.59,5.35-.89,1.88-.31,3.76-.62,5.64-.94,1.19-.2,2.39-.39,3.58-.61.57-.11.24-.72.31-1.1.01-.06-.26-.3-.39-.29-1.31.13-2.62.3-3.93.46-3.48.44-6.97.89-10.45,1.33-3.04.38-6.08.71-9.11,1.12-1.1.15-.92-.1-.94,1.33ZM963.16-312.89c-4.88.93-9.66,1.85-14.45,2.77v3.33c.33-.07.61-.12.89-.19,2.2-.58,4.39-1.16,6.59-1.73,2.18-.57,4.37-1.11,6.55-1.69.15-.04.39-.22.39-.35.04-.68.02-1.37.02-2.14ZM924.38-318.79v-11.75c-1.06,0-2.07-.01-3.08.02-.11,0-.29.3-.29.46-.02,3.51,0,7.02-.02,10.54,0,.38.12.5.4.51.4,0,.8.06,1.2.09.59.05,1.18.09,1.78.14ZM927.26-309.9c0,.99.05,1.88-.01,2.75-.05.71.18.91.67,1.02,2.75.59,5.5,1.21,8.26,1.81.51.11,1.03.2,1.62.31,0-1.33,0-2.56-.01-3.78,0-.11-.17-.28-.28-.31-.7-.15-1.4-.27-2.1-.39-1.8-.32-3.59-.63-5.39-.94-.89-.15-1.78-.3-2.75-.46ZM948.39-310.05c-.99.19-1.87.36-2.76.53-2.4.46-4.79.94-7.19,1.38-.31.06-.41.21-.4.59.01.9,0,1.81,0,2.71,0,.84.05.87.69.69,1.7-.46,3.39-.9,5.09-1.34,1.38-.36,2.77-.7,4.15-1.07.15-.04.4-.25.4-.39.04-1,.02-2,.02-3.1ZM922.52-315.51c0,.54.02.99,0,1.44-.02.4.1.53.4.57,1.63.23,3.25.49,4.88.73,1.72.26,3.44.52,5.16.77,1.47.22,2.93.42,4.4.65.33.05.48-.06.46-.52-.02-.45-.02-.9,0-1.35.02-.38-.08-.54-.4-.57-2.13-.24-4.25-.5-6.38-.75-1.57-.19-3.13-.37-4.7-.55-1.24-.14-2.49-.27-3.82-.41ZM922.21-354.77c0,.09,0,.18,0,.27.41.05.84.21,1.23.14,1.55-.3,3.09-.68,4.64-1.04,1.97-.47,3.93-1,5.91-1.4,1.23-.25,2.45-.46,3.44-1.54.29-.32.55-.24.86.04.37.35.76.73,1.18.89.73.29,1.5.41,2.25.62,2.86.82,5.73,1.64,8.59,2.5.48.14.89.13,1.37-.21-.18-.09-.3-.18-.43-.22-.73-.23-1.47-.45-2.2-.69-3.38-1.12-6.76-2.24-10.15-3.36-.31-.1-.62-.26-.93-.24-.56.04-1.11.17-1.66.3-1.33.3-2.65.63-3.97.94-1.41.32-2.82.56-4.22.96-1.26.36-2.5.89-3.75,1.33-.72.25-1.44.47-2.17.7ZM939.85-311.1c-1.13-.02-2.21-.03-3.29-.06-.3,0-.6-.1-.91-.15-2.09-.3-4.18-.59-6.27-.89-.33-.05-.66-.11-1.05-.17,0,.73-.02,1.36.02,1.99,0,.14.21.35.34.39.46.12.92.17,1.38.25,1.8.31,3.6.62,5.39.94,1.46.26,2.92.64,4.38-.04v-2.26ZM927.34-331.18s.1.04.14.03c.66-.02,1.32-.01,1.97-.06,5.63-.37,11.27-.4,16.9.05.3.02.51-.01.48-.5-.03-.41.1-.87-.46-.88-.96-.01-1.92-.11-2.89-.17-1.92-.11-3.85-.35-5.77-.31-3.21.07-6.42.32-9.63.5-.89.05-.91.07-.81,1.22,0,.02.02.03.06.1ZM923.52-332.54s0-.01,0-.02c2.59-.14,5.17-.28,7.76-.43,2.02-.12,4.05-.25,6.07-.38.15,0,.36-.06.42-.18.28-.6-.03-1.27-.57-1.23-3.77.27-7.54.54-11.31.81-2.47.18-4.94.37-7.41.54-.35.02-.52.12-.51.64.01.56.27.5.55.49,1.67-.08,3.34-.16,5.01-.24ZM930.54-359.6c.16,0,.25.02.34,0,1.85-.47,3.71-.93,5.56-1.43.15-.04.35-.38.36-.59.04-1.02.02-2.05.03-3.08,0-.4-.08-.54-.43-.43-1.1.36-2.21.67-3.32.98-.67.19-1.35.32-2.02.53-.19.06-.49.31-.49.49-.04,1.16-.02,2.33-.02,3.53ZM919.4-318.87s0-.04,0-.06c-.56,0-1.12-.02-1.68.02-.14,0-.35.17-.39.33-.09.33.09.47.34.49.51.04,1.02.09,1.54.15,2.73.31,5.47.62,8.2.93,2.22.25,4.45.49,6.67.73,1.12.12,2.24.23,3.36.36.28.03.36-.1.37-.44.03-.92.01-.95-.72-1-2.82-.22-5.64-.46-8.46-.69-3.08-.26-6.15-.53-9.23-.8ZM954.85-318.92c-2.45.24-4.72.48-7,.69-3.12.3-6.25.59-9.37.86-.59.05-.41.58-.44.98-.03.53.25.46.51.42,2.19-.27,4.38-.54,6.57-.8,3.09-.37,6.17-.73,9.26-1.09.59-.07,1.18-.14,1.77-.21.26-.03.53-.11.42-.53-.04-.15-.29-.29-.45-.31-.48-.04-.96-.01-1.27-.01ZM937.8-324.38c0-1.83,0-3.66,0-5.48,0-1.36,0-1.33-1.04-1.32-.4,0-.51.17-.51.68.02,3.82,0,7.64,0,11.46,0,1.3,0,1.28,1.03,1.39.41.05.53-.12.52-.63-.02-2.03,0-4.07,0-6.1ZM911-316.85c0,.48-.03.87.01,1.25.02.15.19.37.31.4.92.16,1.85.28,2.77.42,1.63.24,3.25.47,4.88.71,1.06.15,2.12.31,3.23.47v-1.96c-3.74-.43-7.43-.85-11.2-1.29ZM931.64-372.05c.18-.04.26-.04.34-.07,1.54-.55,3.09-1.1,4.62-1.69.13-.05.27-.38.28-.59.03-.82.02-1.64.01-2.46,0-.29-.02-.58-.04-.92-1.65.66-3.22,1.28-4.79,1.93-.16.07-.4.3-.4.47-.04,1.08-.02,2.17-.02,3.33ZM921.88-354.3c.27.49.33,1.13.94.98,1.34-.33,2.68-.63,4.01-.95,1.53-.36,3.05-.74,4.58-1.09,1.94-.44,3.88-.88,5.82-1.29.34-.07.71-.1,1.04-.02,1.75.43,3.49.88,5.23,1.35,2.5.67,4.99,1.35,7.48,2.03.65.18.73.11.94-.87-.28.1-.54.21-.8.29-.12.04-.26.09-.37.05-.71-.19-1.41-.41-2.11-.61-2.47-.72-4.95-1.4-7.41-2.17-1.08-.34-2.27-.41-3.12-1.56-.07-.09-.31-.08-.42,0-.95.8-1.99,1.25-3.12,1.48-1.9.38-3.78.89-5.68,1.34-.98.23-1.96.42-2.93.64-1.28.28-2.54.93-3.87.36-.04-.02-.09.02-.23.05ZM928.05-310.12c0-.54,0-.97,0-1.4,0-.95,0-.92-.73-1.02-2.17-.3-4.34-.61-6.51-.96-1.13-.18-1.13-.22-1.12,1.2,0,.02,0,.04,0,.06-.07.53.12.71.52.77,2.12.35,4.23.74,6.34,1.11.47.08.95.15,1.49.24ZM939.45-324.5c0-1.99-.02-3.98,0-5.98,0-.55-.14-.71-.55-.7-.9.01-.87-.21-.87,1.06,0,3.8,0,7.6,0,11.4,0,1.15-.14,1.15.89,1.02.41-.06.53-.23.53-.76-.02-2.01,0-4.02,0-6.04ZM949.78-367.2c-.41,0-.81.12-1.14-.02-2.44-1-4.88-2.02-7.3-3.1-1.11-.49-2.31-.72-3.25-1.76-.1-.11-.36-.04-.52.04-.58.29-1.13.7-1.72.92-2.36.87-4.72,1.72-7.09,2.51-1.52.51-2.99,1.41-4.63,1.14-.02,0-.04.05-.06.08.25,1.04.27,1.05,1.06.77.4-.15.8-.29,1.2-.43,3.58-1.27,7.17-2.54,10.75-3.79.36-.13.79-.29,1.11-.16,3.54,1.45,7.07,2.95,10.6,4.45.7.3.7.31,1-.64ZM947.43-312.54c-2.45.41-4.82.81-7.2,1.21v2.5c.51-.1.96-.18,1.42-.27,1.82-.34,3.65-.68,5.47-1.04.12-.02.29-.23.3-.36.03-.65.01-1.3.01-2.03ZM943.34-359.49c0-1.36,0-2.56-.01-3.76,0-.13-.17-.33-.29-.38-.7-.29-1.41-.54-2.12-.8-.59-.21-1.18-.41-1.84-.64,0,1.28.02,2.44-.01,3.61-.01.41.12.54.38.63.55.2,1.1.42,1.66.61.71.24,1.42.47,2.24.74ZM924.77-367.97c0,.06,0,.11.01.17.25,0,.52.07.75-.01,2.41-.83,4.83-1.64,7.23-2.54,1.65-.62,3.39-.96,4.91-2.11.13-.1.4,0,.56.12.35.23.65.63,1.02.79,3.11,1.36,6.23,2.68,9.34,4,.28.12.59.08.89.11.01-.08.02-.15.03-.23-.12-.07-.24-.15-.37-.21-3.62-1.65-7.24-3.31-10.87-4.95-.24-.11-.55-.1-.79,0-3.67,1.38-7.34,2.79-11.01,4.2-.57.22-1.14.45-1.71.68ZM937.8-343.13c0-.56,0-1.11,0-1.67,0-1.93,0-3.87,0-5.8,0-.19-.08-.49-.18-.54-.48-.24-.84.11-.84.77,0,4.85,0,9.7,0,14.56,0,.41.01.71.46.68.4-.03.6-.11.59-.72-.03-2.43-.01-4.85-.01-7.28ZM954.56-313.73c-.21.04-.35.06-.49.08-1.75.29-3.5.6-5.25.87-1.15.17-1.15.14-1.15,1.61,0,.91.02.93.74.79,1.05-.2,2.09-.4,3.14-.6,1-.2,1.99-.4,3.01-.61v-2.13ZM939.03-343.1c0-2.46-.02-4.93.01-7.39,0-.7-.33-.61-.66-.66-.41-.06-.34.31-.34.61,0,4.93,0,9.85-.01,14.78,0,.58.23.59.57.62.41.04.44-.24.43-.63,0-2.44,0-4.89,0-7.33ZM929.29-349.64c-.89-.18-.96-.11-.96.87,0,3.8,0,7.59,0,11.39,0,.8-.01,1.6.01,2.4,0,.16.11.41.2.45.52.19.73-.05.73-.73,0-3.63,0-7.26.01-10.9,0-1.16,0-2.33,0-3.47ZM919.53-330.42c-.01.17-.03.35-.03.53,0,3.37,0,6.74,0,10.11,0,.6.15.69.93.68.44,0,.32-.41.33-.7,0-3.17,0-6.33,0-9.5q0-1.36-1.06-1.2s-.09.04-.17.07ZM924.9-366.2c0,.08,0,.16,0,.23.29.02.6.13.88.05.61-.16,1.21-.41,1.81-.62,3.34-1.18,6.67-2.36,10.01-3.52.2-.07.45-.05.66.03,3.33,1.35,6.65,2.73,9.98,4.08.22.09.46.04.7.06,0-.07.02-.14.03-.21-.11-.06-.21-.13-.32-.18-3.04-1.28-6.09-2.56-9.13-3.85-.88-.37-1.7-.72-2.69-.33-2.76,1.08-5.55,2-8.33,2.99-1.2.42-2.4.85-3.6,1.27ZM923.86-352.64c0,.07-.01.13-.02.2.21.05.43.16.64.13.56-.08,1.11-.22,1.66-.33,1.79-.38,3.58-.75,5.36-1.13,1.49-.31,2.97-.63,4.46-.91.93-.17,1.82-.55,2.83-.22,1.91.62,3.86,1.01,5.8,1.51,1.68.43,3.36.87,5.05,1.29.21.05.44-.04.66-.07,0-.06,0-.12-.01-.19-.07-.04-.14-.11-.21-.13-1.1-.29-2.2-.56-3.3-.85-2.21-.59-4.42-1.22-6.64-1.78-.9-.23-1.79-.66-2.75-.43-1.15.28-2.3.52-3.45.77-2.97.63-5.95,1.25-8.93,1.88-.39.08-.78.18-1.16.26ZM926.42-379.46c.46.39.83.35,1.23.18,1.87-.79,3.76-1.52,5.61-2.37,1.5-.68,3.13-.96,4.45-2.24.09-.08.34-.06.41.03.62.8,1.45,1.12,2.23,1.54,2.1,1.13,4.2,2.25,6.29,3.39.29.16.52.18.76-.17-3.1-1.71-6.14-3.41-9.19-5.07-.22-.12-.54-.07-.78.02-.9.35-1.8.76-2.69,1.14-2.73,1.17-5.47,2.34-8.32,3.55ZM947.76-332.75c0-.38,0-.66,0-.95.01-.35-.13-.44-.38-.46-2.93-.2-5.87-.41-8.8-.63-.34-.03-.57,0-.54.56.03.44-.09.87.49.9,1.75.07,3.5.23,5.24.35,1.3.09,2.59.15,3.98.23ZM945.66-356.86c.05-.61.05-.62-.24-.72-2.07-.74-4.13-1.49-6.21-2.19-.54-.18-1.13-.34-1.68-.26-1.2.19-2.39.55-3.59.84-1.73.41-3.47.8-5.21,1.2-.26.06-.49.17-.43.58.07.47.35.23.54.19,1.36-.32,2.71-.66,4.06-.98,1.36-.32,2.71-.64,4.07-.94.33-.07.68-.2.99-.13.89.22,1.77.53,2.66.81,1.66.53,3.33,1.06,5.02,1.6ZM954.87-311.67c.35-.05.6-.07.85-.12,1.59-.31,3.17-.64,4.76-.92,1.12-.2.98,0,1-1.55,0-.42-.09-.59-.45-.53-1.05.19-2.1.33-3.15.51-.89.15-1.78.3-2.67.48-.12.03-.31.24-.32.38-.04.55-.02,1.1-.02,1.75ZM951.11-352.69c0-.07,0-.14.01-.21-.37-.1-.75-.19-1.12-.3-2.39-.67-4.79-1.35-7.18-2.02-.72-.2-1.45-.33-2.16-.58-1.63-.57-3.24-.82-4.91-.24-.92.32-1.88.48-2.83.69-1.7.38-3.41.74-5.12,1.12-1.34.29-2.68.58-4.02.88-.28.06-.56.15-.84.23,0,.06.01.12.02.18.16.01.33.06.49.04.41-.07.82-.16,1.23-.25,1.14-.23,2.28-.44,3.42-.68,1.34-.29,2.68-.62,4.03-.92,1.56-.34,3.12-.67,4.69-.99.39-.08.81-.27,1.18-.18,1.95.46,3.89,1,5.84,1.5,2.25.58,4.5,1.16,6.74,1.73.17.04.35,0,.53,0ZM913.11-314.59c0,.48.02.87,0,1.25-.04.51.14.69.51.75,1.57.26,3.15.54,4.72.81,1.14.2,1.13.19,1.12-1.31,0-.47-.13-.63-.5-.68-1.23-.15-2.45-.35-3.68-.53-.7-.1-1.39-.19-2.16-.29ZM925.98-365.63c0,.07,0,.14,0,.21.19.02.39.11.57.05,3.49-1.15,6.98-2.33,10.47-3.48.39-.13.84-.29,1.22-.18.92.27,1.81.69,2.71,1.04,2.18.85,4.35,1.7,6.53,2.53.19.07.41,0,.61,0v-.18c-.14-.07-.29-.16-.44-.22-2.74-1.13-5.49-2.27-8.24-3.37-.7-.28-1.35-.71-2.18-.39-2.39.92-4.82,1.71-7.23,2.55-1.34.47-2.68.95-4.02,1.43ZM948.6-351.11c0-.06,0-.11-.01-.17-.56-.15-1.13-.29-1.69-.44-2.28-.6-4.56-1.17-6.83-1.82-1.38-.39-2.75-.48-4.14-.11-.72.19-1.45.35-2.17.5-2.2.45-4.41.89-6.61,1.34-.44.09-.89.19-1.33.29,0,.08,0,.15,0,.23.25.02.51.09.76.05,1.61-.29,3.21-.6,4.81-.9,1.97-.37,3.94-.75,5.91-1.12.31-.06.65-.11.95-.04,3.25.76,6.5,1.54,9.75,2.3.18.04.39-.07.59-.11ZM942.25-372.39c0-.79,0-1.48,0-2.17q0-1.24-.88-1.73c-.79-.44-1.58-.87-2.46-1.36,0,1.28,0,2.44,0,3.6,0,.09.09.24.16.27,1.02.46,2.05.91,3.17,1.39ZM945.54-349.66c-.01.17-.04.35-.04.53,0,4.64,0,9.29,0,13.93,0,.06-.02.15,0,.18.11.15.21.37.35.42.44.16.45-.23.45-.64,0-4.56,0-9.12,0-13.68,0-.78-.05-.83-.76-.74ZM949.32-351.5c.01-.08.03-.16.04-.24-.08-.05-.15-.13-.23-.16-.55-.15-1.1-.28-1.65-.43-2.76-.74-5.52-1.5-8.29-2.21-.56-.14-1.15-.25-1.71-.16-1.16.17-2.3.48-3.45.72-2.64.56-5.29,1.11-7.93,1.66-.39.08-.78.18-1.17.28v.19c.14.02.27.08.4.06.4-.06.79-.15,1.19-.24,1.49-.31,2.98-.61,4.47-.92,1.96-.4,3.92-.82,5.88-1.19.51-.1,1.05-.16,1.56-.06,1.12.23,2.23.59,3.34.87,2.06.52,4.12,1.02,6.19,1.53.46.11.92.19,1.38.29ZM951.95-332.46s0,0,0,.01c1.14.07,2.28.13,3.41.2.33.02.55-.04.55-.58,0-.49-.07-.71-.52-.74-2.29-.14-4.58-.33-6.87-.52-.27-.02-.55-.09-.51.43.02.4-.18.93.43.96,1.17.04,2.34.15,3.51.23ZM927.04-377.91v.18c.18.01.38.1.54.03,2.91-1.2,5.83-2.41,8.73-3.64.91-.38,1.8-.92,2.72-.07.08.07.17.1.26.15,2.3,1.24,4.61,2.48,6.92,3.7.18.1.43.01.64.01,0-.06,0-.12,0-.18-.14-.08-.28-.18-.43-.25-2.68-1.43-5.35-2.86-8.04-4.26-.28-.15-.66-.17-.95-.05-2.02.81-4.02,1.67-6.03,2.52-1.46.62-2.91,1.24-4.36,1.86ZM918.92-331.91c-.08,1.14-.08,1.14.7,1.1,2.29-.1,4.59-.21,6.88-.28.48-.01.49-.3.5-.76.01-.53-.21-.54-.52-.52-1.73.1-3.46.18-5.2.28-.78.05-1.56.13-2.37.19ZM953.34-330.46v11.26c.75.12.8.07.8-.79,0-3.24,0-6.48,0-9.72,0-.88-.03-.91-.8-.74ZM947.69-350.52c0-.05,0-.1.01-.16-.18-.07-.35-.15-.54-.2-2.59-.61-5.17-1.23-7.76-1.83-.58-.13-1.19-.35-1.75-.26-3.07.52-6.13,1.12-9.19,1.69-.53.1-1.06.23-1.59.34,0,.06,0,.13,0,.19.24.05.48.16.71.15.37-.02.73-.13,1.09-.2,2.67-.51,5.33-1.02,8-1.53.47-.09.96-.25,1.43-.18.99.15,1.96.42,2.94.64,2.04.46,4.08.91,6.12,1.36.18.04.36-.01.54-.03ZM944.86-358.14c.04-.1.07-.2.11-.3-.21-.11-.41-.25-.63-.33-1.58-.61-3.17-1.16-4.74-1.81-1.15-.48-2.27-.52-3.44-.15-.98.31-1.97.55-2.96.79-1.24.31-2.49.58-3.74.9-.13.03-.22.3-.33.46.14.06.29.13.44.18.04.01.09-.02.14-.04,1.29-.33,2.58-.67,3.87-.99,1.08-.27,2.17-.51,3.25-.8.62-.16,1.19-.25,1.83,0,1.51.6,3.06,1.05,4.6,1.56.54.18,1.07.35,1.61.52ZM944.37-370.44c.21-.56-.06-.69-.33-.81-1.88-.83-3.76-1.66-5.64-2.47-.22-.09-.48-.2-.69-.12-2.64.94-5.27,1.93-7.91,2.88-.38.14-.4.37-.3.78.07-.01.13-.01.19-.04,2.46-.94,4.91-1.88,7.37-2.8.36-.13.78-.32,1.1-.19,1.36.54,2.69,1.2,4.04,1.81.72.33,1.44.65,2.16.97ZM927.99-350.32c0,.07,0,.15,0,.22.21.03.42.11.62.08.61-.08,1.21-.2,1.81-.31,1.83-.31,3.66-.59,5.49-.94,1.25-.24,2.47-.3,3.73-.02,2.24.5,4.5.91,6.76,1.35.12.02.26-.08.48-.15-.15-.14-.17-.18-.2-.18-2.42-.54-4.83-1.1-7.26-1.6-.77-.16-1.57-.26-2.33-.16-1.63.22-3.24.59-4.86.9-1.41.27-2.82.54-4.24.81ZM955.04-331.89c-.08-.02-.14-.04-.21-.04-2.4-.16-4.81-.31-7.21-.48-.32-.02-.52,0-.51.53.01.45,0,.75.49.76,2.26.06,4.52.18,6.78.28.75.03.79,0,.65-1.04ZM947.19-364.94c0-.08,0-.15,0-.23-.04-.03-.08-.06-.12-.07-2.54-1-5.09-2.01-7.64-2.98-.66-.25-1.29-.7-2.05-.44-3.41,1.17-6.83,2.29-10.24,3.44-.1.03-.19.14-.28.21.01.07.03.15.04.22.24-.02.48,0,.71-.07.33-.1.64-.28.96-.39,2.79-.93,5.59-1.87,8.38-2.77.43-.14.94-.29,1.35-.14,2.8,1.03,5.59,2.14,8.39,3.21.15.06.33,0,.5,0ZM926.28-379.02c.21.94.25.96.88.7,3.45-1.46,6.91-2.92,10.37-4.35.23-.1.54-.09.77.03,2.86,1.49,5.72,3.02,8.57,4.53.49.26.55.21.61-.33-.4-.11-.81-.15-1.17-.34-1.84-.96-3.68-1.92-5.49-2.95-.94-.53-1.99-.81-2.77-1.79-.06-.08-.29,0-.41.07-.38.25-.73.62-1.13.79-2.2.95-4.4,1.92-6.63,2.76-1.15.43-2.22,1.46-3.59.88ZM927.71-364.65c0,.08-.01.16-.02.25.25.02.51.13.74.06.69-.2,1.36-.48,2.04-.71,2.39-.8,4.78-1.59,7.17-2.37.19-.06.42-.03.61.04,2.5.95,5.01,1.92,7.51,2.88.18.07.39.03.58.05.01-.06.02-.12.03-.18-.1-.07-.2-.15-.31-.2-2.21-.86-4.41-1.74-6.63-2.56-.7-.26-1.37-.68-2.19-.39-2.33.84-4.68,1.57-7.03,2.34-.83.27-1.67.53-2.51.8ZM927.86-377.42c0,.07.02.15.03.22.2-.01.42.03.6-.04,2.61-1.07,5.23-2.08,7.81-3.28,1.14-.53,2.1-.49,3.19.17,1.94,1.17,3.94,2.17,5.92,3.25.24.13.44.21.6-.18-2.62-1.41-5.22-2.82-7.82-4.2-.16-.09-.38-.11-.55-.04-3.05,1.25-6.1,2.53-9.14,3.8-.21.09-.42.21-.63.31ZM945.19-376.83c-.08-.06-.12-.11-.18-.14-2.29-1.24-4.57-2.49-6.86-3.72-.15-.08-.38-.07-.54,0-2.18.89-4.36,1.81-6.54,2.72-.8.33-1.59.67-2.39,1.01,0,.07.01.15.02.22.2,0,.42.06.6,0,2.72-1.11,5.43-2.24,8.14-3.38.34-.14.63-.13.97.06,2.03,1.13,4.06,2.24,6.1,3.35.23.13.46.28.69-.11ZM933.39-384.72c.1-.04.19-.08.28-.12,1.07-.44,2.15-.83,3.19-1.35.73-.36,1.35-.42,2.01.2.42.4.91.7,1.39.96.19.1.59.08.67-.08.2-.37-.14-.49-.34-.63-.74-.53-1.5-1.02-2.23-1.58-.34-.26-.64-.26-1-.1-.74.34-1.48.65-2.22.98-.71.31-1.42.63-2.13.96-.1.05-.23.2-.23.31,0,.1.13.24.23.31.11.08.24.09.36.14ZM944.29-376.15c0-.07.02-.15.02-.22-.03-.05-.05-.12-.08-.14-2.03-1.12-4.07-2.23-6.11-3.33-.14-.08-.34-.06-.5,0-1.71.69-3.42,1.4-5.13,2.11-.98.41-1.96.83-2.95,1.24,0,.08,0,.16,0,.24.19,0,.4.06.57,0,2.46-1.01,4.91-2.05,7.37-3.05.25-.1.58-.08.82.05,1.77.97,3.52,1.98,5.29,2.96.21.11.46.1.68.14ZM934.91-404.11c.23.61.39,1.11.59,1.59.06.13.26.31.33.27.16-.09.3-.28.41-.47.05-.08.01-.24.03-.36.08-.54.42-.81,1-.8.57.01.82.27.93.82.07.33.25.63.39.96.63-.59.85-1.2.74-1.94-.16-.13-.32-.28-.39-.48-.08-.24-.07-.52-.1-.78-.05,0-.1.01-.14.02-.06.14-.09.32-.18.42-.13.16-.32.4-.44.37-.16-.04-.3-.3-.42-.5-.15-.27-.27-.56-.4-.85-.14.29-.27.59-.43.85-.12.2-.27.46-.43.5-.13.03-.32-.21-.44-.37-.1-.13-.15-.32-.23-.51-.3.43.12,1.35-.82,1.26ZM945.5-364.01c0-.06.01-.13.02-.19-.14-.07-.28-.17-.42-.22-1.92-.74-3.85-1.44-5.75-2.23-.95-.39-1.84-.52-2.8-.07-.84.39-1.73.59-2.6.87-1.69.54-3.39,1.07-5.08,1.62-.08.03-.14.15-.32.35.25,0,.36.03.46,0,.76-.24,1.52-.5,2.28-.74,1.91-.61,3.82-1.22,5.74-1.8.42-.13.91-.23,1.3-.09,2.18.78,4.33,1.64,6.5,2.46.22.08.46.04.69.06ZM929.34-363.77c0,.08,0,.16,0,.24.17,0,.35.04.51,0,1.06-.3,2.12-.63,3.18-.94,1.33-.39,2.65-.78,3.99-1.13.41-.11.87-.22,1.26-.09,1.97.65,3.92,1.39,5.88,2.09.14.05.31,0,.46,0,0-.06,0-.12,0-.19-1.81-.69-3.61-1.39-5.42-2.07-.47-.18-.96-.45-1.44-.42-.66.04-1.32.31-1.97.51-1.54.46-3.08.94-4.62,1.42-.61.19-1.22.39-1.83.59ZM943.41-375.73l.04-.24c-.14-.09-.28-.18-.42-.26-1.52-.87-3.06-1.71-4.57-2.61-.42-.25-.76-.24-1.18-.06-1.87.8-3.75,1.56-5.62,2.35-.43.18-.86.38-1.29.57.01.09.03.17.04.26.26-.04.54-.04.79-.14,2.11-.84,4.22-1.71,6.33-2.53.24-.1.57-.06.81.07,1.48.8,2.94,1.64,4.41,2.45.2.11.43.1.65.15ZM937.8-386.04c-.12-.03-.16-.05-.18-.04-1.29.53-2.58,1.06-3.87,1.61-.09.04-.19.19-.2.29-.02.42,0,.83,0,1.33,1.38-.58,2.67-1.11,3.94-1.69.14-.06.27-.36.31-.58.05-.29.01-.6.01-.92ZM941.48-385.73c.01-.09.03-.17.04-.26-1.08-.79-2.16-1.6-3.25-2.36-.21-.14-.53-.19-.75-.09-1.66.71-3.3,1.46-4.95,2.2-.13.06-.26.16-.39.25.01.07.03.15.04.22.25-.02.52.03.75-.07,1.51-.63,3-1.31,4.51-1.92.25-.1.61-.06.85.09.86.55,1.69,1.18,2.54,1.75.18.12.4.13.61.19ZM937.77-406.44c.07-.76.18-1.45.18-2.13,0-.37-.16-.79-.33-1.11-.21-.39-.57-.41-.76,0-.18.4-.31.9-.32,1.36-.02.62.1,1.24.16,1.87-.16.09-.31.17-.47.25.68.14,1.34.14,1.99.13,0,0,.02-.07.04-.16-.17-.07-.34-.14-.49-.2ZM935.89-392.43c.25-1.12.81-1.28,1.41-1.26.55.02,1.09.19,1.24,1.04.67-.39.75-1.09.2-1.6-.72-.66-2.27-.68-2.98,0-.18.18-.37.54-.36.8.02.3.26.57.48,1.02ZM938.5-395.46c.69-.33.58-1.23.09-1.54-.89-.57-1.79-.6-2.67,0-.2.14-.4.53-.41.81,0,.27.25.54.47.97.17-1.04.66-1.18,1.2-1.2.57-.02,1.1.11,1.32.95ZM936.19-398.22c.1-.61.43-.89.87-.96.6-.09,1.06.18,1.29.95.45-.56.46-1.09.04-1.53-.57-.61-1.73-.6-2.29,0-.44.47-.41,1.05.09,1.53ZM938.5-391.25c-.75-1.76-1.63-1.75-2.52,0-.07-.03-.14-.07-.22-.1-.08-.03-.16-.07-.25-.1-.02.76.06.83.54.58.15-.08.31-.13.44-.24.63-.54,1.2-.51,1.75.21.11.15.41.25.53.17.15-.1.2-.42.29-.65-.04-.03-.07-.06-.11-.09-.14.07-.29.15-.45.24ZM944.31-359.2c0-1.14-.03-2.22.01-3.3.03-.67-.22-.84-.73-.87,0,1.15.02,2.27,0,3.38-.02.62.23.77.73.79ZM938.81-361.22c0-1.09,0-2.15,0-3.2q0-.83-.74-.97c-.01.22-.04.43-.04.64,0,.86.03,1.72-.01,2.58-.03.67.19.94.79.95ZM912.87-312.76c0-.56.02-1.05-.01-1.53,0-.13-.14-.35-.24-.37-.43-.09-.87-.12-1.37-.19,0,.57-.01,1.03,0,1.49,0,.13.11.34.19.36.45.1.91.15,1.42.23ZM940.14-383.49c.05-.03.1-.05.16-.08-.05-.38,0-.94-.18-1.09-.61-.55-1.3-.97-1.98-1.45-.24,1.25-.17,1.43.64,1.87.45.24.91.5,1.36.75ZM937.79-365.42c-.71.08-.73.1-.73.82,0,.9,0,1.81,0,2.71,0,.2.05.4.1.78.28-.26.59-.42.6-.6.04-1.22.02-2.45.02-3.71ZM938.49-388.92c.12-.3-.17-.49-.42-.7-.64-.55-1.33-.55-1.98.18-.2.23-.16.82-.25,1.4.55-.25.93-.46,1.33-.59.39-.13.8-.17,1.32-.28ZM938.28-400.77c.38-.34.45-.73.18-1.15-.48-.77-1.89-.79-2.41-.04-.29.42-.23.86.15,1.2.55-1.16,1.52-1.16,2.07,0ZM929.68-361.04s-.01,0-.02,0c0,.41-.03.82.01,1.23.01.16.17.29.26.44.12-.14.34-.27.35-.42.05-.96.06-1.92.06-2.88,0-.25.13-.67-.29-.65-.39.02-.47.32-.44.75.04.51.05,1.02.07,1.53ZM937.81-378.08s-.09-.06-.13-.09c-.16.15-.46.29-.46.45-.04,1.2-.02,2.4-.02,3.61q.61-.08.62-.73c0-.31,0-.62,0-.92,0-.77,0-1.54,0-2.31ZM938.21-378.09c-.05.04-.1.08-.15.11,0,1.08,0,2.16,0,3.23,0,.47.14.67.57.65,0-1.17.02-2.33-.02-3.49,0-.17-.26-.34-.39-.5ZM935.37-390.11c.01.11.02.21.03.32.22-.02.47.05.66-.07.82-.51,1.61-.88,2.38.15.08.1.3.04.45.05,0-.06.02-.13.02-.19-.44-.41-.87-.83-1.31-1.23-.08-.07-.22-.14-.3-.1-.65.34-1.28.71-1.92,1.07ZM930.81-371.78c.46.03.58-.2.57-.63-.01-.66,0-1.31,0-1.97,0-.38,0-.75,0-1.13-.05-.03-.11-.06-.16-.1-.14.18-.39.36-.39.55-.04,1.08-.02,2.16-.02,3.27ZM962.58-314.93c-.83-.13-.88-.09-.88.85,0,.21,0,.41,0,.62,0,.25-.02.55.28.48.24-.06.59.03.6-.5,0-.47,0-.94,0-1.44ZM938.21-395.04c-.09-.3-.11-.66-.26-.83-.28-.34-1.13-.34-1.41,0-.15.18-.18.52-.28.84h1.95ZM942.69-375.6s-.1.06-.14.08c0,1.03-.01,2.07.02,3.1,0,.12.23.23.46.44,0-1.18.02-2.16-.01-3.14,0-.17-.21-.32-.32-.49ZM937.91-397.75c.05-.04.11-.09.16-.13-.12-.29-.21-.77-.37-.82-.33-.1-.71,0-1.05.11-.09.03-.1.46-.11.71,0,.03.24.11.36.12.33.02.67,0,1.01,0ZM938.2-392.5c-.11-.74-.59-.98-1.34-.81-.44.1-.58.3-.5.78.59-.43,1.18-.44,1.84.03ZM937.88-400.51s.09-.08.13-.11c-.11-.18-.22-.49-.34-.51-.32-.05-.65,0-.97.1-.08.02-.1.34-.15.53h1.33ZM936.58-402.83h1.33c-.02-.53-.27-.81-.72-.75-.32.04-.69.09-.61.75ZM937.75-411.41c0-.09,0-.17,0-.26-.18-.14-.36-.41-.53-.39-.16.02-.43.37-.4.52.03.23.26.54.43.57.15.03.34-.28.51-.44ZM937.75-413.39c0-.09,0-.17,0-.26-.18-.14-.37-.42-.53-.4-.15.02-.41.38-.39.54.03.22.26.52.43.55.15.03.33-.28.5-.44ZM936.41-404.66c.19-.94.11-1.05-.42-.86.12.25.24.49.42.86Z"/>
  <path class="st85" d="M936.5-350.96c.01.29.03.51.03.73,0,4.81,0,9.62.01,14.43,0,.59-.14.78-.59.8-1.96.11-3.92.26-5.87.43-.44.04-.58-.1-.58-.69.02-4.6.02-9.21,0-13.81,0-.61.14-.79.61-.86,1.77-.26,3.53-.59,5.3-.89.35-.06.69-.08,1.09-.13Z"/>
  <path class="st85" d="M939.31-350.97c.96.18,1.86.34,2.77.51.92.18,1.84.38,2.76.54.31.05.41.2.41.58,0,4.73,0,9.45,0,14.18,0,.41-.12.52-.43.49-1.67-.13-3.34-.25-5-.35-.37-.02-.55-.14-.54-.68.01-4.89,0-9.78,0-14.67,0-.16.02-.32.04-.6Z"/>
  <path class="st85" d="M931.49-318.24c-.4,0-.77.02-1.14,0-1.64-.13-3.27-.26-4.91-.41-.74-.06-.74-.07-.74-1.05,0-3.39,0-6.78,0-10.18,0-.24,0-.49,0-.9.79,0,1.54.02,2.29,0,1.37-.04,2.73-.1,4.1-.16.29-.01.44.06.44.5-.01,3.97,0,7.94,0,11.9,0,.08-.02.16-.03.3Z"/>
  <path class="st85" d="M961.19-317c-.84.12-1.69.25-2.53.35-3.02.37-6.05.72-9.07,1.1-3.5.44-7,.96-10.5,1.3-1.45.14-2.92-.08-4.37-.21-1.55-.14-3.1-.36-4.66-.54-2.66-.31-5.31-.62-7.97-.92-2.06-.24-4.13-.46-6.19-.7-1.05-.12-2.11-.26-3.17-.51.37-.07.74-.14,1.11-.21,2.12-.42,4.24-.51,6.38-.17,2.14.34,4.29.49,6.43.73,2.16.24,4.32.51,6.48.72,1.82.18,3.66.52,5.48.4,3.01-.2,6.01-.71,9.02-1.07,2.51-.3,5.03-.5,7.53-.91,1.75-.29,3.42.17,5.13.38.3.04.6.08.9.12,0,.05,0,.1,0,.15Z"/>
  <path class="st85" d="M943.7-318.2v-12.77c1.64.07,3.24.13,4.91.2,0,.83,0,1.57,0,2.3,0,3.04,0,6.08,0,9.12,0,.54-.1.74-.56.76-1.04.05-2.08.2-3.12.31-.4.04-.8.05-1.24.08Z"/>
  <path class="st85" d="M935.95-317.86c-.12.02-.23.05-.34.04-1.12-.09-2.24-.19-3.37-.27-.32-.02-.44-.17-.44-.6.01-3.9.01-7.81,0-11.71,0-.42.1-.57.44-.58,1.11-.03,2.22-.09,3.32-.15.29-.02.44.07.44.5,0,4.13,0,8.26,0,12.39,0,.12-.03.24-.05.38Z"/>
  <path class="st85" d="M926.99-306.37c-1.02-.21-1.93-.4-2.84-.6-2.01-.44-4.02-.89-6.02-1.34-2.04-.45-4.08-.91-6.12-1.36-.43-.09-.85-.22-1.28-.26-.42-.04-.61-.24-.58-.8.03-.45.03-.91,0-1.36-.03-.54.1-.76.54-.68,1.03.19,2.07.34,3.11.51,1.75.3,3.5.61,5.25.92,1.75.31,3.5.61,5.25.91.7.12,1.4.24,2.1.34.43.06.65.25.61.89-.05.91-.01,1.83-.01,2.82Z"/>
  <path class="st85" d="M948.94-330.76c1.3.07,2.58.13,3.86.23.1,0,.25.38.25.58.03,1.52.03,3.04.03,4.56,0,1.87-.03,3.74-.01,5.61,0,.54-.11.76-.56.78-1.06.05-2.11.17-3.17.29-.29.03-.46,0-.45-.45,0-3.76,0-7.52,0-11.28,0-.06.02-.12.05-.32Z"/>
  <path class="st85" d="M939.75-317.87v-13.17c.9,0,1.78-.04,2.66,0,1.17.07.98-.13.99,1.33,0,3.6,0,7.19.01,10.79,0,.56-.11.81-.57.84-.91.06-1.83.17-2.74.25-.11,0-.22-.03-.35-.04Z"/>
  <path class="st85" d="M938.04-312.56c.02-1.42-.16-1.18.94-1.33,3.03-.41,6.08-.74,9.11-1.12,3.49-.43,6.97-.89,10.45-1.33,1.31-.17,2.62-.33,3.93-.46.13-.01.4.23.39.29-.07.38.27,1-.31,1.1-1.19.22-2.39.41-3.58.61-1.88.31-3.76.63-5.64.94-1.78.3-3.57.59-5.35.89-1.82.3-3.63.59-5.45.9-1.35.23-2.71.46-4.06.7-.34.06-.48-.08-.45-.52.01-.22,0-.45,0-.68Z"/>
  <path class="st85" d="M963.16-312.89c0,.77.02,1.46-.02,2.14,0,.13-.24.31-.39.35-2.18.57-4.37,1.12-6.55,1.69-2.2.57-4.4,1.16-6.59,1.73-.28.07-.56.12-.89.19v-3.33c4.79-.92,9.57-1.83,14.45-2.77Z"/>
  <path class="st85" d="M924.38-318.79c-.6-.05-1.19-.09-1.78-.14-.4-.03-.8-.08-1.2-.09-.28,0-.4-.13-.4-.51,0-3.51,0-7.02.02-10.54,0-.16.19-.46.29-.46,1.01-.04,2.02-.02,3.08-.02v11.75Z"/>
  <path class="st85" d="M927.26-309.9c.97.16,1.86.31,2.75.46,1.8.31,3.6.62,5.39.94.7.12,1.4.24,2.1.39.11.02.28.2.28.31.02,1.23.01,2.45.01,3.78-.59-.11-1.11-.2-1.62-.31-2.75-.6-5.5-1.22-8.26-1.81-.49-.1-.72-.31-.67-1.02.06-.87.01-1.76.01-2.75Z"/>
  <path class="st85" d="M948.39-310.05c0,1.1.02,2.1-.02,3.1,0,.14-.25.35-.4.39-1.38.37-2.77.71-4.15,1.07-1.7.44-3.4.88-5.09,1.34-.64.17-.69.15-.69-.69,0-.9,0-1.81,0-2.71,0-.38.09-.53.4-.59,2.4-.45,4.8-.92,7.19-1.38.89-.17,1.77-.34,2.76-.53Z"/>
  <path class="st85" d="M922.52-315.51c1.33.14,2.57.27,3.82.41,1.57.18,3.13.36,4.7.55,2.12.25,4.25.51,6.38.75.32.04.41.19.4.57-.02.45-.02.9,0,1.35.02.46-.13.57-.46.52-1.47-.22-2.93-.43-4.4-.65-1.72-.25-3.44-.51-5.16-.77-1.62-.24-3.25-.5-4.88-.73-.3-.04-.42-.17-.4-.57.02-.45,0-.9,0-1.44Z"/>
  <path class="st85" d="M922.21-354.77c.72-.23,1.45-.44,2.17-.7,1.25-.44,2.48-.97,3.75-1.33,1.39-.4,2.81-.64,4.22-.96,1.33-.3,2.65-.64,3.97-.94.55-.13,1.11-.26,1.66-.3.31-.02.62.14.93.24,3.38,1.12,6.76,2.24,10.15,3.36.73.24,1.47.45,2.2.69.13.04.26.13.43.22-.48.34-.89.35-1.37.21-2.86-.86-5.72-1.68-8.59-2.5-.75-.22-1.52-.33-2.25-.62-.43-.17-.81-.55-1.18-.89-.3-.28-.56-.36-.86-.04-.99,1.08-2.21,1.28-3.44,1.54-1.98.41-3.94.94-5.91,1.4-1.54.36-3.09.74-4.64,1.04-.4.08-.82-.08-1.23-.14,0-.09,0-.18,0-.27Z"/>
  <path class="st85" d="M939.85-311.1v2.26c-1.47.68-2.92.29-4.38.04-1.8-.32-3.59-.62-5.39-.94-.46-.08-.93-.13-1.38-.25-.13-.03-.33-.24-.34-.39-.04-.63-.02-1.26-.02-1.99.39.06.72.12,1.05.17,2.09.3,4.18.59,6.27.89.3.04.6.14.91.15,1.08.03,2.16.04,3.29.06Z"/>
  <path class="st85" d="M927.34-331.18c-.04-.06-.06-.08-.06-.1-.1-1.15-.09-1.17.81-1.22,3.21-.18,6.42-.43,9.63-.5,1.92-.04,3.85.19,5.77.31.96.06,1.92.16,2.89.17.56,0,.43.47.46.88.03.49-.18.52-.48.5-5.63-.45-11.27-.42-16.9-.05-.66.04-1.32.04-1.97.06-.05,0-.09-.02-.14-.03Z"/>
  <path class="st85" d="M923.52-332.54c-1.67.08-3.34.16-5.01.24-.28.01-.54.07-.55-.49-.01-.52.16-.62.51-.64,2.47-.17,4.94-.37,7.41-.54,3.77-.27,7.54-.54,11.31-.81.54-.04.85.63.57,1.23-.06.12-.27.17-.42.18-2.02.14-4.04.27-6.07.38-2.58.15-5.17.28-7.76.43,0,0,0,.01,0,.02Z"/>
  <path class="st85" d="M930.54-359.6c0-1.2-.02-2.37.02-3.53,0-.18.3-.43.49-.49.67-.21,1.35-.34,2.02-.53,1.11-.31,2.22-.63,3.32-.98.35-.11.43.03.43.43,0,1.03,0,2.05-.03,3.08,0,.21-.21.55-.36.59-1.85.5-3.7.96-5.56,1.43-.09.02-.18,0-.34,0Z"/>
  <path class="st85" d="M919.4-318.87c3.08.27,6.15.54,9.23.8,2.82.24,5.64.47,8.46.69.73.06.75.08.72,1-.01.34-.1.47-.37.44-1.12-.13-2.24-.24-3.36-.36-2.22-.24-4.45-.48-6.67-.73-2.73-.3-5.47-.62-8.2-.93-.51-.06-1.02-.1-1.54-.15-.25-.02-.43-.17-.34-.49.04-.15.25-.32.39-.33.56-.04,1.12-.02,1.68-.02,0,.02,0,.04,0,.06Z"/>
  <path class="st85" d="M954.85-318.92c.31,0,.79-.03,1.27.01.16.01.41.15.45.31.11.42-.16.5-.42.53-.59.07-1.18.14-1.77.21-3.09.37-6.17.73-9.26,1.09-2.19.26-4.38.53-6.57.8-.27.03-.55.11-.51-.42.03-.41-.16-.93.44-.98,3.12-.27,6.25-.56,9.37-.86,2.27-.22,4.55-.45,7-.69Z"/>
  <path class="st85" d="M937.8-324.38c0,2.03-.01,4.07,0,6.1,0,.51-.11.68-.52.63-1.03-.12-1.03-.1-1.03-1.39,0-3.82,0-7.64,0-11.46,0-.51.11-.67.51-.68,1.04-.02,1.04-.04,1.04,1.32,0,1.83,0,3.66,0,5.48Z"/>
  <path class="st85" d="M911-316.85c3.77.43,7.46.86,11.2,1.29v1.96c-1.1-.16-2.16-.32-3.23-.47-1.63-.24-3.25-.47-4.88-.71-.92-.13-1.85-.25-2.77-.42-.12-.02-.29-.24-.31-.4-.05-.38-.01-.77-.01-1.25Z"/>
  <path class="st85" d="M931.64-372.05c0-1.17-.02-2.25.02-3.33,0-.17.24-.4.4-.47,1.57-.65,3.14-1.27,4.79-1.93.01.34.04.63.04.92,0,.82.02,1.64-.01,2.46,0,.21-.15.54-.28.59-1.53.59-3.08,1.13-4.62,1.69-.08.03-.16.03-.34.07Z"/>
  <path class="st85" d="M921.88-354.3c.14-.03.19-.06.23-.05,1.33.58,2.59-.07,3.87-.36.98-.22,1.96-.41,2.93-.64,1.89-.44,3.78-.96,5.68-1.34,1.13-.23,2.17-.68,3.12-1.48.1-.09.35-.1.42,0,.85,1.15,2.04,1.22,3.12,1.56,2.46.77,4.94,1.45,7.41,2.17.7.2,1.41.42,2.11.61.12.03.25-.02.37-.05.26-.08.51-.19.8-.29-.2.99-.29,1.05-.94.87-2.49-.68-4.99-1.36-7.48-2.03-1.74-.46-3.48-.92-5.23-1.35-.34-.08-.7-.06-1.04.02-1.94.41-3.88.85-5.82,1.29-1.53.35-3.05.73-4.58,1.09-1.34.32-2.68.62-4.01.95-.61.15-.67-.49-.94-.98Z"/>
  <path class="st85" d="M928.05-310.12c-.55-.09-1.02-.16-1.49-.24-2.11-.37-4.23-.76-6.34-1.11-.4-.07-.59-.25-.52-.77,0-.02,0-.04,0-.06,0-1.42,0-1.38,1.12-1.2,2.17.35,4.34.66,6.51.96.72.1.73.07.73,1.02,0,.43,0,.86,0,1.4Z"/>
  <path class="st85" d="M939.45-324.5c0,2.01-.01,4.02,0,6.04,0,.53-.11.7-.53.76-1.02.14-.89.13-.89-1.02,0-3.8,0-7.6,0-11.4,0-1.26-.03-1.04.87-1.06.41,0,.56.15.55.7-.03,1.99,0,3.98,0,5.98Z"/>
  <path class="st85" d="M949.78-367.2c-.3.95-.3.94-1,.64-3.53-1.49-7.06-3-10.6-4.45-.33-.13-.75.03-1.11.16-3.59,1.25-7.17,2.52-10.75,3.79-.4.14-.8.28-1.2.43-.79.29-.81.27-1.06-.77.02-.03.04-.08.06-.08,1.64.27,3.11-.63,4.63-1.14,2.37-.8,4.73-1.64,7.09-2.51.59-.22,1.14-.63,1.72-.92.16-.08.43-.15.52-.04.94,1.04,2.14,1.26,3.25,1.76,2.42,1.08,4.86,2.1,7.3,3.1.34.14.73.02,1.14.02Z"/>
  <path class="st85" d="M947.43-312.54c0,.73.02,1.38-.01,2.03,0,.13-.18.34-.3.36-1.82.36-3.65.7-5.47,1.04-.46.09-.91.17-1.42.27v-2.5c2.38-.4,4.76-.8,7.2-1.21Z"/>
  <path class="st85" d="M943.34-359.49c-.82-.27-1.53-.5-2.24-.74-.56-.19-1.11-.41-1.66-.61-.26-.09-.39-.22-.38-.63.04-1.16.01-2.33.01-3.61.66.23,1.25.43,1.84.64.71.26,1.42.51,2.12.8.12.05.29.25.29.38.02,1.2.01,2.41.01,3.76Z"/>
  <path class="st85" d="M924.77-367.97c.57-.23,1.14-.46,1.71-.68,3.67-1.4,7.34-2.81,11.01-4.2.24-.09.55-.1.79,0,3.63,1.63,7.25,3.29,10.87,4.95.13.06.24.14.37.21-.01.08-.02.15-.03.23-.3-.03-.61,0-.89-.11-3.12-1.31-6.24-2.64-9.34-4-.37-.16-.67-.56-1.02-.79-.16-.11-.43-.21-.56-.12-1.52,1.15-3.25,1.49-4.91,2.11-2.4.9-4.82,1.72-7.23,2.54-.23.08-.5.01-.75.01,0-.06,0-.11-.01-.17Z"/>
  <path class="st85" d="M937.8-343.13c0,2.43-.02,4.85.01,7.28,0,.61-.18.7-.59.72-.44.03-.46-.27-.46-.68,0-4.85,0-9.7,0-14.56,0-.66.36-1,.84-.77.1.05.18.36.18.54.01,1.93,0,3.87,0,5.8,0,.56,0,1.11,0,1.67Z"/>
  <path class="st85" d="M954.56-313.73v2.13c-1.02.21-2.01.41-3.01.61-1.05.21-2.09.4-3.14.6-.72.14-.74.12-.74-.79,0-1.47,0-1.44,1.15-1.61,1.75-.26,3.5-.57,5.25-.87.14-.02.28-.05.49-.08Z"/>
  <path class="st85" d="M939.03-343.1c0,2.44,0,4.89,0,7.33,0,.4-.02.67-.43.63-.34-.03-.57-.04-.57-.62.02-4.93,0-9.85.01-14.78,0-.29-.07-.67.34-.61.32.05.67-.04.66.66-.03,2.46-.01,4.93-.01,7.39Z"/>
  <path class="st85" d="M929.29-349.64c0,1.15,0,2.31,0,3.47,0,3.63,0,7.26-.01,10.9,0,.68-.22.92-.73.73-.1-.03-.2-.29-.2-.45-.02-.8-.01-1.6-.01-2.4,0-3.8,0-7.59,0-11.39,0-.98.06-1.04.96-.87Z"/>
  <path class="st85" d="M919.53-330.42c.08-.03.12-.07.17-.07q1.06-.16,1.06,1.2c0,3.17,0,6.33,0,9.5,0,.29.12.7-.33.7-.78,0-.93-.08-.93-.68,0-3.37,0-6.74,0-10.11,0-.18.02-.36.03-.53Z"/>
  <path class="st85" d="M924.9-366.2c1.2-.42,2.4-.85,3.6-1.27,2.78-.98,5.57-1.91,8.33-2.99.99-.39,1.81-.04,2.69.33,3.04,1.3,6.09,2.57,9.13,3.85.11.05.21.12.32.18,0,.07-.02.14-.03.21-.23-.02-.48.03-.7-.06-3.33-1.35-6.65-2.73-9.98-4.08-.2-.08-.45-.1-.66-.03-3.34,1.16-6.67,2.34-10.01,3.52-.6.21-1.2.46-1.81.62-.28.07-.59-.03-.88-.05,0-.08,0-.16,0-.23Z"/>
  <path class="st85" d="M923.86-352.64c.39-.09.77-.18,1.16-.26,2.98-.63,5.95-1.25,8.93-1.88,1.15-.24,2.3-.49,3.45-.77.96-.23,1.85.2,2.75.43,2.22.56,4.42,1.19,6.64,1.78,1.1.29,2.2.57,3.3.85.07.02.14.08.21.13,0,.06,0,.12.01.19-.22.03-.45.12-.66.07-1.69-.41-3.37-.86-5.05-1.29-1.93-.49-3.89-.89-5.8-1.51-1.01-.33-1.89.05-2.83.22-1.49.27-2.98.6-4.46.91-1.79.37-3.58.75-5.36,1.13-.55.12-1.11.25-1.66.33-.21.03-.42-.08-.64-.13,0-.07.01-.13.02-.2Z"/>
  <path class="st85" d="M926.42-379.46c2.85-1.22,5.59-2.39,8.32-3.55.9-.38,1.79-.79,2.69-1.14.24-.09.56-.14.78-.02,3.05,1.66,6.09,3.36,9.19,5.07-.24.35-.48.33-.76.17-2.1-1.14-4.2-2.26-6.29-3.39-.78-.42-1.6-.74-2.23-1.54-.08-.1-.33-.12-.41-.03-1.32,1.29-2.95,1.56-4.45,2.24-1.86.85-3.74,1.58-5.61,2.37-.4.17-.76.21-1.23-.18Z"/>
  <path class="st85" d="M947.76-332.75c-1.39-.08-2.69-.15-3.98-.23-1.75-.11-3.5-.28-5.24-.35-.59-.02-.47-.46-.49-.9-.03-.55.2-.58.54-.56,2.93.22,5.87.43,8.8.63.26.02.39.11.38.46,0,.28,0,.56,0,.95Z"/>
  <path class="st85" d="M945.66-356.86c-1.69-.54-3.36-1.07-5.02-1.6-.88-.28-1.77-.59-2.66-.81-.31-.08-.66.05-.99.13-1.36.31-2.71.62-4.07.94-1.35.32-2.71.66-4.06.98-.19.05-.47.28-.54-.19-.06-.41.16-.52.43-.58,1.74-.4,3.47-.79,5.21-1.2,1.2-.28,2.38-.64,3.59-.84.54-.09,1.14.07,1.68.26,2.08.7,4.14,1.46,6.21,2.19.29.1.29.11.24.72Z"/>
  <path class="st85" d="M954.87-311.67c0-.65-.02-1.2.02-1.75,0-.14.2-.36.32-.38.89-.18,1.78-.33,2.67-.48,1.05-.17,2.1-.32,3.15-.51.36-.06.45.11.45.53-.02,1.55.13,1.35-1,1.55-1.59.28-3.17.62-4.76.92-.25.05-.51.07-.85.12Z"/>
  <path class="st85" d="M951.11-352.69c-.18,0-.36.04-.53,0-2.25-.57-4.5-1.14-6.74-1.73-1.95-.5-3.89-1.04-5.84-1.5-.37-.09-.79.1-1.18.18-1.56.32-3.13.65-4.69.99-1.34.29-2.68.63-4.03.92-1.14.25-2.28.46-3.42.68-.41.08-.82.18-1.23.25-.16.03-.33-.02-.49-.04,0-.06-.01-.12-.02-.18.28-.08.56-.17.84-.23,1.34-.3,2.68-.59,4.02-.88,1.71-.37,3.41-.74,5.12-1.12.95-.21,1.91-.37,2.83-.69,1.67-.58,3.28-.33,4.91.24.71.25,1.44.38,2.16.58,2.39.67,4.79,1.35,7.18,2.02.37.1.75.2,1.12.3,0,.07,0,.14-.01.21Z"/>
  <path class="st85" d="M913.11-314.59c.77.1,1.47.19,2.16.29,1.23.18,2.45.38,3.68.53.37.04.49.21.5.68.01,1.5.02,1.51-1.12,1.31-1.57-.27-3.15-.55-4.72-.81-.37-.06-.55-.25-.51-.75.03-.38,0-.77,0-1.25Z"/>
  <path class="st85" d="M925.98-365.63c1.34-.48,2.68-.96,4.02-1.43,2.41-.84,4.83-1.63,7.23-2.55.82-.32,1.48.12,2.18.39,2.75,1.1,5.49,2.24,8.24,3.37.15.06.29.15.44.22v.18c-.21,0-.43.06-.62,0-2.18-.83-4.36-1.68-6.53-2.53-.9-.35-1.79-.77-2.71-1.04-.38-.11-.82.05-1.22.18-3.49,1.15-6.98,2.33-10.47,3.48-.17.06-.38-.03-.57-.05,0-.07,0-.14,0-.21Z"/>
  <path class="st85" d="M948.6-351.11c-.2.04-.4.16-.59.11-3.25-.76-6.5-1.55-9.75-2.3-.31-.07-.64-.02-.95.04-1.97.36-3.94.74-5.91,1.12-1.6.3-3.21.62-4.81.9-.25.04-.51-.03-.76-.05,0-.08,0-.15,0-.23.44-.1.89-.2,1.33-.29,2.2-.45,4.41-.89,6.61-1.34.73-.15,1.45-.31,2.17-.5,1.39-.37,2.76-.28,4.14.11,2.27.64,4.55,1.21,6.83,1.82.56.15,1.13.29,1.69.44,0,.06,0,.11.01.17Z"/>
  <path class="st85" d="M942.25-372.39c-1.11-.49-2.14-.93-3.17-1.39-.07-.03-.16-.18-.16-.27-.01-1.16,0-2.32,0-3.6.88.49,1.67.92,2.46,1.36q.88.49.88,1.73c0,.69,0,1.38,0,2.17Z"/>
  <path class="st85" d="M945.54-349.66c.71-.09.76-.04.76.74,0,4.56,0,9.12,0,13.68,0,.41-.01.79-.45.64-.14-.05-.24-.27-.35-.42-.02-.03,0-.12,0-.18,0-4.64,0-9.29,0-13.93,0-.18.02-.36.04-.53Z"/>
  <path class="st85" d="M949.32-351.5c-.46-.09-.92-.17-1.38-.29-2.06-.5-4.13-1.01-6.19-1.53-1.12-.28-2.22-.64-3.34-.87-.51-.1-1.05-.04-1.56.06-1.96.37-3.92.79-5.88,1.19-1.49.3-2.98.61-4.47.92-.4.08-.79.17-1.19.24-.12.02-.26-.04-.39-.06v-.19c.38-.09.77-.2,1.16-.28,2.64-.56,5.29-1.11,7.93-1.66,1.15-.24,2.3-.55,3.45-.72.56-.08,1.15.02,1.71.16,2.77.71,5.52,1.47,8.29,2.21.55.15,1.1.28,1.65.43.08.02.16.1.23.16-.01.08-.03.16-.04.24Z"/>
  <path class="st85" d="M951.95-332.46c-1.17-.08-2.34-.19-3.51-.23-.62-.02-.41-.56-.43-.96-.03-.52.25-.45.51-.43,2.29.18,4.58.38,6.87.52.45.03.51.25.52.74,0,.54-.22.6-.55.58-1.14-.07-2.27-.14-3.41-.2,0,0,0,0,0-.01Z"/>
  <path class="st85" d="M927.04-377.91c1.45-.62,2.91-1.24,4.36-1.86,2.01-.85,4.01-1.71,6.03-2.52.29-.12.67-.1.95.05,2.69,1.4,5.36,2.83,8.04,4.26.15.08.29.17.43.25,0,.06,0,.12,0,.18-.21,0-.46.08-.64-.01-2.31-1.22-4.61-2.46-6.92-3.7-.09-.05-.19-.08-.26-.15-.92-.85-1.81-.31-2.72.07-2.91,1.23-5.82,2.44-8.73,3.64-.16.07-.36-.02-.54-.03v-.18Z"/>
  <path class="st85" d="M918.92-331.91c.8-.07,1.58-.15,2.37-.19,1.73-.1,3.46-.18,5.2-.28.31-.02.53,0,.52.52,0,.46-.02.75-.5.76-2.29.07-4.59.18-6.88.28-.78.03-.78.04-.7-1.1Z"/>
  <path class="st85" d="M953.34-330.46c.77-.17.8-.14.8.74,0,3.24,0,6.48,0,9.72,0,.86-.05.91-.8.79v-11.26Z"/>
  <path class="st85" d="M947.69-350.52c-.18.01-.37.06-.54.03-2.04-.44-4.08-.9-6.12-1.36-.98-.22-1.95-.5-2.94-.64-.46-.07-.95.09-1.43.18-2.67.5-5.33,1.02-8,1.53-.36.07-.73.17-1.09.2-.23.01-.47-.09-.71-.15,0-.06,0-.13,0-.19.53-.11,1.06-.24,1.59-.34,3.06-.58,6.12-1.18,9.19-1.69.57-.1,1.17.12,1.75.26,2.59.6,5.17,1.21,7.76,1.83.18.04.36.13.54.2,0,.05,0,.1-.01.16Z"/>
  <path class="st85" d="M944.86-358.14c-.54-.17-1.07-.35-1.61-.52-1.54-.51-3.09-.96-4.6-1.56-.64-.25-1.21-.17-1.83,0-1.08.29-2.17.53-3.25.8-1.29.32-2.58.66-3.87.99-.05.01-.1.05-.14.04-.15-.05-.29-.12-.44-.18.11-.16.2-.42.33-.46,1.24-.32,2.49-.59,3.74-.9.99-.25,1.98-.48,2.96-.79,1.16-.37,2.29-.33,3.44.15,1.57.65,3.16,1.21,4.74,1.81.22.08.42.22.63.33-.04.1-.07.2-.11.3Z"/>
  <path class="st85" d="M944.37-370.44c-.72-.32-1.44-.64-2.16-.97-1.34-.61-2.68-1.26-4.04-1.81-.32-.13-.74.06-1.1.19-2.46.92-4.91,1.87-7.37,2.8-.06.02-.12.02-.19.04-.11-.41-.08-.65.3-.78,2.64-.95,5.27-1.93,7.91-2.88.21-.07.47.03.69.12,1.88.81,3.76,1.64,5.64,2.47.26.12.54.25.33.81Z"/>
  <path class="st85" d="M927.99-350.32c1.41-.27,2.82-.54,4.24-.81,1.62-.31,3.23-.68,4.86-.9.77-.1,1.57,0,2.33.16,2.42.5,4.84,1.06,7.26,1.6.03,0,.05.04.2.18-.22.07-.36.17-.48.15-2.25-.43-4.51-.84-6.76-1.35-1.26-.28-2.48-.22-3.73.02-1.83.35-3.66.63-5.49.94-.6.1-1.21.23-1.81.31-.2.03-.41-.05-.62-.08,0-.07,0-.15,0-.22Z"/>
  <path class="st85" d="M955.04-331.89c.14,1.03.1,1.08-.65,1.04-2.26-.1-4.52-.22-6.78-.28-.49-.01-.48-.31-.49-.76-.02-.52.19-.55.51-.53,2.4.17,4.81.32,7.21.48.06,0,.12.03.21.04Z"/>
  <path class="st85" d="M947.19-364.94c-.17,0-.34.05-.5,0-2.8-1.07-5.58-2.18-8.39-3.21-.41-.15-.91,0-1.35.14-2.8.9-5.59,1.84-8.38,2.77-.33.11-.64.29-.96.39-.23.07-.47.05-.71.07-.01-.07-.03-.15-.04-.22.09-.07.18-.18.28-.21,3.41-1.15,6.83-2.27,10.24-3.44.76-.26,1.39.19,2.05.44,2.55.96,5.09,1.98,7.64,2.98.04.02.08.05.12.07,0,.08,0,.15,0,.23Z"/>
  <path class="st85" d="M926.28-379.02c1.36.58,2.44-.45,3.59-.88,2.23-.83,4.43-1.81,6.63-2.76.4-.17.75-.54,1.13-.79.12-.08.35-.15.41-.07.78.97,1.83,1.25,2.77,1.79,1.82,1.03,3.65,1.99,5.49,2.95.36.19.77.23,1.17.34-.06.54-.12.59-.61.33-2.86-1.52-5.71-3.04-8.57-4.53-.22-.12-.53-.12-.77-.03-3.46,1.43-6.92,2.89-10.37,4.35-.62.26-.66.24-.88-.7Z"/>
  <path class="st85" d="M927.71-364.65c.84-.27,1.67-.53,2.51-.8,2.35-.77,4.7-1.5,7.03-2.34.82-.3,1.49.13,2.19.39,2.22.82,4.42,1.7,6.63,2.56.11.04.21.13.31.2-.01.06-.02.12-.03.18-.19-.01-.4.02-.58-.05-2.5-.95-5-1.92-7.51-2.88-.19-.07-.42-.1-.61-.04-2.39.78-4.78,1.57-7.17,2.37-.68.23-1.35.51-2.04.71-.23.07-.49-.04-.74-.06,0-.08.01-.16.02-.25Z"/>
  <path class="st85" d="M927.86-377.42c.21-.1.42-.22.63-.31,3.05-1.27,6.09-2.54,9.14-3.8.16-.07.39-.05.55.04,2.6,1.39,5.2,2.79,7.82,4.2-.16.39-.36.31-.6.18-1.97-1.08-3.98-2.08-5.92-3.25-1.09-.66-2.05-.7-3.19-.17-2.57,1.2-5.2,2.21-7.81,3.28-.19.08-.4.03-.6.04,0-.07-.02-.15-.03-.22Z"/>
  <path class="st85" d="M945.19-376.83c-.23.39-.45.23-.69.11-2.03-1.12-4.07-2.22-6.1-3.35-.34-.19-.63-.2-.97-.06-2.71,1.14-5.42,2.27-8.14,3.38-.18.07-.4,0-.6,0,0-.07-.01-.15-.02-.22.8-.34,1.59-.68,2.39-1.01,2.18-.91,4.36-1.82,6.54-2.72.17-.07.39-.08.54,0,2.29,1.23,4.58,2.47,6.86,3.72.05.03.1.08.18.14Z"/>
  <path class="st85" d="M933.39-384.72c-.12-.04-.25-.06-.36-.14-.1-.07-.23-.2-.23-.31,0-.11.13-.26.23-.31.71-.33,1.42-.65,2.13-.96.74-.33,1.49-.64,2.22-.98.35-.16.65-.16,1,.1.73.56,1.49,1.05,2.23,1.58.2.14.54.26.34.63-.09.16-.48.18-.67.08-.49-.26-.97-.56-1.39-.96-.66-.63-1.29-.56-2.01-.2-1.04.51-2.13.9-3.19,1.35-.09.04-.18.07-.28.12Z"/>
  <path class="st85" d="M944.29-376.15c-.23-.04-.48-.03-.68-.14-1.77-.98-3.52-2-5.29-2.96-.24-.13-.57-.15-.82-.05-2.46,1-4.91,2.04-7.37,3.05-.17.07-.38,0-.57,0,0-.08,0-.16,0-.24.98-.42,1.96-.84,2.95-1.24,1.71-.71,3.42-1.42,5.13-2.11.15-.06.36-.08.5,0,2.04,1.1,4.07,2.21,6.11,3.33.04.02.06.09.08.14,0,.07-.02.15-.02.22Z"/>
  <path class="st85" d="M934.91-404.11c.94.08.52-.83.82-1.26.08.19.13.38.23.51.13.16.32.4.44.37.16-.04.31-.3.43-.5.16-.27.29-.57.43-.85.13.28.25.58.4.85.11.2.26.46.42.5.12.03.31-.21.44-.37.09-.11.12-.28.18-.42.05,0,.1-.01.14-.02.03.26.02.55.1.78.06.2.23.35.39.48.11.74-.11,1.35-.74,1.94-.14-.33-.32-.63-.39-.96-.11-.55-.35-.81-.93-.82-.58-.01-.92.25-1,.8-.02.12.02.28-.03.36-.11.18-.25.38-.41.47-.07.04-.27-.13-.33-.27-.2-.47-.37-.97-.59-1.59Z"/>
  <path class="st85" d="M945.5-364.01c-.23-.02-.47.02-.69-.06-2.17-.82-4.33-1.68-6.5-2.46-.4-.14-.88-.03-1.3.09-1.92.57-3.83,1.19-5.74,1.8-.76.24-1.52.5-2.28.74-.1.03-.21,0-.46,0,.18-.2.24-.32.32-.35,1.69-.55,3.39-1.08,5.08-1.62.87-.28,1.76-.48,2.6-.87.97-.45,1.86-.32,2.8.07,1.91.79,3.84,1.49,5.75,2.23.15.06.28.15.42.22,0,.06-.01.13-.02.19Z"/>
  <path class="st85" d="M929.34-363.77c.61-.2,1.22-.4,1.83-.59,1.54-.48,3.08-.95,4.62-1.42.65-.2,1.31-.47,1.97-.51.47-.03.96.24,1.44.42,1.81.68,3.61,1.38,5.42,2.07,0,.06,0,.12,0,.19-.15,0-.32.04-.46,0-1.96-.7-3.91-1.43-5.88-2.09-.39-.13-.85-.01-1.26.09-1.33.35-2.66.75-3.99,1.13-1.06.31-2.12.64-3.18.94-.16.05-.34,0-.51,0,0-.08,0-.16,0-.24Z"/>
  <path class="st85" d="M943.41-375.73c-.22-.05-.45-.04-.65-.15-1.47-.81-2.93-1.66-4.41-2.45-.24-.13-.57-.16-.81-.07-2.12.82-4.22,1.69-6.33,2.53-.25.1-.52.1-.79.14-.01-.09-.03-.17-.04-.26.43-.19.86-.39,1.29-.57,1.87-.78,3.75-1.54,5.62-2.35.42-.18.77-.19,1.18.06,1.51.9,3.04,1.74,4.57,2.61.14.08.28.17.42.26l-.04.24Z"/>
  <path class="st85" d="M937.8-386.04c0,.32.04.63-.01.92-.04.22-.16.52-.31.58-1.28.57-2.57,1.11-3.94,1.69,0-.5-.01-.92,0-1.33,0-.1.11-.25.2-.29,1.29-.55,2.58-1.08,3.87-1.61.03-.01.06.01.18.04Z"/>
  <path class="st85" d="M941.48-385.73c-.2-.06-.43-.07-.61-.19-.85-.57-1.68-1.2-2.54-1.75-.24-.15-.59-.2-.85-.09-1.51.61-3,1.29-4.51,1.92-.23.1-.5.05-.75.07-.01-.07-.03-.15-.04-.22.13-.08.25-.18.39-.25,1.65-.74,3.29-1.49,4.95-2.2.22-.09.54-.05.75.09,1.1.76,2.17,1.57,3.25,2.36-.01.09-.03.17-.04.26Z"/>
  <path class="st85" d="M937.77-406.44c.15.06.32.13.49.2-.02.1-.03.16-.04.16-.65,0-1.31,0-1.99-.13.15-.08.31-.17.47-.25-.06-.62-.17-1.25-.16-1.87.01-.46.14-.96.32-1.36.19-.41.55-.39.76,0,.17.32.33.73.33,1.11,0,.68-.11,1.37-.18,2.13Z"/>
  <path class="st85" d="M935.89-392.43c-.22-.44-.47-.72-.48-1.02-.02-.26.18-.62.36-.8.71-.69,2.26-.67,2.98,0,.55.51.47,1.21-.2,1.6-.15-.85-.69-1.02-1.24-1.04-.6-.02-1.17.14-1.41,1.26Z"/>
  <path class="st85" d="M938.5-395.46c-.22-.85-.74-.97-1.32-.95-.54.02-1.03.16-1.2,1.2-.22-.43-.47-.71-.47-.97,0-.28.21-.67.41-.81.87-.61,1.78-.58,2.67,0,.49.31.6,1.21-.09,1.54Z"/>
  <path class="st85" d="M936.19-398.22c-.5-.48-.53-1.05-.09-1.53.56-.61,1.72-.61,2.29,0,.42.44.41.97-.04,1.53-.23-.77-.68-1.04-1.29-.95-.44.07-.77.35-.87.96Z"/>
  <path class="st85" d="M938.5-391.25c.17-.09.31-.16.45-.24.04.03.07.06.11.09-.09.23-.15.55-.29.65-.12.08-.41-.02-.53-.17-.55-.71-1.12-.74-1.75-.21-.13.11-.29.16-.44.24-.48.25-.56.18-.54-.58.09.04.17.07.25.1.07.03.15.07.22.1.88-1.75,1.77-1.77,2.52,0Z"/>
  <path class="st85" d="M944.31-359.2c-.5-.02-.75-.17-.73-.79.03-1.11,0-2.23,0-3.38.51.03.76.2.73.87-.04,1.08-.01,2.16-.01,3.3Z"/>
  <path class="st85" d="M938.81-361.22c-.6,0-.82-.28-.79-.95.04-.86,0-1.72.01-2.58,0-.21.03-.42.04-.64q.74.13.74.97c0,1.06,0,2.11,0,3.2Z"/>
  <path class="st85" d="M940.14-383.49c-.45-.25-.9-.5-1.36-.75-.81-.44-.88-.62-.64-1.87.68.48,1.37.89,1.98,1.45.17.16.13.72.18,1.09-.05.03-.1.05-.16.08Z"/>
  <path class="st85" d="M937.79-365.42c0,1.27.02,2.49-.02,3.71,0,.18-.32.33-.6.6-.05-.38-.1-.58-.1-.78,0-.9,0-1.81,0-2.71,0-.72.02-.74.73-.82Z"/>
  <path class="st85" d="M938.49-388.92c-.52.1-.93.15-1.32.28-.4.13-.78.34-1.33.59.09-.57.04-1.17.25-1.4.65-.73,1.34-.72,1.98-.18.25.21.55.41.42.7Z"/>
  <path class="st85" d="M938.28-400.77c-.55-1.16-1.53-1.16-2.07,0-.38-.35-.44-.79-.15-1.2.51-.75,1.92-.72,2.41.04.27.42.2.81-.18,1.15Z"/>
  <path class="st85" d="M929.68-361.04c-.02-.51-.04-1.02-.07-1.53-.03-.43.05-.72.44-.75.43-.03.29.39.29.65,0,.96-.01,1.92-.06,2.88,0,.15-.23.28-.35.42-.09-.14-.25-.28-.26-.44-.04-.4-.01-.82-.01-1.23,0,0,.01,0,.02,0Z"/>
  <path class="st85" d="M937.81-378.08c0,.77,0,1.54,0,2.31,0,.31,0,.62,0,.92q0,.65-.62.73c0-1.21-.02-2.41.02-3.61,0-.16.3-.3.46-.45.04.03.09.06.13.09Z"/>
  <path class="st85" d="M938.21-378.09c.14.17.39.33.39.5.04,1.16.02,2.32.02,3.49-.43.02-.57-.18-.57-.65.01-1.08,0-2.16,0-3.23.05-.04.1-.08.15-.11Z"/>
  <path class="st85" d="M935.37-390.11c.64-.36,1.28-.73,1.92-1.07.08-.04.22.03.3.1.44.4.88.82,1.31,1.23,0,.06-.02.13-.02.19-.15-.01-.37.06-.45-.05-.77-1.03-1.56-.66-2.38-.15-.18.11-.44.05-.66.07-.01-.11-.02-.21-.03-.32Z"/>
  <path class="st85" d="M930.81-371.78c0-1.11-.02-2.19.02-3.27,0-.19.26-.37.39-.55.05.03.11.06.16.1,0,.38,0,.75,0,1.13,0,.66-.01,1.31,0,1.97,0,.43-.11.66-.57.63Z"/>
  <path class="st85" d="M962.58-314.93c0,.5,0,.97,0,1.44,0,.54-.36.44-.6.5-.3.08-.28-.23-.28-.48,0-.21,0-.41,0-.62,0-.94.05-.99.88-.85Z"/>
  <path class="st85" d="M938.21-395.04h-1.95c.1-.31.13-.66.28-.84.28-.33,1.13-.33,1.41,0,.15.18.17.53.26.83Z"/>
  <path class="st85" d="M942.69-375.6c.11.16.31.32.32.49.03.98.01,1.96.01,3.14-.23-.21-.46-.32-.46-.44-.03-1.03-.02-2.06-.02-3.1.05-.03.1-.06.14-.08Z"/>
  <path class="st85" d="M937.91-397.75c-.34,0-.67.01-1.01,0-.13,0-.36-.08-.36-.12,0-.25.02-.68.11-.71.34-.12.72-.21,1.05-.11.17.05.25.53.37.82-.05.04-.11.09-.16.13Z"/>
  <path class="st85" d="M938.2-392.5c-.66-.47-1.25-.47-1.84-.03-.07-.47.07-.68.5-.78.75-.17,1.23.07,1.34.81Z"/>
  <path class="st85" d="M937.88-400.51h-1.33c.05-.19.07-.51.15-.53.31-.09.65-.15.97-.1.13.02.23.33.34.51-.04.04-.09.08-.13.11Z"/>
  <path class="st85" d="M936.58-402.83c-.07-.65.29-.71.61-.75.45-.06.7.22.72.75h-1.33Z"/>
  <path class="st85" d="M937.75-411.41c-.17.16-.36.47-.51.44-.17-.03-.4-.34-.43-.57-.02-.15.25-.5.4-.52.17-.02.35.25.53.39,0,.09,0,.17,0,.26Z"/>
  <path class="st85" d="M937.75-413.39c-.17.16-.35.46-.5.44-.17-.03-.4-.33-.43-.55-.02-.16.24-.52.39-.54.17-.02.35.25.53.4,0,.09,0,.17,0,.26Z"/>
  <path class="st85" d="M938.57-405.68c-.14.3-.27.59-.41.89-.05-.02-.1-.03-.15-.05-.01-.24-.03-.47-.04-.76.24-.02.43-.04.62-.06,0,0-.01-.01-.01-.01Z"/>
  <path class="st85" d="M936.41-404.66c-.18-.38-.3-.61-.42-.86.54-.19.61-.08.42.86Z"/>
  <path d="M852.75-336.75c.13.01.27.03.54.06-.2.26-.34.5-.57.7-1.07.91-1.7,1.9-1.83,3.04-.21,1.75.19,3.44,1.15,5.09.08.14.08.29.13.43.12.36.25.71.36,1.07.04.13.03.27.02.4-.02.14-.1.27-.1.41.01.22-.08.37-.46.44-.12.02-.29.22-.24.26.3.3-.02.55-.11.82-.09.26-.19.51-.28.77-.07.22-.24.45-.17.65.18.59.42,1.17.7,1.74.2.42.79.76.77,1.24,0,.16,0,.31,0,.48.05.12.14.26.16.4.11.88.28,1.77.26,2.65,0,.3.18.62-.11.94-.16.17-.03.43-.07.65-.02.12-.12.23-.18.35-.11.21-.25.41-.3.63-.19.79-.42,1.59-.5,2.39-.09.86-.03,1.72-.02,2.58,0,.37.07.73.09,1.1,0,.08-.09.15-.11.23-.06.25-.11.5-.17.76-.09.37-.17.75-.27,1.12-.17.65.01.8,1.03.98.96.16,1.89.41,2.87.53,1.1.13,2.23.17,3.34.21.63.02,1.03-.29,1.36-.57.26-.22-.13-.37-.39-.48-.64-.28-1.29-.54-1.93-.82-.38-.16-.76-.33-1.13-.51-.11-.06-.26-.21-.23-.23.12-.09.3-.19.48-.21.6-.04,1.2-.04,1.8-.06.51-.02,1.03-.02,1.52-.07.31-.04.63-.14.86-.27.52-.29.35-.65-.32-.76-.14-.03-.29-.06-.44-.05-.99.03-1.83-.21-2.66-.5-.22-.08-.53-.09-.7-.19-.2-.13-.47-.36-.41-.48.21-.4.06-.76-.09-1.14-.05-.13-.04-.29.02-.42.24-.49.36-.98.37-1.49,0-.36.17-.77.48-1.07.42-.41.45-.87.7-1.3.06-.09.2-.16.27-.25.24-.34.57-.68.66-1.03.27-1.1.44-2.22.66-3.33.01-.07.12-.15.22-.2.34-.16.76-.27,1.03-.47.17-.13.14-.37.16-.56.01-.14-.04-.28-.08-.52.43.27.58.11.78-.03.81-.54.6-1.14.3-1.74-.07-.13-.24-.24-.31-.37-.05-.09,0-.19,0-.29,0-.1.05-.2.03-.3-.1-.53-.23-1.06-.32-1.59-.19-1.09-.36-2.18-.54-3.27-.04-.25-.14-.49-.19-.74-.06-.3-.07-.6-.14-.89-.08-.3-.21-.59-.31-.89-.39-1.14-1.02-2.21-2.37-3.08-.48-.31-.86-.69-1.27-1.04-.08-.07-.11-.2-.05-.27.22-.3.45-.61.72-.89.11-.11.35-.19.55-.25.29-.09.62-.13.92-.22.26-.08.34-.21.32-.41-.02-.19.16-.38.21-.58.06-.22.08-.45.42-.61.05-.02.03-.16-.02-.21-.16-.17-.35-.32-.52-.48-.17-.15-.22-.29-.13-.49.07-.15-.12-.35-.16-.52-.04-.16-.03-.33-.05-.5-.03-.2-.05-.4-.11-.59-.09-.26-.86-.62-1.28-.67-1.06-.12-2.12-.14-3.16.02-.48.07-.96.25-1.34.46-.61.33-.8.81-1.1,1.28-.34.53.03.93.26,1.37.2.38.52.73.71,1.1.09.17.02.37.02.6Z"/>
  <line class="st42" x1="830.16" y1="-303.65" x2="964.05" y2="-303.65"/>
  <rect class="st27" x="932.08" y="-309.21" width="5.67" height="5.67"/>
  <rect class="st27" x="932.08" y="-345.27" width="5.67" height="5.67"/>
  <line class="st0" x1="849.4" y1="-339.6" x2="836.09" y2="-339.6"/>
  <line class="st0" x1="842.75" y1="-335.26" x2="842.75" y2="-307.33"/>
  <path d="M842.75-334.58l1.35.82.03-.05-.88-2.2c-.17-.77-.34-1.54-.51-2.3-.17.77-.34,1.54-.51,2.3l-.88,2.2.02.05,1.36-.82Z"/>
  <polygon points="841.36 -308.38 842.75 -307.79 844.14 -308.38 842.75 -305.09 841.36 -308.38"/>
  <text class="st87" transform="translate(821.17 -318.7)">
    <tspan x="0" y="0"></tspan>
  </text>
  <text class="st87" transform="translate(825.61 -319.06)">
    <tspan x="0" y="0"></tspan>
  </text>
  <text class="st87" transform="translate(827.89 -318.7)">
    <tspan x="0" y="0"></tspan>
  </text>
  <text class="st87" transform="translate(833.52 -319.3)">
    <tspan x="0" y="0">m</tspan>
  </text>
  <text class="st87" transform="translate(888.1 -292)">
    <tspan x="0" y="0"></tspan>
  </text>
  <text class="st87" transform="translate(893.74 -292.6)">
    <tspan x="0" y="0">m</tspan>
  </text>
  <path class="st0" d="M887.22-294.52c-.5-.04-.99-.09-1.49-.14"/>
  <path class="st30" d="M883.52-294.92c-3.23-.41-6.5-1.02-9.8-1.86"/>
  <path class="st64" d="M872.66-297.06c-4.82-1.31-9.67-3.12-14.46-5.57"/>
  <path class="st0" d="M857.22-303.14c-.44-.23-.88-.47-1.32-.72"/>
  <path class="st0" d="M938.3-303.54s-.47.23-1.36.62"/>
  <path class="st26" d="M935.45-302.3c-1.65.67-3.97,1.56-6.83,2.5"/>
  <path class="st41" d="M927.85-299.55c-5.85,1.87-13.8,3.89-22.9,4.82"/>
  <path class="st0" d="M904.13-294.65c-.49.05-.99.09-1.49.13"/>
</svg>
