<?xml version='1.0' encoding='UTF-8'?>
<svg xmlns="http://www.w3.org/2000/svg" xmlns:xlink="http://www.w3.org/1999/xlink" version="1.1" viewBox="1187.5386 -417.0614 60.7028 16.8728">
  <defs>
    <style>
      .st0, .st1, .st2, .st3, .st4, .st5, .st6, .st7, .st8, .st9, .st10, .st11, .st12, .st13, .st14, .st15, .st16, .st17, .st18, .st19, .st20, .st21, .st22, .st23, .st24, .st25, .st26, .st27, .st28, .st29, .st30, .st31, .st32, .st33, .st34, .st35, .st36, .st37, .st38, .st39, .st40, .st41, .st42, .st43, .st44, .st45, .st46, .st47, .st48, .st49, .st50, .st51, .st52, .st53, .st54, .st55, .st56, .st57, .st58, .st59, .st60, .st61, .st62, .st63, .st64, .st65, .st66, .st67, .st68, .st69, .st70, .st71, .st72, .st73, .st74, .st75, .st76, .st77 {
        fill: none;
      }

      .st0, .st1, .st2, .st3, .st5, .st8, .st9, .st12, .st13, .st14, .st15, .st16, .st78, .st17, .st18, .st20, .st21, .st22, .st23, .st25, .st26, .st30, .st31, .st32, .st34, .st35, .st79, .st39, .st40, .st41, .st42, .st43, .st44, .st45, .st46, .st48, .st49, .st51, .st53, .st55, .st57, .st58, .st80, .st59, .st60, .st81, .st64, .st82, .st65, .st66, .st69, .st70, .st73, .st76, .st77 {
        stroke-miterlimit: 10;
      }

      .st0, .st1, .st2, .st5, .st7, .st8, .st9, .st11, .st13, .st14, .st15, .st16, .st17, .st18, .st19, .st20, .st21, .st22, .st23, .st24, .st25, .st26, .st27, .st29, .st30, .st31, .st32, .st34, .st38, .st39, .st40, .st41, .st45, .st46, .st47, .st48, .st49, .st50, .st52, .st53, .st54, .st55, .st58, .st60, .st61, .st63, .st64, .st65, .st66, .st68, .st69, .st70, .st71, .st73, .st75, .st76, .st77 {
        stroke-width: .5px;
      }

      .st0, .st2, .st3, .st4, .st7, .st9, .st10, .st11, .st12, .st13, .st14, .st15, .st17, .st18, .st19, .st20, .st23, .st24, .st25, .st26, .st27, .st28, .st29, .st30, .st32, .st36, .st37, .st38, .st40, .st41, .st48, .st50, .st52, .st53, .st54, .st55, .st56, .st58, .st61, .st62, .st63, .st64, .st65, .st68, .st70, .st71, .st72, .st74, .st75 {
        stroke: #000;
      }

      .st1, .st5, .st6, .st8, .st16, .st78, .st21, .st22, .st33, .st34, .st35, .st79, .st39, .st42, .st45, .st49, .st80, .st59, .st60, .st81, .st82, .st66, .st67, .st69, .st73, .st76, .st77 {
        stroke: #231815;
      }

      .st1, .st19, .st35, .st65 {
        stroke-dasharray: 3 2 3 2 3 2;
      }

      .st2 {
        stroke-dasharray: 2.93 1.96 2.93 1.96 2.93 1.96;
      }

      .st4, .st6, .st7, .st10, .st11, .st19, .st24, .st27, .st28, .st29, .st33, .st36, .st37, .st38, .st47, .st50, .st52, .st54, .st61, .st62, .st63, .st68, .st71, .st72, .st74, .st75 {
        stroke-linejoin: round;
      }

      .st4, .st10, .st12, .st28, .st33, .st79, .st37, .st42, .st43, .st44, .st51, .st62, .st82, .st72, .st74 {
        stroke-width: .75px;
      }

      .st5 {
        stroke-dasharray: 2.11 1.4 2.11 1.4 2.11 1.4;
      }

      .st7 {
        stroke-dasharray: 3.33 2.22 3.33 2.22;
      }

      .st8 {
        stroke-dasharray: 2.1 1.4 2.1 1.4;
      }

      .st9 {
        stroke-dasharray: 1 1;
      }

      .st10 {
        stroke-dasharray: 2.15 1.44 2.15 1.44;
      }

      .st11 {
        stroke-dasharray: 2.77 1.84 2.77 1.84 2.77 1.84;
      }

      .st13 {
        stroke-dasharray: 3.17 2.12 3.17 2.12 3.17 2.12;
      }

      .st14 {
        stroke-dasharray: 3.2 2.13 3.2 2.13 3.2 2.13;
      }

      .st15 {
        stroke-dasharray: 3.2 2.13 3.2 2.13;
      }

      .st16 {
        stroke-dasharray: 3.15 2.1 3.15 2.1 3.15 2.1;
      }

      .st78 {
        fill: url(#_무제_그라디언트_32);
      }

      .st17 {
        stroke-dasharray: 2.86 1.91 2.86 1.91 2.86 1.91;
      }

      .st83 {
        fill: #e1e3ce;
      }

      .st84 {
        fill: #fcf9ed;
      }

      .st85, .st82 {
        fill: #fff;
      }

      .st18 {
        stroke-dasharray: 3.34 2.23 3.34 2.23;
      }

      .st20 {
        stroke-dasharray: 3.24 2.16 3.24 2.16 3.24 2.16;
      }

      .st21 {
        stroke-dasharray: 2.97 1.98 2.97 1.98 2.97 1.98;
      }

      .st23 {
        stroke-dasharray: 2.86 1.91 2.86 1.91;
      }

      .st24 {
        stroke-dasharray: 2.86 1.91 2.86 1.91;
      }

      .st25 {
        stroke-dasharray: 3.24 2.16 3.24 2.16;
      }

      .st86 {
        fill: #f4f8e0;
      }

      .st26 {
        stroke-dasharray: 2.43 1.62 2.43 1.62;
      }

      .st87 {
        font-size: 8.99px;
      }

      .st87, .st88, .st89 {
        font-family: HyhwpEQ, HyhwpEQ;
      }

      .st28 {
        stroke-dasharray: 2.15 1.44 2.15 1.44 2.15 1.44;
      }

      .st29 {
        stroke-dasharray: 3.35 2.24 3.35 2.24 3.35 2.24;
      }

      .st30 {
        stroke-dasharray: 3.33 2.22 3.33 2.22;
      }

      .st31 {
        stroke: #e2cae0;
      }

      .st32 {
        stroke-dasharray: 3.34 2.23 3.34 2.23 3.34 2.23;
      }

      .st90 {
        fill: #e2cae0;
      }

      .st91 {
        fill: #c7dccb;
      }

      .st34 {
        stroke-dasharray: 3.04 2.03 3.04 2.03 3.04 2.03;
      }

      .st92 {
        opacity: .3;
      }

      .st92, .st93 {
        fill: #231815;
      }

      .st94 {
        fill: #afd5e4;
      }

      .st79, .st95 {
        fill: #aeb6d9;
      }

      .st37 {
        stroke-dasharray: 2.76 1.84 2.76 1.84 2.76 1.84;
      }

      .st38 {
        stroke-dasharray: 1.96 1.31 1.96 1.31;
      }

      .st39 {
        stroke-dasharray: 2.11 1.4 2.11 1.4;
      }

      .st40 {
        stroke-dasharray: 3.2 2.13 3.2 2.13;
      }

      .st41 {
        stroke-dasharray: 2.43 1.62 2.43 1.62 2.43 1.62;
      }

      .st43 {
        stroke: #036eb8;
      }

      .st44 {
        stroke: #094;
      }

      .st96 {
        fill: #c9caca;
      }

      .st45 {
        stroke-dasharray: 3.15 2.1 3.15 2.1;
      }

      .st46 {
        stroke: #aeb6d9;
      }

      .st97 {
        opacity: .75;
      }

      .st97, .st98 {
        fill: #d1c8e3;
      }

      .st47 {
        stroke: #080103;
        stroke-linecap: round;
      }

      .st99 {
        fill: #080103;
      }

      .st48 {
        stroke-dasharray: 2.93 1.96 2.93 1.96;
      }

      .st49 {
        stroke-dasharray: 3.19 2.12 3.19 2.12 3.19 2.12;
      }

      .st50 {
        stroke-dasharray: 3.09 2.06 3.09 2.06 3.09 2.06;
      }

      .st51 {
        stroke: #ea5514;
      }

      .st52 {
        stroke-dasharray: 2.86 1.91 2.86 1.91 2.86 1.91;
      }

      .st53 {
        stroke-dasharray: 3.2 2.13 3.2 2.13 3.2 2.13;
      }

      .st54 {
        stroke-dasharray: 3.33 2.22 3.33 2.22 3.33 2.22;
      }

      .st55 {
        stroke-dasharray: 3.17 2.12 3.17 2.12;
      }

      .st56, .st67 {
        stroke-linejoin: bevel;
      }

      .st57 {
        stroke: #a3af7b;
      }

      .st58 {
        stroke-dasharray: 3.49 2.33 3.49 2.33;
      }

      .st80 {
        fill: url(#_무제_그라디언트_3);
      }

      .st60 {
        stroke-dasharray: 2.97 1.98 2.97 1.98;
      }

      .st100 {
        fill: #cddee2;
      }

      .st88 {
        font-size: 9px;
      }

      .st61 {
        stroke-dasharray: 3.02 2.01 3.02 2.01 3.02 2.01;
      }

      .st62 {
        stroke-dasharray: 2.76 1.84 2.76 1.84;
      }

      .st63 {
        stroke-dasharray: 3.02 2.01 3.02 2.01;
      }

      .st81 {
        fill: url(#_무제_그라디언트_31);
      }

      .st64 {
        stroke-dasharray: 3.33 2.22 3.33 2.22 3.33 2.22;
      }

      .st66 {
        stroke-dasharray: 3.19 2.12 3.19 2.12;
      }

      .st101 {
        fill: #e6cce2;
      }

      .st89 {
        font-size: 6.11px;
      }

      .st68 {
        stroke-dasharray: 2.77 1.84 2.77 1.84;
      }

      .st69 {
        stroke-dasharray: 3.15 2.1 3.15 2.1 3.15 2.1;
      }

      .st70 {
        stroke-dasharray: 3.49 2.33 3.49 2.33 3.49 2.33;
      }

      .st71 {
        stroke-dasharray: 3.35 2.24 3.35 2.24;
      }

      .st72 {
        stroke-dasharray: 3.18 2.12 3.18 2.12;
      }

      .st73 {
        stroke-dasharray: 3.04 2.03 3.04 2.03;
      }

      .st74 {
        stroke-dasharray: 3.18 2.12 3.18 2.12 3.18 2.12;
      }

      .st75 {
        stroke-dasharray: 3.09 2.06 3.09 2.06;
      }

      .st76 {
        stroke-dasharray: 2.1 1.4 2.1 1.4 2.1 1.4;
      }

      .st77 {
        stroke-dasharray: 3.15 2.1 3.15 2.1;
      }
    </style>
    <radialGradient id="_무제_그라디언트_3" data-name="무제 그라디언트 3" cx="807.71" cy="-829.6" fx="807.71" fy="-829.6" r="9.65" gradientUnits="userSpaceOnUse">
      <stop offset=".08" stop-color="#fff"/>
      <stop offset="1" stop-color="#000"/>
    </radialGradient>
    <radialGradient id="_무제_그라디언트_31" data-name="무제 그라디언트 3" cy="-897.72" fy="-897.72" r="9.65" xlink:href="#_무제_그라디언트_3"/>
    <radialGradient id="_무제_그라디언트_32" data-name="무제 그라디언트 3" cy="-938.61" fy="-938.61" xlink:href="#_무제_그라디언트_3"/>
  </defs>
  <rect class="st94" x="1188.74" y="-415.86" width="58.3" height="14.47" rx="-193.46" ry="-193.46"/>
  <path class="st93" d="M1197.77-409.31c0,.37-.04.75-.14,1.13-.09.38-.23.72-.42,1.03s-.44.56-.75.75c-.3.2-.67.3-1.09.3s-.81-.1-1.12-.29-.55-.45-.73-.76c-.18-.31-.31-.65-.4-1.03s-.12-.76-.12-1.13c0-.39.04-.78.12-1.17s.21-.73.4-1.04c.18-.31.43-.55.73-.74.3-.19.68-.28,1.12-.28s.79.09,1.09.28c.3.19.55.43.75.74s.33.65.42,1.03c.09.38.14.77.14,1.18ZM1197.06-409.32c0-.3-.03-.6-.1-.91-.06-.31-.16-.58-.29-.83s-.31-.45-.52-.6-.47-.23-.78-.23-.58.08-.79.23-.38.35-.51.6c-.13.25-.22.52-.27.83-.05.31-.08.61-.08.91s.02.58.07.89c.05.31.14.58.27.83.13.25.3.46.51.61.21.16.48.24.8.24s.57-.08.78-.24c.21-.16.39-.36.52-.61s.23-.53.29-.83.1-.6.1-.89ZM1199.81-403.9h-.41c-.09,0-.14-.05-.14-.14v-8.94c0-.09.05-.14.14-.14h.41c.09,0,.14.05.14.14v3.64h1.38s.07.01.1.04c.03.02.04.05.04.09v.34s-.02.06-.04.09c-.03.03-.06.04-.1.04h-1.38v4.7c0,.09-.05.14-.14.14Z"/>
  <path class="st93" d="M1203.17-406.25c-.3-.01-.5-.07-.6-.18-.1-.11-.16-.31-.16-.59v-1.91c0-.28.06-.47.18-.56s.32-.15.62-.15h1.92c.09,0,.15-.01.18-.04.03-.03.04-.09.04-.19v-1.6c0-.1-.01-.16-.04-.19-.02-.03-.08-.04-.17-.04h-2.55s-.06-.01-.09-.03c-.03-.02-.05-.05-.05-.08v-.38s.02-.06.05-.08c.03-.02.06-.03.09-.03h2.66c.16,0,.29.01.39.04.1.02.18.06.24.11.06.05.1.13.12.23s.04.21.04.35v1.82c0,.28-.06.47-.18.57s-.32.14-.62.14h-1.93c-.09,0-.15.01-.18.04-.02.03-.03.09-.03.19v1.74c0,.15.07.23.22.23.53.01,1.08-.01,1.65-.08.57-.06,1.15-.16,1.73-.29.09-.02.15.01.17.1l.06.33c.01.09-.03.14-.13.17-.57.13-1.17.23-1.77.29-.61.06-1.23.08-1.85.06ZM1208.1-409.34h1.27v-3.64c0-.09.05-.14.14-.14h.38c.09,0,.14.05.14.14v8.94c0,.09-.05.14-.14.14h-.38c-.09,0-.14-.05-.14-.14v-4.7h-1.27v4.32c0,.09-.05.14-.14.14h-.38c-.09,0-.14-.05-.14-.14v-8.39c0-.09.05-.14.14-.14h.38c.09,0,.14.05.14.14v3.47Z"/>
  <path class="st93" d="M1215.38-406.08v-1.74h-2c-.31,0-.52-.06-.62-.17s-.15-.31-.15-.6v-1.25c0-.29.06-.48.18-.57.12-.09.32-.14.62-.14h4.51c.09,0,.15-.01.18-.04.02-.03.03-.09.03-.19v-1.04c0-.1-.01-.16-.03-.19-.02-.03-.08-.04-.18-.04h-5.17s-.06,0-.09-.03c-.03-.02-.05-.05-.05-.08v-.38s.02-.06.05-.08c.03-.02.06-.03.09-.03h5.28c.16,0,.29.01.39.04s.18.06.24.11c.06.05.1.13.12.23.02.1.03.22.03.35v1.25c0,.29-.06.48-.17.57s-.33.14-.62.14h-4.51c-.09,0-.15.01-.18.04-.02.03-.04.09-.04.19v1.08c0,.09.01.16.04.19.03.03.09.04.18.04h5.37s.06.01.09.03c.03.02.05.05.05.08v.37s-.02.06-.05.08c-.03.02-.06.04-.08.04h-2.84v1.74h3.93s.07.01.1.03c.03.02.05.06.05.1v.34s-.02.06-.05.09c-.03.03-.07.04-.1.04h-8.5s-.08-.01-.1-.04c-.03-.03-.05-.06-.05-.09v-.34s.02-.07.05-.1c.03-.02.06-.03.1-.03h3.88Z"/>
  <path class="st93" d="M1228.29-409.9v.88h3.91s.07.01.1.04c.03.02.05.06.05.1v.34s-.02.06-.05.09c-.03.03-.07.04-.1.04h-8.5s-.08-.01-.1-.04c-.03-.03-.05-.06-.05-.09v-.34s.02-.07.05-.1c.03-.02.06-.04.1-.04h3.9v-.88h-1.85c-.16,0-.29,0-.38-.03-.1-.02-.17-.06-.23-.12-.05-.06-.09-.13-.11-.22-.02-.09-.03-.21-.03-.35v-2.43s.01-.06.04-.08c.03-.02.06-.03.09-.03h.43s.06.01.08.04c.02.03.04.05.04.08v.93h4.54v-.92s.01-.06.03-.09c.02-.03.05-.04.08-.04h.43s.06.01.09.03c.03.02.04.05.04.08v2.5c0,.25-.05.42-.16.51-.11.09-.31.13-.6.13h-1.85ZM1231.15-404.08s-.02.06-.04.08c-.03.02-.06.03-.08.03h-5.32c-.31,0-.52-.06-.62-.17s-.15-.31-.15-.6v-.68c0-.28.06-.47.18-.56.12-.1.32-.15.62-.15h4.3c.09,0,.15-.01.18-.04.03-.03.04-.09.04-.19v-.52c0-.1-.01-.16-.03-.19-.02-.03-.08-.04-.18-.04h-4.99s-.06-.01-.1-.03c-.03-.02-.04-.05-.04-.08v-.35s.02-.06.04-.08c.03-.02.06-.03.1-.03h5.09c.16,0,.29.01.39.04s.18.06.24.11c.06.05.1.13.12.23s.04.22.04.35v.68c0,.28-.06.47-.17.56-.12.1-.33.15-.62.15h-4.31c-.09,0-.15.01-.18.04-.02.03-.03.09-.03.19v.55c0,.09.01.16.04.19.03.03.09.04.18.04h5.17s.07.01.1.03.04.05.04.08v.35ZM1225.68-411.52v.79c0,.1.02.17.05.2.03.03.1.04.19.04h4.06c.09,0,.16-.02.19-.04.03-.03.05-.1.05-.2v-.79h-4.54Z"/>
  <path class="st93" d="M1240.48-409.32s-.02.06-.04.08c-.03.02-.06.04-.08.04h-2.69v1h3.94s.07.01.1.03c.03.02.05.06.05.1v.34s-.02.06-.05.09c-.03.03-.07.04-.1.04h-8.5s-.08-.01-.1-.04c-.03-.03-.05-.06-.05-.09v-.34s.02-.07.05-.1c.03-.02.06-.03.1-.03h3.87v-1h-1.83c-.31,0-.52-.06-.62-.18-.1-.12-.15-.31-.15-.59v-.7c0-.28.06-.47.17-.56s.33-.15.62-.15h4.24c.09,0,.15-.01.17-.04.02-.02.04-.09.04-.19v-.55c0-.1-.01-.16-.04-.19-.02-.03-.08-.04-.17-.04h-4.9s-.06-.01-.1-.03c-.03-.02-.04-.05-.04-.08v-.36s.02-.06.04-.08c.03-.02.06-.03.1-.03h5.01c.16,0,.29.01.39.04s.18.06.24.11c.06.05.1.13.12.23s.04.21.04.35v.73c0,.28-.06.47-.17.56-.12.1-.33.15-.62.15h-4.25c-.09,0-.15.01-.18.04s-.03.09-.03.19v.57c0,.09.01.16.04.19.03.03.09.04.18.04h5.06s.06.01.1.03c.03.02.04.05.04.08v.34ZM1234.18-406.72s.07-.03.1-.03h5.31c.31,0,.52.06.62.18.1.12.15.31.15.58v2.05c0,.09-.05.14-.14.14h-.41c-.09,0-.14-.05-.14-.14v-2c0-.09-.01-.15-.04-.17-.03-.02-.09-.04-.19-.04h-5.15s-.07-.01-.1-.03c-.03-.02-.05-.05-.05-.09v-.36s.02-.07.05-.09Z"/>
</svg>
