<?xml version='1.0' encoding='UTF-8'?>
<svg xmlns="http://www.w3.org/2000/svg" xmlns:xlink="http://www.w3.org/1999/xlink" version="1.1" viewBox="1253.0157 -212.6035 29.3379 155.947">
  <defs>
    <style>
      .st0, .st1, .st2, .st3, .st4, .st5, .st6, .st7, .st8, .st9, .st10, .st11, .st12, .st13, .st14, .st15, .st16, .st17, .st18, .st19, .st20, .st21, .st22, .st23, .st24, .st25, .st26, .st27, .st28, .st29, .st30, .st31, .st32, .st33, .st34, .st35, .st36, .st37, .st38, .st39, .st40, .st41, .st42, .st43, .st44, .st45, .st46, .st47, .st48, .st49, .st50, .st51, .st52, .st53, .st54, .st55, .st56, .st57, .st58, .st59, .st60, .st61, .st62, .st63, .st64, .st65, .st66, .st67, .st68, .st69, .st70, .st71, .st72, .st73, .st74, .st75, .st76, .st77 {
        fill: none;
      }

      .st0, .st1, .st2, .st3, .st5, .st8, .st9, .st12, .st13, .st14, .st15, .st16, .st78, .st17, .st18, .st20, .st21, .st22, .st23, .st25, .st26, .st30, .st31, .st32, .st34, .st35, .st79, .st39, .st40, .st41, .st42, .st43, .st44, .st45, .st46, .st48, .st49, .st51, .st53, .st55, .st57, .st58, .st80, .st59, .st60, .st81, .st64, .st82, .st65, .st66, .st69, .st70, .st73, .st76, .st77 {
        stroke-miterlimit: 10;
      }

      .st0, .st1, .st2, .st5, .st7, .st8, .st9, .st11, .st13, .st14, .st15, .st16, .st17, .st18, .st19, .st20, .st21, .st22, .st23, .st24, .st25, .st26, .st27, .st29, .st30, .st31, .st32, .st34, .st38, .st39, .st40, .st41, .st45, .st46, .st47, .st48, .st49, .st50, .st52, .st53, .st54, .st55, .st58, .st60, .st61, .st63, .st64, .st65, .st66, .st68, .st69, .st70, .st71, .st73, .st75, .st76, .st77 {
        stroke-width: .5px;
      }

      .st0, .st2, .st3, .st4, .st7, .st9, .st10, .st11, .st12, .st13, .st14, .st15, .st17, .st18, .st19, .st20, .st23, .st24, .st25, .st26, .st27, .st28, .st29, .st30, .st32, .st36, .st37, .st38, .st40, .st41, .st48, .st50, .st52, .st53, .st54, .st55, .st56, .st58, .st61, .st62, .st63, .st64, .st65, .st68, .st70, .st71, .st72, .st74, .st75 {
        stroke: #000;
      }

      .st1, .st5, .st6, .st8, .st16, .st78, .st21, .st22, .st33, .st34, .st35, .st79, .st39, .st42, .st45, .st49, .st80, .st59, .st60, .st81, .st82, .st66, .st67, .st69, .st73, .st76, .st77 {
        stroke: #231815;
      }

      .st1, .st19, .st35, .st65 {
        stroke-dasharray: 3 2 3 2 3 2;
      }

      .st2 {
        stroke-dasharray: 2.93 1.96 2.93 1.96 2.93 1.96;
      }

      .st4, .st6, .st7, .st10, .st11, .st19, .st24, .st27, .st28, .st29, .st33, .st36, .st37, .st38, .st47, .st50, .st52, .st54, .st61, .st62, .st63, .st68, .st71, .st72, .st74, .st75 {
        stroke-linejoin: round;
      }

      .st4, .st10, .st12, .st28, .st33, .st79, .st37, .st42, .st43, .st44, .st51, .st62, .st82, .st72, .st74 {
        stroke-width: .75px;
      }

      .st5 {
        stroke-dasharray: 2.11 1.4 2.11 1.4 2.11 1.4;
      }

      .st7 {
        stroke-dasharray: 3.33 2.22 3.33 2.22;
      }

      .st8 {
        stroke-dasharray: 2.1 1.4 2.1 1.4;
      }

      .st9 {
        stroke-dasharray: 1 1;
      }

      .st10 {
        stroke-dasharray: 2.15 1.44 2.15 1.44;
      }

      .st11 {
        stroke-dasharray: 2.77 1.84 2.77 1.84 2.77 1.84;
      }

      .st13 {
        stroke-dasharray: 3.17 2.12 3.17 2.12 3.17 2.12;
      }

      .st14 {
        stroke-dasharray: 3.2 2.13 3.2 2.13 3.2 2.13;
      }

      .st15 {
        stroke-dasharray: 3.2 2.13 3.2 2.13;
      }

      .st16 {
        stroke-dasharray: 3.15 2.1 3.15 2.1 3.15 2.1;
      }

      .st78 {
        fill: url(#_무제_그라디언트_32);
      }

      .st17 {
        stroke-dasharray: 2.86 1.91 2.86 1.91 2.86 1.91;
      }

      .st83 {
        fill: #e1e3ce;
      }

      .st84 {
        fill: #fcf9ed;
      }

      .st85, .st82 {
        fill: #fff;
      }

      .st18 {
        stroke-dasharray: 3.34 2.23 3.34 2.23;
      }

      .st20 {
        stroke-dasharray: 3.24 2.16 3.24 2.16 3.24 2.16;
      }

      .st21 {
        stroke-dasharray: 2.97 1.98 2.97 1.98 2.97 1.98;
      }

      .st23 {
        stroke-dasharray: 2.86 1.91 2.86 1.91;
      }

      .st24 {
        stroke-dasharray: 2.86 1.91 2.86 1.91;
      }

      .st25 {
        stroke-dasharray: 3.24 2.16 3.24 2.16;
      }

      .st86 {
        fill: #f4f8e0;
      }

      .st26 {
        stroke-dasharray: 2.43 1.62 2.43 1.62;
      }

      .st87 {
        font-size: 8.99px;
      }

      .st87, .st88, .st89 {
        font-family: HyhwpEQ, HyhwpEQ;
      }

      .st28 {
        stroke-dasharray: 2.15 1.44 2.15 1.44 2.15 1.44;
      }

      .st29 {
        stroke-dasharray: 3.35 2.24 3.35 2.24 3.35 2.24;
      }

      .st30 {
        stroke-dasharray: 3.33 2.22 3.33 2.22;
      }

      .st31 {
        stroke: #e2cae0;
      }

      .st32 {
        stroke-dasharray: 3.34 2.23 3.34 2.23 3.34 2.23;
      }

      .st90 {
        fill: #e2cae0;
      }

      .st91 {
        fill: #c7dccb;
      }

      .st34 {
        stroke-dasharray: 3.04 2.03 3.04 2.03 3.04 2.03;
      }

      .st92 {
        opacity: .3;
      }

      .st92, .st93 {
        fill: #231815;
      }

      .st94 {
        fill: #afd5e4;
      }

      .st79, .st95 {
        fill: #aeb6d9;
      }

      .st37 {
        stroke-dasharray: 2.76 1.84 2.76 1.84 2.76 1.84;
      }

      .st38 {
        stroke-dasharray: 1.96 1.31 1.96 1.31;
      }

      .st39 {
        stroke-dasharray: 2.11 1.4 2.11 1.4;
      }

      .st40 {
        stroke-dasharray: 3.2 2.13 3.2 2.13;
      }

      .st41 {
        stroke-dasharray: 2.43 1.62 2.43 1.62 2.43 1.62;
      }

      .st43 {
        stroke: #036eb8;
      }

      .st44 {
        stroke: #094;
      }

      .st96 {
        fill: #c9caca;
      }

      .st45 {
        stroke-dasharray: 3.15 2.1 3.15 2.1;
      }

      .st46 {
        stroke: #aeb6d9;
      }

      .st97 {
        opacity: .75;
      }

      .st97, .st98 {
        fill: #d1c8e3;
      }

      .st47 {
        stroke: #080103;
        stroke-linecap: round;
      }

      .st99 {
        fill: #080103;
      }

      .st48 {
        stroke-dasharray: 2.93 1.96 2.93 1.96;
      }

      .st49 {
        stroke-dasharray: 3.19 2.12 3.19 2.12 3.19 2.12;
      }

      .st50 {
        stroke-dasharray: 3.09 2.06 3.09 2.06 3.09 2.06;
      }

      .st51 {
        stroke: #ea5514;
      }

      .st52 {
        stroke-dasharray: 2.86 1.91 2.86 1.91 2.86 1.91;
      }

      .st53 {
        stroke-dasharray: 3.2 2.13 3.2 2.13 3.2 2.13;
      }

      .st54 {
        stroke-dasharray: 3.33 2.22 3.33 2.22 3.33 2.22;
      }

      .st55 {
        stroke-dasharray: 3.17 2.12 3.17 2.12;
      }

      .st56, .st67 {
        stroke-linejoin: bevel;
      }

      .st57 {
        stroke: #a3af7b;
      }

      .st58 {
        stroke-dasharray: 3.49 2.33 3.49 2.33;
      }

      .st80 {
        fill: url(#_무제_그라디언트_3);
      }

      .st60 {
        stroke-dasharray: 2.97 1.98 2.97 1.98;
      }

      .st100 {
        fill: #cddee2;
      }

      .st88 {
        font-size: 9px;
      }

      .st61 {
        stroke-dasharray: 3.02 2.01 3.02 2.01 3.02 2.01;
      }

      .st62 {
        stroke-dasharray: 2.76 1.84 2.76 1.84;
      }

      .st63 {
        stroke-dasharray: 3.02 2.01 3.02 2.01;
      }

      .st81 {
        fill: url(#_무제_그라디언트_31);
      }

      .st64 {
        stroke-dasharray: 3.33 2.22 3.33 2.22 3.33 2.22;
      }

      .st66 {
        stroke-dasharray: 3.19 2.12 3.19 2.12;
      }

      .st101 {
        fill: #e6cce2;
      }

      .st89 {
        font-size: 6.11px;
      }

      .st68 {
        stroke-dasharray: 2.77 1.84 2.77 1.84;
      }

      .st69 {
        stroke-dasharray: 3.15 2.1 3.15 2.1 3.15 2.1;
      }

      .st70 {
        stroke-dasharray: 3.49 2.33 3.49 2.33 3.49 2.33;
      }

      .st71 {
        stroke-dasharray: 3.35 2.24 3.35 2.24;
      }

      .st72 {
        stroke-dasharray: 3.18 2.12 3.18 2.12;
      }

      .st73 {
        stroke-dasharray: 3.04 2.03 3.04 2.03;
      }

      .st74 {
        stroke-dasharray: 3.18 2.12 3.18 2.12 3.18 2.12;
      }

      .st75 {
        stroke-dasharray: 3.09 2.06 3.09 2.06;
      }

      .st76 {
        stroke-dasharray: 2.1 1.4 2.1 1.4 2.1 1.4;
      }

      .st77 {
        stroke-dasharray: 3.15 2.1 3.15 2.1;
      }
    </style>
    <radialGradient id="_무제_그라디언트_3" data-name="무제 그라디언트 3" cx="807.71" cy="-829.6" fx="807.71" fy="-829.6" r="9.65" gradientUnits="userSpaceOnUse">
      <stop offset=".08" stop-color="#fff"/>
      <stop offset="1" stop-color="#000"/>
    </radialGradient>
    <radialGradient id="_무제_그라디언트_31" data-name="무제 그라디언트 3" cy="-897.72" fy="-897.72" r="9.65" xlink:href="#_무제_그라디언트_3"/>
    <radialGradient id="_무제_그라디언트_32" data-name="무제 그라디언트 3" cy="-938.61" fy="-938.61" xlink:href="#_무제_그라디언트_3"/>
  </defs>
  <path d="M1262.1-136.93c-.13.14-.28.2-.46.2-.12,0-.22-.04-.29-.11s-.1-.16-.09-.27c0-.18.08-.32.2-.43.11-.09.26-.15.44-.17-.06-.06-.14-.11-.23-.15-.09-.04-.19-.05-.29-.05-.17,0-.31.06-.42.18-.09.09-.15.23-.21.4-.11.34-.23.7-.33,1.1-.09.34-.19.71-.29,1.11h.95c.08-.01.13,0,.16,0,.06.02.1.06.1.12-.02.1-.06.17-.13.19-.04.02-.12.03-.24.03h-.95l-.32,1.21c-.18.69-.32,1.21-.42,1.56-.16.57-.31,1.09-.46,1.54-.22.6-.45,1.09-.68,1.45-.39.6-.79.89-1.22.89-.25,0-.46-.07-.62-.2-.18-.14-.26-.33-.25-.56.02-.19.09-.34.19-.46.13-.13.29-.19.47-.19.11,0,.2.03.27.1.06.07.09.17.09.29-.01.17-.09.31-.22.42-.12.1-.26.16-.43.17.06.06.14.11.23.14.08.04.18.05.29.05.25,0,.48-.23.69-.69.11-.25.24-.64.38-1.16l.06-.2,1.21-4.35h-.77c-.08,0-.14,0-.17-.02-.06-.02-.08-.06-.08-.11,0-.1.04-.17.1-.19.04-.02.12-.03.23-.03h.03s.74.01.74.01c.07-.31.15-.6.24-.87.09-.3.19-.59.29-.86.07-.22.17-.41.29-.59.14-.19.29-.35.47-.46.11-.08.23-.14.36-.17.14-.04.27-.06.39-.06.24,0,.45.06.62.19.19.14.28.33.27.57-.01.17-.08.32-.2.45Z"/>
  <path d="M1265.49-138.4c-.23.41-.41.84-.54,1.3-.14.43-.23.89-.29,1.38-.06.45-.09.93-.09,1.43s.02.93.06,1.36c.06.47.15.91.27,1.32.14.48.32.92.54,1.32.24.43.52.81.85,1.15.13.13.18.23.15.31-.03.07-.13.04-.3-.1-.28-.22-.56-.51-.85-.89-.26-.34-.47-.69-.65-1.04-.25-.52-.44-1.09-.56-1.69-.11-.56-.16-1.14-.16-1.74s.05-1.18.16-1.72c.11-.58.29-1.13.53-1.64.16-.36.37-.72.65-1.09.3-.41.59-.72.87-.93.16-.11.27-.15.32-.11s.02.13-.12.26c-.33.33-.61.7-.85,1.11Z"/>
  <path d="M1272.12-131.89c-.11.45-.22.78-.32.98-.19.37-.45.55-.78.55-.26,0-.48-.08-.67-.24-.19-.15-.3-.35-.33-.59-.22.25-.44.44-.65.57-.27.17-.53.26-.8.26-.22,0-.41-.04-.59-.13-.18-.09-.33-.21-.45-.37-.15-.17-.26-.37-.32-.6-.06-.21-.1-.43-.1-.67,0-.39.08-.79.23-1.17.14-.38.35-.73.61-1.04.24-.29.5-.53.8-.7.34-.2.68-.3,1.02-.3.23,0,.43.06.61.18.15.11.28.28.4.51.01-.13.06-.24.14-.33.09-.09.19-.14.32-.14.11,0,.2.04.25.11.06.06.08.16.06.28l-.37,1.4c-.14.53-.23.92-.29,1.16-.1.4-.17.7-.19.9-.02.18-.01.32.02.43.04.17.14.25.3.25.22,0,.41-.18.57-.53.09-.21.18-.49.27-.84v-.02c.02-.09.04-.15.06-.16.02-.02.08-.02.17,0,.04,0,.05.03.04.09,0,.03,0,.07-.01.12h0s-.02.05-.02.05ZM1270.35-134.83c-.16-.19-.35-.28-.58-.28-.26,0-.51.11-.77.34-.21.19-.38.43-.51.71-.11.22-.22.53-.33.94-.09.3-.16.61-.22.94-.04.25-.06.46-.06.61,0,.24.06.44.15.6.06.12.13.2.22.26.09.07.21.11.34.11.24,0,.47-.09.7-.27.15-.11.33-.28.55-.52.06-.07.1-.14.13-.19.04-.06.07-.14.1-.22l.55-2.16s.01-.08.02-.1v-.09c-.06-.29-.15-.52-.29-.69Z"/>
  <path d="M1275.67-132.53c-.12.61-.31,1.17-.56,1.69-.18.35-.4.7-.65,1.04-.29.39-.57.69-.84.89-.18.14-.28.17-.31.09-.03-.07.02-.18.15-.31.33-.33.61-.71.85-1.14.22-.4.39-.84.53-1.3.12-.43.22-.88.28-1.36.06-.44.09-.89.09-1.35,0-.5-.03-.97-.1-1.43-.06-.49-.15-.95-.28-1.38-.14-.46-.33-.89-.56-1.29-.24-.42-.52-.8-.84-1.12-.14-.14-.18-.23-.13-.27s.16,0,.32.11c.27.21.56.52.86.93.27.37.49.74.66,1.09.24.52.41,1.07.53,1.65.11.55.17,1.12.17,1.72s-.06,1.19-.17,1.74Z"/>
  <line class="st47" x1="1279.32" y1="-59.69" x2="1279.32" y2="-209.57"/>
</svg>
