<?xml version='1.0' encoding='UTF-8'?>
<svg xmlns="http://www.w3.org/2000/svg" xmlns:xlink="http://www.w3.org/1999/xlink" version="1.1" viewBox="-171.2692 -203.0543 39.8183 13.2535">
  <defs>
    <style>
      .st0, .st1, .st2, .st3, .st4, .st5, .st6, .st7, .st8, .st9, .st10, .st11, .st12, .st13, .st14, .st15, .st16, .st17, .st18, .st19, .st20, .st21, .st22, .st23, .st24, .st25, .st26, .st27, .st28, .st29, .st30, .st31, .st32, .st33, .st34, .st35, .st36, .st37, .st38, .st39, .st40, .st41, .st42, .st43, .st44, .st45, .st46, .st47, .st48, .st49, .st50, .st51, .st52, .st53, .st54, .st55, .st56, .st57, .st58, .st59, .st60, .st61, .st62, .st63, .st64, .st65, .st66, .st67, .st68, .st69, .st70, .st71, .st72, .st73, .st74, .st75, .st76, .st77 {
        fill: none;
      }

      .st0, .st1, .st2, .st3, .st5, .st8, .st9, .st12, .st13, .st14, .st15, .st16, .st78, .st17, .st18, .st20, .st21, .st22, .st23, .st25, .st26, .st30, .st31, .st32, .st34, .st35, .st79, .st39, .st40, .st41, .st42, .st43, .st44, .st45, .st46, .st48, .st49, .st51, .st53, .st55, .st57, .st58, .st80, .st59, .st60, .st81, .st64, .st82, .st65, .st66, .st69, .st70, .st73, .st76, .st77 {
        stroke-miterlimit: 10;
      }

      .st0, .st1, .st2, .st5, .st7, .st8, .st9, .st11, .st13, .st14, .st15, .st16, .st17, .st18, .st19, .st20, .st21, .st22, .st23, .st24, .st25, .st26, .st27, .st29, .st30, .st31, .st32, .st34, .st38, .st39, .st40, .st41, .st45, .st46, .st47, .st48, .st49, .st50, .st52, .st53, .st54, .st55, .st58, .st60, .st61, .st63, .st64, .st65, .st66, .st68, .st69, .st70, .st71, .st73, .st75, .st76, .st77 {
        stroke-width: .5px;
      }

      .st0, .st2, .st3, .st4, .st7, .st9, .st10, .st11, .st12, .st13, .st14, .st15, .st17, .st18, .st19, .st20, .st23, .st24, .st25, .st26, .st27, .st28, .st29, .st30, .st32, .st36, .st37, .st38, .st40, .st41, .st48, .st50, .st52, .st53, .st54, .st55, .st56, .st58, .st61, .st62, .st63, .st64, .st65, .st68, .st70, .st71, .st72, .st74, .st75 {
        stroke: #000;
      }

      .st1, .st5, .st6, .st8, .st16, .st78, .st21, .st22, .st33, .st34, .st35, .st79, .st39, .st42, .st45, .st49, .st80, .st59, .st60, .st81, .st82, .st66, .st67, .st69, .st73, .st76, .st77 {
        stroke: #231815;
      }

      .st1, .st19, .st35, .st65 {
        stroke-dasharray: 3 2 3 2 3 2;
      }

      .st2 {
        stroke-dasharray: 2.93 1.96 2.93 1.96 2.93 1.96;
      }

      .st4, .st6, .st7, .st10, .st11, .st19, .st24, .st27, .st28, .st29, .st33, .st36, .st37, .st38, .st47, .st50, .st52, .st54, .st61, .st62, .st63, .st68, .st71, .st72, .st74, .st75 {
        stroke-linejoin: round;
      }

      .st4, .st10, .st12, .st28, .st33, .st79, .st37, .st42, .st43, .st44, .st51, .st62, .st82, .st72, .st74 {
        stroke-width: .75px;
      }

      .st5 {
        stroke-dasharray: 2.11 1.4 2.11 1.4 2.11 1.4;
      }

      .st7 {
        stroke-dasharray: 3.33 2.22 3.33 2.22;
      }

      .st8 {
        stroke-dasharray: 2.1 1.4 2.1 1.4;
      }

      .st9 {
        stroke-dasharray: 1 1;
      }

      .st10 {
        stroke-dasharray: 2.15 1.44 2.15 1.44;
      }

      .st11 {
        stroke-dasharray: 2.77 1.84 2.77 1.84 2.77 1.84;
      }

      .st13 {
        stroke-dasharray: 3.17 2.12 3.17 2.12 3.17 2.12;
      }

      .st14 {
        stroke-dasharray: 3.2 2.13 3.2 2.13 3.2 2.13;
      }

      .st15 {
        stroke-dasharray: 3.2 2.13 3.2 2.13;
      }

      .st16 {
        stroke-dasharray: 3.15 2.1 3.15 2.1 3.15 2.1;
      }

      .st78 {
        fill: url(#_무제_그라디언트_32);
      }

      .st17 {
        stroke-dasharray: 2.86 1.91 2.86 1.91 2.86 1.91;
      }

      .st83 {
        fill: #e1e3ce;
      }

      .st84 {
        fill: #fcf9ed;
      }

      .st85, .st82 {
        fill: #fff;
      }

      .st18 {
        stroke-dasharray: 3.34 2.23 3.34 2.23;
      }

      .st20 {
        stroke-dasharray: 3.24 2.16 3.24 2.16 3.24 2.16;
      }

      .st21 {
        stroke-dasharray: 2.97 1.98 2.97 1.98 2.97 1.98;
      }

      .st23 {
        stroke-dasharray: 2.86 1.91 2.86 1.91;
      }

      .st24 {
        stroke-dasharray: 2.86 1.91 2.86 1.91;
      }

      .st25 {
        stroke-dasharray: 3.24 2.16 3.24 2.16;
      }

      .st86 {
        fill: #f4f8e0;
      }

      .st26 {
        stroke-dasharray: 2.43 1.62 2.43 1.62;
      }

      .st87 {
        font-size: 8.99px;
      }

      .st87, .st88, .st89 {
        font-family: HyhwpEQ, HyhwpEQ;
      }

      .st28 {
        stroke-dasharray: 2.15 1.44 2.15 1.44 2.15 1.44;
      }

      .st29 {
        stroke-dasharray: 3.35 2.24 3.35 2.24 3.35 2.24;
      }

      .st30 {
        stroke-dasharray: 3.33 2.22 3.33 2.22;
      }

      .st31 {
        stroke: #e2cae0;
      }

      .st32 {
        stroke-dasharray: 3.34 2.23 3.34 2.23 3.34 2.23;
      }

      .st90 {
        fill: #e2cae0;
      }

      .st91 {
        fill: #c7dccb;
      }

      .st34 {
        stroke-dasharray: 3.04 2.03 3.04 2.03 3.04 2.03;
      }

      .st92 {
        opacity: .3;
      }

      .st92, .st93 {
        fill: #231815;
      }

      .st94 {
        fill: #afd5e4;
      }

      .st79, .st95 {
        fill: #aeb6d9;
      }

      .st37 {
        stroke-dasharray: 2.76 1.84 2.76 1.84 2.76 1.84;
      }

      .st38 {
        stroke-dasharray: 1.96 1.31 1.96 1.31;
      }

      .st39 {
        stroke-dasharray: 2.11 1.4 2.11 1.4;
      }

      .st40 {
        stroke-dasharray: 3.2 2.13 3.2 2.13;
      }

      .st41 {
        stroke-dasharray: 2.43 1.62 2.43 1.62 2.43 1.62;
      }

      .st43 {
        stroke: #036eb8;
      }

      .st44 {
        stroke: #094;
      }

      .st96 {
        fill: #c9caca;
      }

      .st45 {
        stroke-dasharray: 3.15 2.1 3.15 2.1;
      }

      .st46 {
        stroke: #aeb6d9;
      }

      .st97 {
        opacity: .75;
      }

      .st97, .st98 {
        fill: #d1c8e3;
      }

      .st47 {
        stroke: #080103;
        stroke-linecap: round;
      }

      .st99 {
        fill: #080103;
      }

      .st48 {
        stroke-dasharray: 2.93 1.96 2.93 1.96;
      }

      .st49 {
        stroke-dasharray: 3.19 2.12 3.19 2.12 3.19 2.12;
      }

      .st50 {
        stroke-dasharray: 3.09 2.06 3.09 2.06 3.09 2.06;
      }

      .st51 {
        stroke: #ea5514;
      }

      .st52 {
        stroke-dasharray: 2.86 1.91 2.86 1.91 2.86 1.91;
      }

      .st53 {
        stroke-dasharray: 3.2 2.13 3.2 2.13 3.2 2.13;
      }

      .st54 {
        stroke-dasharray: 3.33 2.22 3.33 2.22 3.33 2.22;
      }

      .st55 {
        stroke-dasharray: 3.17 2.12 3.17 2.12;
      }

      .st56, .st67 {
        stroke-linejoin: bevel;
      }

      .st57 {
        stroke: #a3af7b;
      }

      .st58 {
        stroke-dasharray: 3.49 2.33 3.49 2.33;
      }

      .st80 {
        fill: url(#_무제_그라디언트_3);
      }

      .st60 {
        stroke-dasharray: 2.97 1.98 2.97 1.98;
      }

      .st100 {
        fill: #cddee2;
      }

      .st88 {
        font-size: 9px;
      }

      .st61 {
        stroke-dasharray: 3.02 2.01 3.02 2.01 3.02 2.01;
      }

      .st62 {
        stroke-dasharray: 2.76 1.84 2.76 1.84;
      }

      .st63 {
        stroke-dasharray: 3.02 2.01 3.02 2.01;
      }

      .st81 {
        fill: url(#_무제_그라디언트_31);
      }

      .st64 {
        stroke-dasharray: 3.33 2.22 3.33 2.22 3.33 2.22;
      }

      .st66 {
        stroke-dasharray: 3.19 2.12 3.19 2.12;
      }

      .st101 {
        fill: #e6cce2;
      }

      .st89 {
        font-size: 6.11px;
      }

      .st68 {
        stroke-dasharray: 2.77 1.84 2.77 1.84;
      }

      .st69 {
        stroke-dasharray: 3.15 2.1 3.15 2.1 3.15 2.1;
      }

      .st70 {
        stroke-dasharray: 3.49 2.33 3.49 2.33 3.49 2.33;
      }

      .st71 {
        stroke-dasharray: 3.35 2.24 3.35 2.24;
      }

      .st72 {
        stroke-dasharray: 3.18 2.12 3.18 2.12;
      }

      .st73 {
        stroke-dasharray: 3.04 2.03 3.04 2.03;
      }

      .st74 {
        stroke-dasharray: 3.18 2.12 3.18 2.12 3.18 2.12;
      }

      .st75 {
        stroke-dasharray: 3.09 2.06 3.09 2.06;
      }

      .st76 {
        stroke-dasharray: 2.1 1.4 2.1 1.4 2.1 1.4;
      }

      .st77 {
        stroke-dasharray: 3.15 2.1 3.15 2.1;
      }
    </style>
    <radialGradient id="_무제_그라디언트_3" data-name="무제 그라디언트 3" cx="807.71" cy="-829.6" fx="807.71" fy="-829.6" r="9.65" gradientUnits="userSpaceOnUse">
      <stop offset=".08" stop-color="#fff"/>
      <stop offset="1" stop-color="#000"/>
    </radialGradient>
    <radialGradient id="_무제_그라디언트_31" data-name="무제 그라디언트 3" cy="-897.72" fy="-897.72" r="9.65" xlink:href="#_무제_그라디언트_3"/>
    <radialGradient id="_무제_그라디언트_32" data-name="무제 그라디언트 3" cy="-938.61" fy="-938.61" xlink:href="#_무제_그라디언트_3"/>
  </defs>
  <path d="M-166.05-194.71l-.44,1.78c-.08.29-.2.58-.38.86-.17.29-.37.53-.59.72-.24.2-.49.36-.75.47-.29.13-.57.19-.85.19-.17,0-.33-.03-.47-.08-.14-.04-.27-.11-.37-.19-.12-.09-.2-.2-.26-.31-.05-.12-.08-.24-.08-.38,0-.2.05-.37.16-.51.11-.14.27-.22.45-.22.12,0,.22.03.29.1.08.06.12.16.12.29,0,.19-.08.34-.23.45-.13.1-.28.14-.46.13.06.15.17.27.33.36.15.08.32.12.51.12.24,0,.46-.07.67-.2.19-.12.37-.28.54-.5.18-.25.33-.52.44-.82.08-.19.17-.49.28-.88-.16.15-.33.27-.52.36-.19.09-.39.14-.59.14-.43,0-.76-.12-1-.36-.24-.23-.36-.55-.36-.96,0-.28.06-.63.18-1.05.07-.24.2-.6.38-1.06l.09-.22c.1-.28.16-.51.17-.68.03-.29-.06-.44-.27-.44-.28,0-.52.16-.73.47-.16.24-.28.54-.38.89v.02c-.02.06-.04.1-.06.12-.02.04-.06.05-.11.05-.08,0-.12-.03-.13-.08,0-.03,0-.08.01-.15v-.03c.13-.42.3-.77.52-1.03.27-.34.57-.51.93-.51.26,0,.47.08.64.25.17.17.26.38.26.65,0,.11-.02.23-.06.37-.02.08-.06.19-.12.35l-.03.09c-.17.45-.3.8-.38,1.06-.12.44-.18.81-.18,1.11,0,.26.05.46.14.61.11.19.29.28.54.28.3,0,.58-.12.83-.37.22-.22.37-.46.45-.72.09-.33.18-.7.28-1.11.06-.24.15-.61.27-1.11l.2-.86c.04-.15.09-.26.15-.32.08-.09.19-.14.32-.14.11,0,.2.04.26.11.06.07.08.16.06.27l-.67,2.61Z"/>
  <path d="M-155.4-197.33s-.13.03-.25.03h-6.6c-.12,0-.21-.01-.26-.03-.07-.03-.11-.09-.11-.19s.04-.17.12-.19c.05-.01.14-.02.26-.02h6.58c.11,0,.2,0,.25.02.09.03.13.09.13.19,0,.09-.04.16-.12.19ZM-155.4-195.2s-.13.03-.25.03h-6.6c-.12,0-.21-.01-.26-.03-.07-.03-.11-.09-.11-.19s.04-.17.12-.19c.05-.01.14-.02.26-.02h6.58c.11,0,.2,0,.25.02.09.03.13.09.13.19,0,.09-.04.16-.12.19Z"/>
  <path d="M-146.7-199.4c-.13.14-.28.2-.46.2-.12,0-.22-.04-.29-.11-.07-.07-.1-.16-.09-.27,0-.18.08-.32.2-.43.11-.09.26-.15.44-.17-.06-.06-.14-.12-.23-.15-.09-.04-.19-.05-.29-.05-.17,0-.31.06-.42.18-.09.09-.15.23-.2.4-.11.34-.23.7-.33,1.1-.09.34-.19.71-.29,1.11h.95c.08-.01.13,0,.16,0,.06.02.1.06.1.12-.02.1-.06.17-.13.19-.04.02-.12.03-.24.03h-.95l-.32,1.21c-.18.69-.32,1.21-.42,1.56-.16.57-.31,1.09-.46,1.54-.22.6-.45,1.09-.68,1.45-.39.6-.79.89-1.22.89-.25,0-.46-.07-.62-.2-.18-.14-.26-.33-.25-.56.02-.19.09-.34.19-.46.13-.13.29-.19.47-.19.11,0,.2.03.27.1.06.07.09.17.09.29-.01.17-.09.31-.22.42-.11.1-.26.16-.43.17.06.06.14.11.23.14.08.04.18.05.29.05.25,0,.48-.23.69-.69.11-.25.24-.64.38-1.16l.06-.21,1.21-4.35h-.76c-.08,0-.14,0-.17-.02-.06-.02-.08-.06-.08-.11,0-.1.04-.17.1-.19.04-.02.12-.03.23-.03h.03s.74.01.74.01c.07-.31.15-.6.24-.87.09-.3.19-.59.29-.86.07-.22.17-.41.29-.59.14-.19.29-.35.47-.46.11-.08.23-.14.35-.17.14-.04.27-.06.39-.06.24,0,.44.06.62.19.19.14.28.33.27.57-.01.17-.08.32-.2.45Z"/>
  <path d="M-143.31-200.87c-.23.41-.41.84-.54,1.3-.14.43-.23.89-.29,1.38-.06.45-.09.93-.09,1.43s.02.93.06,1.36c.06.47.15.91.27,1.33.14.48.32.92.54,1.33.24.43.52.82.85,1.15.13.13.18.23.15.31-.03.07-.13.04-.3-.1-.28-.22-.56-.51-.85-.89-.26-.34-.47-.69-.65-1.04-.25-.52-.44-1.09-.56-1.69-.11-.56-.16-1.14-.16-1.75s.05-1.18.16-1.72c.11-.58.29-1.13.53-1.64.16-.36.37-.72.65-1.09.3-.41.59-.72.87-.93.16-.11.27-.15.32-.11.06.04.02.13-.12.26-.33.33-.61.7-.85,1.11Z"/>
  <path d="M-136.61-196.65c-.12.13-.26.19-.42.19-.13,0-.23-.04-.31-.11-.08-.07-.12-.17-.12-.28,0-.14.05-.27.16-.39.1-.11.23-.18.38-.21-.08-.06-.17-.1-.27-.12-.09-.01-.18-.02-.28-.02-.29,0-.54.15-.75.44-.15.22-.27.51-.34.86l-.51,2.08c-.04.18-.06.33-.05.46,0,.17.05.31.14.44.04.06.1.12.18.16.09.04.18.06.28.06.12,0,.25-.03.39-.09.12-.05.23-.12.35-.19.16-.14.3-.3.42-.48.11-.17.21-.37.29-.59v-.03c.03-.08.05-.13.08-.15.03-.04.08-.05.15-.03.06.01.08.06.08.14,0,.05-.03.13-.06.24-.1.24-.23.46-.38.66-.17.22-.35.41-.56.55-.12.07-.24.13-.37.16-.12.04-.26.06-.4.06-.17,0-.32-.03-.45-.08-.13-.04-.24-.11-.33-.19-.11-.09-.19-.18-.26-.27-.06-.1-.11-.2-.14-.3-.14.25-.31.45-.48.59-.22.17-.44.25-.68.25-.27,0-.5-.06-.69-.17-.23-.13-.34-.32-.34-.56,0-.17.06-.32.17-.45.11-.12.26-.18.43-.18.11,0,.21.03.29.1.08.07.12.17.12.29,0,.14-.05.27-.16.39-.09.1-.21.17-.36.2.07.05.16.09.26.11.09.03.18.04.29.04.27,0,.5-.13.69-.4.15-.2.27-.45.36-.75l.45-1.77h0c.06-.28.11-.48.13-.64.04-.27.02-.47-.04-.61-.05-.11-.12-.2-.22-.26-.09-.06-.2-.09-.32-.09-.13,0-.26.02-.39.08-.12.04-.24.11-.34.19-.17.13-.32.3-.45.52-.12.2-.22.42-.29.66-.02.05-.05.09-.09.11-.04.01-.08.01-.13,0-.06-.01-.08-.08-.05-.18.01-.06.04-.15.09-.26l.02-.03c.08-.21.2-.41.37-.6.16-.19.34-.36.54-.48.11-.08.23-.14.36-.18.11-.03.25-.04.4-.04.29,0,.53.07.74.22.21.14.36.35.45.61.1-.24.25-.43.46-.59.21-.16.45-.24.7-.24s.48.05.67.15c.24.13.36.32.36.57,0,.17-.06.31-.17.44Z"/>
  <path d="M-132.42-194.99c-.12.61-.31,1.17-.56,1.69-.18.35-.39.7-.65,1.04-.29.39-.57.69-.84.89-.18.14-.28.17-.31.09-.03-.07.02-.18.15-.31.33-.33.61-.71.85-1.14.22-.4.39-.84.53-1.3.12-.43.21-.88.28-1.36.06-.44.09-.89.09-1.35,0-.5-.03-.97-.1-1.43-.06-.49-.15-.95-.28-1.38-.14-.46-.33-.89-.56-1.29-.24-.42-.52-.8-.84-1.12-.14-.14-.18-.23-.13-.27.05-.04.16,0,.32.11.27.21.56.52.86.93.27.37.49.74.66,1.09.24.52.41,1.07.53,1.65.11.55.17,1.12.17,1.72s-.06,1.19-.17,1.75Z"/>
</svg>
