<?xml version='1.0' encoding='UTF-8'?>
<svg xmlns="http://www.w3.org/2000/svg" xmlns:xlink="http://www.w3.org/1999/xlink" version="1.1" viewBox="-157.1981 -223.6481 39.8962 16.1062">
  <defs>
    <style>
      .st0, .st1, .st2, .st3, .st4, .st5, .st6, .st7, .st8, .st9, .st10, .st11, .st12, .st13, .st14, .st15, .st16, .st17, .st18, .st19, .st20, .st21, .st22, .st23, .st24, .st25, .st26, .st27, .st28, .st29, .st30, .st31, .st32, .st33, .st34, .st35, .st36, .st37, .st38, .st39, .st40, .st41, .st42, .st43, .st44, .st45, .st46, .st47, .st48, .st49, .st50, .st51, .st52, .st53, .st54, .st55, .st56, .st57, .st58, .st59, .st60, .st61, .st62, .st63, .st64, .st65, .st66, .st67, .st68, .st69, .st70, .st71, .st72, .st73, .st74, .st75, .st76, .st77 {
        fill: none;
      }

      .st0, .st1, .st2, .st3, .st5, .st8, .st9, .st12, .st13, .st14, .st15, .st16, .st78, .st17, .st18, .st20, .st21, .st22, .st23, .st25, .st26, .st30, .st31, .st32, .st34, .st35, .st79, .st39, .st40, .st41, .st42, .st43, .st44, .st45, .st46, .st48, .st49, .st51, .st53, .st55, .st57, .st58, .st80, .st59, .st60, .st81, .st64, .st82, .st65, .st66, .st69, .st70, .st73, .st76, .st77 {
        stroke-miterlimit: 10;
      }

      .st0, .st1, .st2, .st5, .st7, .st8, .st9, .st11, .st13, .st14, .st15, .st16, .st17, .st18, .st19, .st20, .st21, .st22, .st23, .st24, .st25, .st26, .st27, .st29, .st30, .st31, .st32, .st34, .st38, .st39, .st40, .st41, .st45, .st46, .st47, .st48, .st49, .st50, .st52, .st53, .st54, .st55, .st58, .st60, .st61, .st63, .st64, .st65, .st66, .st68, .st69, .st70, .st71, .st73, .st75, .st76, .st77 {
        stroke-width: .5px;
      }

      .st0, .st2, .st3, .st4, .st7, .st9, .st10, .st11, .st12, .st13, .st14, .st15, .st17, .st18, .st19, .st20, .st23, .st24, .st25, .st26, .st27, .st28, .st29, .st30, .st32, .st36, .st37, .st38, .st40, .st41, .st48, .st50, .st52, .st53, .st54, .st55, .st56, .st58, .st61, .st62, .st63, .st64, .st65, .st68, .st70, .st71, .st72, .st74, .st75 {
        stroke: #000;
      }

      .st1, .st5, .st6, .st8, .st16, .st78, .st21, .st22, .st33, .st34, .st35, .st79, .st39, .st42, .st45, .st49, .st80, .st59, .st60, .st81, .st82, .st66, .st67, .st69, .st73, .st76, .st77 {
        stroke: #231815;
      }

      .st1, .st19, .st35, .st65 {
        stroke-dasharray: 3 2 3 2 3 2;
      }

      .st2 {
        stroke-dasharray: 2.93 1.96 2.93 1.96 2.93 1.96;
      }

      .st4, .st6, .st7, .st10, .st11, .st19, .st24, .st27, .st28, .st29, .st33, .st36, .st37, .st38, .st47, .st50, .st52, .st54, .st61, .st62, .st63, .st68, .st71, .st72, .st74, .st75 {
        stroke-linejoin: round;
      }

      .st4, .st10, .st12, .st28, .st33, .st79, .st37, .st42, .st43, .st44, .st51, .st62, .st82, .st72, .st74 {
        stroke-width: .75px;
      }

      .st5 {
        stroke-dasharray: 2.11 1.4 2.11 1.4 2.11 1.4;
      }

      .st7 {
        stroke-dasharray: 3.33 2.22 3.33 2.22;
      }

      .st8 {
        stroke-dasharray: 2.1 1.4 2.1 1.4;
      }

      .st9 {
        stroke-dasharray: 1 1;
      }

      .st10 {
        stroke-dasharray: 2.15 1.44 2.15 1.44;
      }

      .st11 {
        stroke-dasharray: 2.77 1.84 2.77 1.84 2.77 1.84;
      }

      .st13 {
        stroke-dasharray: 3.17 2.12 3.17 2.12 3.17 2.12;
      }

      .st14 {
        stroke-dasharray: 3.2 2.13 3.2 2.13 3.2 2.13;
      }

      .st15 {
        stroke-dasharray: 3.2 2.13 3.2 2.13;
      }

      .st16 {
        stroke-dasharray: 3.15 2.1 3.15 2.1 3.15 2.1;
      }

      .st78 {
        fill: url(#_무제_그라디언트_32);
      }

      .st17 {
        stroke-dasharray: 2.86 1.91 2.86 1.91 2.86 1.91;
      }

      .st83 {
        fill: #e1e3ce;
      }

      .st84 {
        fill: #fcf9ed;
      }

      .st85, .st82 {
        fill: #fff;
      }

      .st18 {
        stroke-dasharray: 3.34 2.23 3.34 2.23;
      }

      .st20 {
        stroke-dasharray: 3.24 2.16 3.24 2.16 3.24 2.16;
      }

      .st21 {
        stroke-dasharray: 2.97 1.98 2.97 1.98 2.97 1.98;
      }

      .st23 {
        stroke-dasharray: 2.86 1.91 2.86 1.91;
      }

      .st24 {
        stroke-dasharray: 2.86 1.91 2.86 1.91;
      }

      .st25 {
        stroke-dasharray: 3.24 2.16 3.24 2.16;
      }

      .st86 {
        fill: #f4f8e0;
      }

      .st26 {
        stroke-dasharray: 2.43 1.62 2.43 1.62;
      }

      .st87 {
        font-size: 8.99px;
      }

      .st87, .st88, .st89 {
        font-family: HyhwpEQ, HyhwpEQ;
      }

      .st28 {
        stroke-dasharray: 2.15 1.44 2.15 1.44 2.15 1.44;
      }

      .st29 {
        stroke-dasharray: 3.35 2.24 3.35 2.24 3.35 2.24;
      }

      .st30 {
        stroke-dasharray: 3.33 2.22 3.33 2.22;
      }

      .st31 {
        stroke: #e2cae0;
      }

      .st32 {
        stroke-dasharray: 3.34 2.23 3.34 2.23 3.34 2.23;
      }

      .st90 {
        fill: #e2cae0;
      }

      .st91 {
        fill: #c7dccb;
      }

      .st34 {
        stroke-dasharray: 3.04 2.03 3.04 2.03 3.04 2.03;
      }

      .st92 {
        opacity: .3;
      }

      .st92, .st93 {
        fill: #231815;
      }

      .st94 {
        fill: #afd5e4;
      }

      .st79, .st95 {
        fill: #aeb6d9;
      }

      .st37 {
        stroke-dasharray: 2.76 1.84 2.76 1.84 2.76 1.84;
      }

      .st38 {
        stroke-dasharray: 1.96 1.31 1.96 1.31;
      }

      .st39 {
        stroke-dasharray: 2.11 1.4 2.11 1.4;
      }

      .st40 {
        stroke-dasharray: 3.2 2.13 3.2 2.13;
      }

      .st41 {
        stroke-dasharray: 2.43 1.62 2.43 1.62 2.43 1.62;
      }

      .st43 {
        stroke: #036eb8;
      }

      .st44 {
        stroke: #094;
      }

      .st96 {
        fill: #c9caca;
      }

      .st45 {
        stroke-dasharray: 3.15 2.1 3.15 2.1;
      }

      .st46 {
        stroke: #aeb6d9;
      }

      .st97 {
        opacity: .75;
      }

      .st97, .st98 {
        fill: #d1c8e3;
      }

      .st47 {
        stroke: #080103;
        stroke-linecap: round;
      }

      .st99 {
        fill: #080103;
      }

      .st48 {
        stroke-dasharray: 2.93 1.96 2.93 1.96;
      }

      .st49 {
        stroke-dasharray: 3.19 2.12 3.19 2.12 3.19 2.12;
      }

      .st50 {
        stroke-dasharray: 3.09 2.06 3.09 2.06 3.09 2.06;
      }

      .st51 {
        stroke: #ea5514;
      }

      .st52 {
        stroke-dasharray: 2.86 1.91 2.86 1.91 2.86 1.91;
      }

      .st53 {
        stroke-dasharray: 3.2 2.13 3.2 2.13 3.2 2.13;
      }

      .st54 {
        stroke-dasharray: 3.33 2.22 3.33 2.22 3.33 2.22;
      }

      .st55 {
        stroke-dasharray: 3.17 2.12 3.17 2.12;
      }

      .st56, .st67 {
        stroke-linejoin: bevel;
      }

      .st57 {
        stroke: #a3af7b;
      }

      .st58 {
        stroke-dasharray: 3.49 2.33 3.49 2.33;
      }

      .st80 {
        fill: url(#_무제_그라디언트_3);
      }

      .st60 {
        stroke-dasharray: 2.97 1.98 2.97 1.98;
      }

      .st100 {
        fill: #cddee2;
      }

      .st88 {
        font-size: 9px;
      }

      .st61 {
        stroke-dasharray: 3.02 2.01 3.02 2.01 3.02 2.01;
      }

      .st62 {
        stroke-dasharray: 2.76 1.84 2.76 1.84;
      }

      .st63 {
        stroke-dasharray: 3.02 2.01 3.02 2.01;
      }

      .st81 {
        fill: url(#_무제_그라디언트_31);
      }

      .st64 {
        stroke-dasharray: 3.33 2.22 3.33 2.22 3.33 2.22;
      }

      .st66 {
        stroke-dasharray: 3.19 2.12 3.19 2.12;
      }

      .st101 {
        fill: #e6cce2;
      }

      .st89 {
        font-size: 6.11px;
      }

      .st68 {
        stroke-dasharray: 2.77 1.84 2.77 1.84;
      }

      .st69 {
        stroke-dasharray: 3.15 2.1 3.15 2.1 3.15 2.1;
      }

      .st70 {
        stroke-dasharray: 3.49 2.33 3.49 2.33 3.49 2.33;
      }

      .st71 {
        stroke-dasharray: 3.35 2.24 3.35 2.24;
      }

      .st72 {
        stroke-dasharray: 3.18 2.12 3.18 2.12;
      }

      .st73 {
        stroke-dasharray: 3.04 2.03 3.04 2.03;
      }

      .st74 {
        stroke-dasharray: 3.18 2.12 3.18 2.12 3.18 2.12;
      }

      .st75 {
        stroke-dasharray: 3.09 2.06 3.09 2.06;
      }

      .st76 {
        stroke-dasharray: 2.1 1.4 2.1 1.4 2.1 1.4;
      }

      .st77 {
        stroke-dasharray: 3.15 2.1 3.15 2.1;
      }
    </style>
    <radialGradient id="_무제_그라디언트_3" data-name="무제 그라디언트 3" cx="807.71" cy="-829.6" fx="807.71" fy="-829.6" r="9.65" gradientUnits="userSpaceOnUse">
      <stop offset=".08" stop-color="#fff"/>
      <stop offset="1" stop-color="#000"/>
    </radialGradient>
    <radialGradient id="_무제_그라디언트_31" data-name="무제 그라디언트 3" cy="-897.72" fy="-897.72" r="9.65" xlink:href="#_무제_그라디언트_3"/>
    <radialGradient id="_무제_그라디언트_32" data-name="무제 그라디언트 3" cy="-938.61" fy="-938.61" xlink:href="#_무제_그라디언트_3"/>
  </defs>
  <rect class="st94" x="-156.38" y="-222.83" width="38.26" height="14.47" rx="-96.94" ry="-96.94"/>
  <path class="st93" d="M-139.6-219.27c0-.1-.02-.17-.05-.21-.03-.04-.1-.05-.19-.05h-5.02c-.09,0-.13-.04-.13-.13v-.34c0-.09.04-.13.13-.13h5.17c.31,0,.52.06.62.17.1.11.15.31.15.6,0,.2,0,.42-.02.66-.02.24-.04.48-.07.73s-.06.48-.1.72c-.04.24-.08.45-.12.65h1.55s.07.01.1.03c.03.02.05.06.05.1v.34s-.02.06-.05.09-.07.04-.1.04h-8.5s-.08-.01-.11-.04c-.03-.03-.04-.06-.04-.09v-.34s.02-.07.04-.1c.03-.02.07-.03.11-.03h6.3c.04-.19.08-.41.12-.64.04-.23.07-.46.09-.69s.05-.46.06-.69c.01-.23.02-.44.02-.63ZM-145.07-214.47s.07-.03.1-.03h5.28c.31,0,.52.06.62.18.1.12.14.31.14.58v2.54c0,.09-.05.14-.14.14h-.41c-.09,0-.14-.05-.14-.14v-2.49c0-.09-.01-.15-.04-.17-.03-.02-.09-.04-.18-.04h-5.12s-.07-.01-.1-.04c-.03-.02-.05-.05-.05-.08v-.36s.02-.07.05-.09Z"/>
  <path class="st93" d="M-132.28-215.81s.04.06.04.1v2.37h3.94s.07.01.1.04.05.05.05.09v.34s-.02.06-.05.09-.07.04-.1.04h-8.5s-.08-.01-.11-.04c-.03-.03-.04-.06-.04-.09v-.34s.02-.07.04-.09c.03-.02.07-.04.11-.04h3.87v-2.37s.01-.07.04-.1c.02-.03.05-.04.09-.04h.43s.06.01.09.04ZM-132.2-219.76c-.01.09-.03.17-.04.26-.01.09-.03.17-.06.26.01.07.03.14.05.21s.04.12.07.17c.16.32.35.62.58.89.23.28.48.53.76.75.28.23.58.43.91.6s.66.3,1,.4c.04.01.07.04.08.08.01.04.01.08,0,.11l-.16.34s-.04.06-.07.08c-.02.02-.07.02-.13,0-.75-.27-1.42-.64-2-1.11-.59-.47-1.06-1.02-1.42-1.65-.31.63-.75,1.19-1.32,1.7-.57.51-1.21.9-1.94,1.18-.11.04-.17.03-.2-.04l-.18-.35s-.02-.07,0-.1c.01-.04.04-.07.08-.08.93-.36,1.68-.87,2.25-1.52.58-.65.93-1.4,1.06-2.24,0-.08.05-.12.13-.12l.45.05c.08.01.12.06.11.14Z"/>
</svg>
