<?xml version='1.0' encoding='UTF-8'?>
<svg xmlns="http://www.w3.org/2000/svg" xmlns:xlink="http://www.w3.org/1999/xlink" version="1.1" viewBox="1043.4255 -186.8045 156.249 105.699">
  <defs>
    <style>
      .st0, .st1, .st2, .st3, .st4, .st5, .st6, .st7, .st8, .st9, .st10, .st11, .st12, .st13, .st14, .st15, .st16, .st17, .st18, .st19, .st20, .st21, .st22, .st23, .st24, .st25, .st26, .st27, .st28, .st29, .st30, .st31, .st32, .st33, .st34, .st35, .st36, .st37, .st38, .st39, .st40, .st41, .st42, .st43, .st44, .st45, .st46, .st47, .st48, .st49, .st50, .st51, .st52, .st53, .st54, .st55, .st56, .st57, .st58, .st59, .st60, .st61, .st62, .st63, .st64, .st65, .st66, .st67, .st68, .st69, .st70, .st71, .st72, .st73, .st74, .st75, .st76, .st77 {
        fill: none;
      }

      .st0, .st1, .st2, .st3, .st5, .st8, .st9, .st12, .st13, .st14, .st15, .st16, .st78, .st17, .st18, .st20, .st21, .st22, .st23, .st25, .st26, .st30, .st31, .st32, .st34, .st35, .st79, .st39, .st40, .st41, .st42, .st43, .st44, .st45, .st46, .st48, .st49, .st51, .st53, .st55, .st57, .st58, .st80, .st59, .st60, .st81, .st64, .st82, .st65, .st66, .st69, .st70, .st73, .st76, .st77 {
        stroke-miterlimit: 10;
      }

      .st0, .st1, .st2, .st5, .st7, .st8, .st9, .st11, .st13, .st14, .st15, .st16, .st17, .st18, .st19, .st20, .st21, .st22, .st23, .st24, .st25, .st26, .st27, .st29, .st30, .st31, .st32, .st34, .st38, .st39, .st40, .st41, .st45, .st46, .st47, .st48, .st49, .st50, .st52, .st53, .st54, .st55, .st58, .st60, .st61, .st63, .st64, .st65, .st66, .st68, .st69, .st70, .st71, .st73, .st75, .st76, .st77 {
        stroke-width: .5px;
      }

      .st0, .st2, .st3, .st4, .st7, .st9, .st10, .st11, .st12, .st13, .st14, .st15, .st17, .st18, .st19, .st20, .st23, .st24, .st25, .st26, .st27, .st28, .st29, .st30, .st32, .st36, .st37, .st38, .st40, .st41, .st48, .st50, .st52, .st53, .st54, .st55, .st56, .st58, .st61, .st62, .st63, .st64, .st65, .st68, .st70, .st71, .st72, .st74, .st75 {
        stroke: #000;
      }

      .st1, .st5, .st6, .st8, .st16, .st78, .st21, .st22, .st33, .st34, .st35, .st79, .st39, .st42, .st45, .st49, .st80, .st59, .st60, .st81, .st82, .st66, .st67, .st69, .st73, .st76, .st77 {
        stroke: #231815;
      }

      .st1, .st19, .st35, .st65 {
        stroke-dasharray: 3 2 3 2 3 2;
      }

      .st2 {
        stroke-dasharray: 2.93 1.96 2.93 1.96 2.93 1.96;
      }

      .st4, .st6, .st7, .st10, .st11, .st19, .st24, .st27, .st28, .st29, .st33, .st36, .st37, .st38, .st47, .st50, .st52, .st54, .st61, .st62, .st63, .st68, .st71, .st72, .st74, .st75 {
        stroke-linejoin: round;
      }

      .st4, .st10, .st12, .st28, .st33, .st79, .st37, .st42, .st43, .st44, .st51, .st62, .st82, .st72, .st74 {
        stroke-width: .75px;
      }

      .st5 {
        stroke-dasharray: 2.11 1.4 2.11 1.4 2.11 1.4;
      }

      .st7 {
        stroke-dasharray: 3.33 2.22 3.33 2.22;
      }

      .st8 {
        stroke-dasharray: 2.1 1.4 2.1 1.4;
      }

      .st9 {
        stroke-dasharray: 1 1;
      }

      .st10 {
        stroke-dasharray: 2.15 1.44 2.15 1.44;
      }

      .st11 {
        stroke-dasharray: 2.77 1.84 2.77 1.84 2.77 1.84;
      }

      .st13 {
        stroke-dasharray: 3.17 2.12 3.17 2.12 3.17 2.12;
      }

      .st14 {
        stroke-dasharray: 3.2 2.13 3.2 2.13 3.2 2.13;
      }

      .st15 {
        stroke-dasharray: 3.2 2.13 3.2 2.13;
      }

      .st16 {
        stroke-dasharray: 3.15 2.1 3.15 2.1 3.15 2.1;
      }

      .st78 {
        fill: url(#_무제_그라디언트_32);
      }

      .st17 {
        stroke-dasharray: 2.86 1.91 2.86 1.91 2.86 1.91;
      }

      .st83 {
        fill: #e1e3ce;
      }

      .st84 {
        fill: #fcf9ed;
      }

      .st85, .st82 {
        fill: #fff;
      }

      .st18 {
        stroke-dasharray: 3.34 2.23 3.34 2.23;
      }

      .st20 {
        stroke-dasharray: 3.24 2.16 3.24 2.16 3.24 2.16;
      }

      .st21 {
        stroke-dasharray: 2.97 1.98 2.97 1.98 2.97 1.98;
      }

      .st23 {
        stroke-dasharray: 2.86 1.91 2.86 1.91;
      }

      .st24 {
        stroke-dasharray: 2.86 1.91 2.86 1.91;
      }

      .st25 {
        stroke-dasharray: 3.24 2.16 3.24 2.16;
      }

      .st86 {
        fill: #f4f8e0;
      }

      .st26 {
        stroke-dasharray: 2.43 1.62 2.43 1.62;
      }

      .st87 {
        font-size: 8.99px;
      }

      .st87, .st88, .st89 {
        font-family: HyhwpEQ, HyhwpEQ;
      }

      .st28 {
        stroke-dasharray: 2.15 1.44 2.15 1.44 2.15 1.44;
      }

      .st29 {
        stroke-dasharray: 3.35 2.24 3.35 2.24 3.35 2.24;
      }

      .st30 {
        stroke-dasharray: 3.33 2.22 3.33 2.22;
      }

      .st31 {
        stroke: #e2cae0;
      }

      .st32 {
        stroke-dasharray: 3.34 2.23 3.34 2.23 3.34 2.23;
      }

      .st90 {
        fill: #e2cae0;
      }

      .st91 {
        fill: #c7dccb;
      }

      .st34 {
        stroke-dasharray: 3.04 2.03 3.04 2.03 3.04 2.03;
      }

      .st92 {
        opacity: .3;
      }

      .st92, .st93 {
        fill: #231815;
      }

      .st94 {
        fill: #afd5e4;
      }

      .st79, .st95 {
        fill: #aeb6d9;
      }

      .st37 {
        stroke-dasharray: 2.76 1.84 2.76 1.84 2.76 1.84;
      }

      .st38 {
        stroke-dasharray: 1.96 1.31 1.96 1.31;
      }

      .st39 {
        stroke-dasharray: 2.11 1.4 2.11 1.4;
      }

      .st40 {
        stroke-dasharray: 3.2 2.13 3.2 2.13;
      }

      .st41 {
        stroke-dasharray: 2.43 1.62 2.43 1.62 2.43 1.62;
      }

      .st43 {
        stroke: #036eb8;
      }

      .st44 {
        stroke: #094;
      }

      .st96 {
        fill: #c9caca;
      }

      .st45 {
        stroke-dasharray: 3.15 2.1 3.15 2.1;
      }

      .st46 {
        stroke: #aeb6d9;
      }

      .st97 {
        opacity: .75;
      }

      .st97, .st98 {
        fill: #d1c8e3;
      }

      .st47 {
        stroke: #080103;
        stroke-linecap: round;
      }

      .st99 {
        fill: #080103;
      }

      .st48 {
        stroke-dasharray: 2.93 1.96 2.93 1.96;
      }

      .st49 {
        stroke-dasharray: 3.19 2.12 3.19 2.12 3.19 2.12;
      }

      .st50 {
        stroke-dasharray: 3.09 2.06 3.09 2.06 3.09 2.06;
      }

      .st51 {
        stroke: #ea5514;
      }

      .st52 {
        stroke-dasharray: 2.86 1.91 2.86 1.91 2.86 1.91;
      }

      .st53 {
        stroke-dasharray: 3.2 2.13 3.2 2.13 3.2 2.13;
      }

      .st54 {
        stroke-dasharray: 3.33 2.22 3.33 2.22 3.33 2.22;
      }

      .st55 {
        stroke-dasharray: 3.17 2.12 3.17 2.12;
      }

      .st56, .st67 {
        stroke-linejoin: bevel;
      }

      .st57 {
        stroke: #a3af7b;
      }

      .st58 {
        stroke-dasharray: 3.49 2.33 3.49 2.33;
      }

      .st80 {
        fill: url(#_무제_그라디언트_3);
      }

      .st60 {
        stroke-dasharray: 2.97 1.98 2.97 1.98;
      }

      .st100 {
        fill: #cddee2;
      }

      .st88 {
        font-size: 9px;
      }

      .st61 {
        stroke-dasharray: 3.02 2.01 3.02 2.01 3.02 2.01;
      }

      .st62 {
        stroke-dasharray: 2.76 1.84 2.76 1.84;
      }

      .st63 {
        stroke-dasharray: 3.02 2.01 3.02 2.01;
      }

      .st81 {
        fill: url(#_무제_그라디언트_31);
      }

      .st64 {
        stroke-dasharray: 3.33 2.22 3.33 2.22 3.33 2.22;
      }

      .st66 {
        stroke-dasharray: 3.19 2.12 3.19 2.12;
      }

      .st101 {
        fill: #e6cce2;
      }

      .st89 {
        font-size: 6.11px;
      }

      .st68 {
        stroke-dasharray: 2.77 1.84 2.77 1.84;
      }

      .st69 {
        stroke-dasharray: 3.15 2.1 3.15 2.1 3.15 2.1;
      }

      .st70 {
        stroke-dasharray: 3.49 2.33 3.49 2.33 3.49 2.33;
      }

      .st71 {
        stroke-dasharray: 3.35 2.24 3.35 2.24;
      }

      .st72 {
        stroke-dasharray: 3.18 2.12 3.18 2.12;
      }

      .st73 {
        stroke-dasharray: 3.04 2.03 3.04 2.03;
      }

      .st74 {
        stroke-dasharray: 3.18 2.12 3.18 2.12 3.18 2.12;
      }

      .st75 {
        stroke-dasharray: 3.09 2.06 3.09 2.06;
      }

      .st76 {
        stroke-dasharray: 2.1 1.4 2.1 1.4 2.1 1.4;
      }

      .st77 {
        stroke-dasharray: 3.15 2.1 3.15 2.1;
      }
    </style>
    <radialGradient id="_무제_그라디언트_3" data-name="무제 그라디언트 3" cx="807.71" cy="-829.6" fx="807.71" fy="-829.6" r="9.65" gradientUnits="userSpaceOnUse">
      <stop offset=".08" stop-color="#fff"/>
      <stop offset="1" stop-color="#000"/>
    </radialGradient>
    <radialGradient id="_무제_그라디언트_31" data-name="무제 그라디언트 3" cy="-897.72" fy="-897.72" r="9.65" xlink:href="#_무제_그라디언트_3"/>
    <radialGradient id="_무제_그라디언트_32" data-name="무제 그라디언트 3" cy="-938.61" fy="-938.61" xlink:href="#_무제_그라디언트_3"/>
  </defs>
  <rect class="st94" x="1135.67" y="-153.7" width="38.06" height="14.47" rx="-62.38" ry="-62.38"/>
  <polygon class="st94" points="1124.85 -135.23 1140.39 -139.77 1136.4 -144.95 1124.85 -135.23"/>
  <line class="st51" x1="1092.37" y1="-183.23" x2="1150.73" y2="-84.68"/>
  <circle cx="1121.55" cy="-133.95" r="2.13"/>
  <path class="st42" d="M1196.1-111.5c-22.69,20.54-46.65,26.51-74.55-22.45-27.9-48.96-51.86-42.99-74.55-22.45"/>
  <path class="st93" d="M1142.58-145.93c-.16,0-.29,0-.39-.03-.1-.02-.17-.06-.22-.11s-.09-.13-.11-.22c-.02-.09-.03-.21-.03-.34v-4s.01-.06.04-.08c.03-.02.06-.04.09-.04h.43s.06.01.08.04c.02.03.04.05.04.08v1.76h2.92v-1.75s.01-.06.04-.09c.02-.03.05-.04.08-.04h.43s.06.01.09.04c.03.02.04.05.04.08v1.19h1.97v-1.54c0-.09.05-.14.14-.14h.41c.09,0,.14.05.14.14v6.38c0,.09-.05.14-.14.14h-.41c-.09,0-.14-.05-.14-.14v-2.35h-1.97v.39c0,.25-.05.42-.16.51-.11.09-.31.13-.6.13h-2.77ZM1142.51-148.29v1.53c0,.1.02.17.05.2s.1.04.19.04h2.44c.09,0,.16-.01.19-.04s.05-.09.05-.2v-1.53h-2.92ZM1149.17-142.12s-.07.03-.1.03h-5.14c-.31,0-.52-.06-.62-.17s-.14-.31-.14-.58v-1.96c0-.09.05-.14.14-.14h.41c.09,0,.14.05.14.14v1.91c0,.09.02.15.04.17.03.02.09.04.19.04h4.98s.07.01.1.04.05.05.05.08v.36s-.02.07-.05.09ZM1146.11-147.55h1.97v-1.31h-1.97v1.31Z"/>
  <path class="st93" d="M1154.77-148.69s.04.06.04.1v1.68h4.26s.07.01.1.03c.03.02.05.06.05.1v.34s-.02.06-.05.09-.07.04-.1.04h-8.5s-.08-.01-.11-.04c-.03-.03-.04-.06-.04-.09v-.34s.02-.07.04-.1c.03-.02.07-.03.11-.03h3.57v-1.68s.01-.08.04-.1c.02-.03.06-.04.1-.04h.41s.06.01.09.04ZM1151.65-145.14s.07-.03.1-.03h5.31c.31,0,.52.06.61.18.1.12.15.31.15.58v2.46c0,.09-.05.14-.14.14h-.41c-.09,0-.14-.05-.14-.14v-2.41c0-.09-.01-.15-.04-.17s-.09-.04-.18-.04h-5.15s-.07-.01-.1-.04c-.03-.02-.05-.05-.05-.08v-.36s.02-.07.05-.09ZM1151.82-150.9s.07-.03.1-.03h5.17c.16,0,.29.02.39.05.1.03.17.08.22.15.05.06.09.14.12.25.02.1.04.22.04.36,0,.2,0,.41-.02.64s-.03.45-.06.67c-.03.22-.06.43-.1.63-.04.2-.07.38-.1.54-.01.04-.03.08-.06.11-.02.03-.05.05-.09.04l-.4-.03c-.11,0-.15-.07-.12-.18.04-.15.08-.32.11-.53s.06-.43.09-.65c.03-.22.04-.44.05-.66s.01-.41.01-.56c0-.09-.01-.15-.04-.18-.03-.02-.09-.03-.18-.03h-5.02s-.07-.01-.1-.04-.05-.05-.05-.08v-.36s.02-.07.05-.09Z"/>
  <path class="st93" d="M1164.69-149.88c-.09.27-.22.54-.39.81s-.37.53-.61.79c.23.24.51.47.84.68.33.22.7.41,1.09.58.05.02.08.05.09.08,0,.04,0,.07-.02.11l-.2.36s-.05.05-.09.05c-.04,0-.08,0-.11-.01-.15-.07-.3-.15-.47-.24-.17-.09-.34-.2-.53-.32-.18-.12-.36-.25-.53-.39-.18-.14-.34-.29-.5-.44-.38.37-.8.71-1.25,1.02-.46.31-.92.56-1.39.77-.03.01-.07.02-.1.03-.03,0-.06,0-.08-.04l-.2-.35s-.02-.07,0-.1c.02-.04.04-.06.08-.08.86-.41,1.59-.89,2.2-1.42.61-.53,1.08-1.15,1.42-1.85.05-.09.05-.16.02-.2-.03-.04-.1-.06-.19-.06h-2.93c-.08,0-.12-.04-.12-.13v-.35c0-.08.04-.12.12-.12h3.2c.35,0,.57.06.67.18.1.12.1.33,0,.63ZM1161.86-144.59c0-.28.05-.47.16-.56s.31-.15.6-.15h4.19c.16,0,.29,0,.38.03.1.02.17.06.23.11.06.05.09.13.11.22.02.09.03.21.03.35v1.89c0,.28-.05.47-.16.56s-.31.15-.6.15h-4.19c-.16,0-.29-.01-.38-.03-.1-.02-.17-.06-.23-.12s-.1-.13-.12-.22c-.02-.09-.03-.21-.03-.34v-1.89ZM1162.79-144.7c-.09,0-.16.02-.19.05-.03.04-.05.1-.05.21v1.59c0,.1.02.17.05.21.03.04.1.05.19.05h3.85c.09,0,.16-.02.19-.05.03-.04.05-.11.05-.21v-1.59c0-.1-.02-.17-.05-.21-.03-.04-.1-.05-.19-.05h-3.85ZM1166.88-148.81v-2.18c0-.09.05-.14.14-.14h.41c.09,0,.14.05.14.14v4.98c0,.09-.05.14-.14.14h-.41c-.09,0-.14-.05-.14-.14v-2.2h-1.85c-.09,0-.13-.04-.13-.12v-.36c0-.08.04-.12.13-.12h1.85Z"/>
  <path d="M1117.22-125.15c-.42.38-.98.57-1.66.57h-1.8v2.65c0,.28.08.48.23.6.17.14.47.2.9.2v.28h-2.88v-.28c.39,0,.66-.07.82-.2.15-.12.23-.32.23-.6v-5.86c0-.27-.08-.46-.23-.56-.15-.1-.42-.15-.82-.15v-.28h3.63c.63,0,1.16.17,1.58.52.45.37.67.87.67,1.48,0,.69-.23,1.23-.68,1.64ZM1116.69-127.98c-.33-.34-.76-.52-1.3-.52h-.85c-.28,0-.48.05-.59.15-.12.11-.18.29-.18.56v2.93h1.62c.54,0,.98-.21,1.31-.62.3-.37.45-.81.45-1.3s-.15-.87-.45-1.2Z"/>
</svg>
