<?xml version='1.0' encoding='UTF-8'?>
<svg xmlns="http://www.w3.org/2000/svg" xmlns:xlink="http://www.w3.org/1999/xlink" version="1.1" viewBox="6.6718 17.3118 55.3964 19.5564">
  <defs>
    <style>
      .st0, .st1, .st2, .st3, .st4, .st5, .st6, .st7, .st8, .st9, .st10, .st11, .st12, .st13, .st14, .st15, .st16, .st17, .st18, .st19, .st20, .st21, .st22, .st23, .st24, .st25, .st26, .st27, .st28, .st29, .st30, .st31, .st32, .st33, .st34, .st35, .st36, .st37, .st38, .st39, .st40, .st41, .st42, .st43, .st44, .st45, .st46, .st47, .st48, .st49, .st50, .st51, .st52, .st53, .st54, .st55, .st56, .st57, .st58, .st59, .st60, .st61, .st62, .st63, .st64, .st65, .st66, .st67, .st68, .st69, .st70, .st71, .st72, .st73, .st74, .st75, .st76, .st77 {
        fill: none;
      }

      .st0, .st1, .st2, .st3, .st5, .st8, .st9, .st12, .st13, .st14, .st15, .st16, .st78, .st17, .st18, .st20, .st21, .st22, .st23, .st25, .st26, .st30, .st31, .st32, .st34, .st35, .st79, .st39, .st40, .st41, .st42, .st43, .st44, .st45, .st46, .st48, .st49, .st51, .st53, .st55, .st57, .st58, .st80, .st59, .st60, .st81, .st64, .st82, .st65, .st66, .st69, .st70, .st73, .st76, .st77 {
        stroke-miterlimit: 10;
      }

      .st0, .st1, .st2, .st5, .st7, .st8, .st9, .st11, .st13, .st14, .st15, .st16, .st17, .st18, .st19, .st20, .st21, .st22, .st23, .st24, .st25, .st26, .st27, .st29, .st30, .st31, .st32, .st34, .st38, .st39, .st40, .st41, .st45, .st46, .st47, .st48, .st49, .st50, .st52, .st53, .st54, .st55, .st58, .st60, .st61, .st63, .st64, .st65, .st66, .st68, .st69, .st70, .st71, .st73, .st75, .st76, .st77 {
        stroke-width: .5px;
      }

      .st0, .st2, .st3, .st4, .st7, .st9, .st10, .st11, .st12, .st13, .st14, .st15, .st17, .st18, .st19, .st20, .st23, .st24, .st25, .st26, .st27, .st28, .st29, .st30, .st32, .st36, .st37, .st38, .st40, .st41, .st48, .st50, .st52, .st53, .st54, .st55, .st56, .st58, .st61, .st62, .st63, .st64, .st65, .st68, .st70, .st71, .st72, .st74, .st75 {
        stroke: #000;
      }

      .st1, .st5, .st6, .st8, .st16, .st78, .st21, .st22, .st33, .st34, .st35, .st79, .st39, .st42, .st45, .st49, .st80, .st59, .st60, .st81, .st82, .st66, .st67, .st69, .st73, .st76, .st77 {
        stroke: #231815;
      }

      .st1, .st19, .st35, .st65 {
        stroke-dasharray: 3 2 3 2 3 2;
      }

      .st2 {
        stroke-dasharray: 2.93 1.96 2.93 1.96 2.93 1.96;
      }

      .st4, .st6, .st7, .st10, .st11, .st19, .st24, .st27, .st28, .st29, .st33, .st36, .st37, .st38, .st47, .st50, .st52, .st54, .st61, .st62, .st63, .st68, .st71, .st72, .st74, .st75 {
        stroke-linejoin: round;
      }

      .st4, .st10, .st12, .st28, .st33, .st79, .st37, .st42, .st43, .st44, .st51, .st62, .st82, .st72, .st74 {
        stroke-width: .75px;
      }

      .st5 {
        stroke-dasharray: 2.11 1.4 2.11 1.4 2.11 1.4;
      }

      .st7 {
        stroke-dasharray: 3.33 2.22 3.33 2.22;
      }

      .st8 {
        stroke-dasharray: 2.1 1.4 2.1 1.4;
      }

      .st9 {
        stroke-dasharray: 1 1;
      }

      .st10 {
        stroke-dasharray: 2.15 1.44 2.15 1.44;
      }

      .st11 {
        stroke-dasharray: 2.77 1.84 2.77 1.84 2.77 1.84;
      }

      .st13 {
        stroke-dasharray: 3.17 2.12 3.17 2.12 3.17 2.12;
      }

      .st14 {
        stroke-dasharray: 3.2 2.13 3.2 2.13 3.2 2.13;
      }

      .st15 {
        stroke-dasharray: 3.2 2.13 3.2 2.13;
      }

      .st16 {
        stroke-dasharray: 3.15 2.1 3.15 2.1 3.15 2.1;
      }

      .st78 {
        fill: url(#_무제_그라디언트_32);
      }

      .st17 {
        stroke-dasharray: 2.86 1.91 2.86 1.91 2.86 1.91;
      }

      .st83 {
        fill: #e1e3ce;
      }

      .st84 {
        fill: #fcf9ed;
      }

      .st85, .st82 {
        fill: #fff;
      }

      .st18 {
        stroke-dasharray: 3.34 2.23 3.34 2.23;
      }

      .st20 {
        stroke-dasharray: 3.24 2.16 3.24 2.16 3.24 2.16;
      }

      .st21 {
        stroke-dasharray: 2.97 1.98 2.97 1.98 2.97 1.98;
      }

      .st23 {
        stroke-dasharray: 2.86 1.91 2.86 1.91;
      }

      .st24 {
        stroke-dasharray: 2.86 1.91 2.86 1.91;
      }

      .st25 {
        stroke-dasharray: 3.24 2.16 3.24 2.16;
      }

      .st86 {
        fill: #f4f8e0;
      }

      .st26 {
        stroke-dasharray: 2.43 1.62 2.43 1.62;
      }

      .st87 {
        font-size: 8.99px;
      }

      .st87, .st88, .st89 {
        font-family: HyhwpEQ, HyhwpEQ;
      }

      .st28 {
        stroke-dasharray: 2.15 1.44 2.15 1.44 2.15 1.44;
      }

      .st29 {
        stroke-dasharray: 3.35 2.24 3.35 2.24 3.35 2.24;
      }

      .st30 {
        stroke-dasharray: 3.33 2.22 3.33 2.22;
      }

      .st31 {
        stroke: #e2cae0;
      }

      .st32 {
        stroke-dasharray: 3.34 2.23 3.34 2.23 3.34 2.23;
      }

      .st90 {
        fill: #e2cae0;
      }

      .st91 {
        fill: #c7dccb;
      }

      .st34 {
        stroke-dasharray: 3.04 2.03 3.04 2.03 3.04 2.03;
      }

      .st92 {
        opacity: .3;
      }

      .st92, .st93 {
        fill: #231815;
      }

      .st94 {
        fill: #afd5e4;
      }

      .st79, .st95 {
        fill: #aeb6d9;
      }

      .st37 {
        stroke-dasharray: 2.76 1.84 2.76 1.84 2.76 1.84;
      }

      .st38 {
        stroke-dasharray: 1.96 1.31 1.96 1.31;
      }

      .st39 {
        stroke-dasharray: 2.11 1.4 2.11 1.4;
      }

      .st40 {
        stroke-dasharray: 3.2 2.13 3.2 2.13;
      }

      .st41 {
        stroke-dasharray: 2.43 1.62 2.43 1.62 2.43 1.62;
      }

      .st43 {
        stroke: #036eb8;
      }

      .st44 {
        stroke: #094;
      }

      .st96 {
        fill: #c9caca;
      }

      .st45 {
        stroke-dasharray: 3.15 2.1 3.15 2.1;
      }

      .st46 {
        stroke: #aeb6d9;
      }

      .st97 {
        opacity: .75;
      }

      .st97, .st98 {
        fill: #d1c8e3;
      }

      .st47 {
        stroke: #080103;
        stroke-linecap: round;
      }

      .st99 {
        fill: #080103;
      }

      .st48 {
        stroke-dasharray: 2.93 1.96 2.93 1.96;
      }

      .st49 {
        stroke-dasharray: 3.19 2.12 3.19 2.12 3.19 2.12;
      }

      .st50 {
        stroke-dasharray: 3.09 2.06 3.09 2.06 3.09 2.06;
      }

      .st51 {
        stroke: #ea5514;
      }

      .st52 {
        stroke-dasharray: 2.86 1.91 2.86 1.91 2.86 1.91;
      }

      .st53 {
        stroke-dasharray: 3.2 2.13 3.2 2.13 3.2 2.13;
      }

      .st54 {
        stroke-dasharray: 3.33 2.22 3.33 2.22 3.33 2.22;
      }

      .st55 {
        stroke-dasharray: 3.17 2.12 3.17 2.12;
      }

      .st56, .st67 {
        stroke-linejoin: bevel;
      }

      .st57 {
        stroke: #a3af7b;
      }

      .st58 {
        stroke-dasharray: 3.49 2.33 3.49 2.33;
      }

      .st80 {
        fill: url(#_무제_그라디언트_3);
      }

      .st60 {
        stroke-dasharray: 2.97 1.98 2.97 1.98;
      }

      .st100 {
        fill: #cddee2;
      }

      .st88 {
        font-size: 9px;
      }

      .st61 {
        stroke-dasharray: 3.02 2.01 3.02 2.01 3.02 2.01;
      }

      .st62 {
        stroke-dasharray: 2.76 1.84 2.76 1.84;
      }

      .st63 {
        stroke-dasharray: 3.02 2.01 3.02 2.01;
      }

      .st81 {
        fill: url(#_무제_그라디언트_31);
      }

      .st64 {
        stroke-dasharray: 3.33 2.22 3.33 2.22 3.33 2.22;
      }

      .st66 {
        stroke-dasharray: 3.19 2.12 3.19 2.12;
      }

      .st101 {
        fill: #e6cce2;
      }

      .st89 {
        font-size: 6.11px;
      }

      .st68 {
        stroke-dasharray: 2.77 1.84 2.77 1.84;
      }

      .st69 {
        stroke-dasharray: 3.15 2.1 3.15 2.1 3.15 2.1;
      }

      .st70 {
        stroke-dasharray: 3.49 2.33 3.49 2.33 3.49 2.33;
      }

      .st71 {
        stroke-dasharray: 3.35 2.24 3.35 2.24;
      }

      .st72 {
        stroke-dasharray: 3.18 2.12 3.18 2.12;
      }

      .st73 {
        stroke-dasharray: 3.04 2.03 3.04 2.03;
      }

      .st74 {
        stroke-dasharray: 3.18 2.12 3.18 2.12 3.18 2.12;
      }

      .st75 {
        stroke-dasharray: 3.09 2.06 3.09 2.06;
      }

      .st76 {
        stroke-dasharray: 2.1 1.4 2.1 1.4 2.1 1.4;
      }

      .st77 {
        stroke-dasharray: 3.15 2.1 3.15 2.1;
      }
    </style>
    <radialGradient id="_무제_그라디언트_3" data-name="무제 그라디언트 3" cx="807.71" cy="-829.6" fx="807.71" fy="-829.6" r="9.65" gradientUnits="userSpaceOnUse">
      <stop offset=".08" stop-color="#fff"/>
      <stop offset="1" stop-color="#000"/>
    </radialGradient>
    <radialGradient id="_무제_그라디언트_31" data-name="무제 그라디언트 3" cy="-897.72" fy="-897.72" r="9.65" xlink:href="#_무제_그라디언트_3"/>
    <radialGradient id="_무제_그라디언트_32" data-name="무제 그라디언트 3" cy="-938.61" fy="-938.61" xlink:href="#_무제_그라디언트_3"/>
  </defs>
  <rect class="st85" x="7.79" y="18.43" width="53.16" height="17.32" rx="3.57" ry="3.57"/>
  <path class="st93" d="M18.64,30.97h-9.77v-.82h2.6v-2.59h.92v2.59h2.8v-2.59h.91v2.59h2.53v.82ZM17.76,27.2h-8.04v-.8h1.49c0-.3-.01-.59-.02-.86,0-.27,0-.54,0-.8,0-.26-.01-.53-.02-.8,0-.27,0-.56,0-.88h-1.19v-.8h7.54v.8h-1.19c0,.31-.01.6-.02.88,0,.27,0,.54-.02.8,0,.26,0,.53-.01.8,0,.27-.01.56-.01.86h1.5v.8ZM15.34,26.4c0-.3,0-.59,0-.86,0-.27.01-.54.02-.8,0-.26,0-.53,0-.8,0-.27.01-.56.02-.88h-3.28c0,.31,0,.6,0,.88,0,.27.01.54.02.8,0,.26,0,.53,0,.8,0,.27,0,.56.02.86h3.18Z"/>
  <path class="st93" d="M29.09,28.24h-9.74v-.8s4.4,0,4.4,0v-1.36h-2.87c-.1,0-.16-.02-.2-.05-.04-.04-.05-.1-.05-.2v-4.06h.9v1.31h5.35v-1.31h.92v4.06c0,.1-.02.16-.05.2-.04.04-.1.05-.2.05h-2.84v1.36h4.38v.8ZM28.17,32.08h-7.26c-.1,0-.16-.02-.2-.05-.04-.04-.05-.1-.05-.2v-2.72h.92v2.16h6.59v.82ZM26.88,25.29v-1.43h-5.35v1.43h5.35Z"/>
  <path class="st93" d="M39.56,27.26h-9.74v-.83h3.89v-2.24h.96v2.24h4.9v.83ZM34.68,32.5c-1.24,0-2.19-.2-2.84-.61-.66-.4-1-.91-1-1.52s.33-1.12,1-1.52c.66-.41,1.6-.61,2.84-.61s2.17.2,2.83.61c.66.41,1,.92,1,1.52s-.33,1.12-1,1.52c-.66.41-1.61.61-2.83.61ZM37.12,25.63c.1-.48.17-.94.23-1.39.06-.45.1-.93.12-1.44h-6.53v-.82h7.25c.1,0,.16.02.2.05.04.04.05.1.05.2-.02.7-.08,1.33-.16,1.87-.08.54-.16,1.05-.25,1.53h-.91ZM34.68,31.75c.82,0,1.48-.12,2-.36.53-.22.79-.57.79-1.03,0-.43-.26-.76-.79-1-.52-.24-1.19-.36-2-.36s-1.51.12-2.02.35c-.51.24-.76.57-.76,1,0,.46.25.8.76,1.04.51.24,1.18.35,2.02.35Z"/>
  <path class="st93" d="M40.36,27.51c1.25-.42,2.27-1.02,3.06-1.8.8-.78,1.27-1.68,1.42-2.72h-3.78v-.83h4.58c.1,0,.16.02.2.05.04.04.05.1.05.2-.06.73-.23,1.39-.49,1.98-.26.59-.61,1.13-1.04,1.61-.44.5-.94.94-1.5,1.3-.56.36-1.18.67-1.86.92l-.65-.71ZM49.16,32.08h-6.74c-.1,0-.16-.02-.2-.05s-.05-.1-.05-.2v-3.17h.95v2.6h6.05v.82ZM48.81,29.44h-.92v-7.78h.92v3.2h1.48v.84h-1.48v3.73Z"/>
  <path d="M57.84,29.65c-.2.29-.43.54-.69.75-.29.22-.59.39-.89.51-.31.12-.61.18-.91.18-.25,0-.47-.02-.67-.06-.2-.04-.37-.09-.51-.17-.15-.09-.27-.18-.36-.27-.11-.09-.19-.18-.23-.27l-.5.54-.08.07c-.05.05-.08.09-.11.11-.04.04-.08.05-.13.05-.06,0-.08-.03-.08-.09,0-.03,0-.08.03-.16h.01s.74-2.22.74-2.22v-.02c.03-.09.05-.15.08-.18.04-.04.09-.06.16-.06.07,0,.09.04.09.12,0,.05-.03.13-.07.25l-.03.09c-.03.16-.05.31-.05.45,0,.16.03.3.06.43.03.16.11.31.22.45.1.13.22.24.36.33.16.09.34.16.55.21.19.04.4.06.64.06.21,0,.42-.04.64-.13.22-.09.42-.21.62-.37.17-.14.32-.31.46-.51.12-.18.22-.37.28-.56.07-.2.1-.38.1-.55,0-.17-.03-.33-.09-.47-.08-.17-.18-.3-.31-.38-.1-.07-.25-.13-.45-.18l-.6-.17-.74-.19c-.38-.13-.64-.39-.79-.78-.14-.38-.13-.79.01-1.24.09-.28.24-.55.43-.82.19-.26.41-.48.68-.68.28-.22.57-.38.86-.48.29-.11.59-.16.89-.16.36,0,.66.06.91.19.23.12.43.32.6.58l.6-.62v-.02c.05-.05.08-.08.1-.1.03-.02.06-.03.11-.03.05,0,.08.02.09.06,0,.03-.02.08-.04.15l-.02.05-.74,2.21-.02.06c-.02.07-.05.12-.07.14-.03.04-.07.06-.14.06-.06,0-.09-.05-.09-.14,0-.05.02-.15.05-.3l.04-.26c.01-.13.02-.26.01-.39-.01-.13-.03-.25-.06-.38-.04-.14-.09-.26-.14-.38-.08-.11-.16-.22-.27-.3-.11-.1-.25-.18-.42-.23-.17-.04-.36-.06-.59-.06-.21,0-.41.03-.61.1-.2.07-.4.18-.58.32-.17.13-.32.28-.46.46-.12.18-.22.37-.28.56-.11.33-.11.62,0,.88.12.25.33.42.64.52l1.31.33c.2.05.38.15.54.29.16.14.27.31.36.51.09.2.13.42.13.67,0,.24-.04.5-.13.78-.1.29-.24.57-.44.84Z"/>
</svg>
