<?xml version='1.0' encoding='UTF-8'?>
<svg xmlns="http://www.w3.org/2000/svg" xmlns:xlink="http://www.w3.org/1999/xlink" version="1.1" viewBox="92.6618 17.3118 55.3964 19.5564">
  <defs>
    <style>
      .st0, .st1, .st2, .st3, .st4, .st5, .st6, .st7, .st8, .st9, .st10, .st11, .st12, .st13, .st14, .st15, .st16, .st17, .st18, .st19, .st20, .st21, .st22, .st23, .st24, .st25, .st26, .st27, .st28, .st29, .st30, .st31, .st32, .st33, .st34, .st35, .st36, .st37, .st38, .st39, .st40, .st41, .st42, .st43, .st44, .st45, .st46, .st47, .st48, .st49, .st50, .st51, .st52, .st53, .st54, .st55, .st56, .st57, .st58, .st59, .st60, .st61, .st62, .st63, .st64, .st65, .st66, .st67, .st68, .st69, .st70, .st71, .st72, .st73, .st74, .st75, .st76, .st77 {
        fill: none;
      }

      .st0, .st1, .st2, .st3, .st5, .st8, .st9, .st12, .st13, .st14, .st15, .st16, .st78, .st17, .st18, .st20, .st21, .st22, .st23, .st25, .st26, .st30, .st31, .st32, .st34, .st35, .st79, .st39, .st40, .st41, .st42, .st43, .st44, .st45, .st46, .st48, .st49, .st51, .st53, .st55, .st57, .st58, .st80, .st59, .st60, .st81, .st64, .st82, .st65, .st66, .st69, .st70, .st73, .st76, .st77 {
        stroke-miterlimit: 10;
      }

      .st0, .st1, .st2, .st5, .st7, .st8, .st9, .st11, .st13, .st14, .st15, .st16, .st17, .st18, .st19, .st20, .st21, .st22, .st23, .st24, .st25, .st26, .st27, .st29, .st30, .st31, .st32, .st34, .st38, .st39, .st40, .st41, .st45, .st46, .st47, .st48, .st49, .st50, .st52, .st53, .st54, .st55, .st58, .st60, .st61, .st63, .st64, .st65, .st66, .st68, .st69, .st70, .st71, .st73, .st75, .st76, .st77 {
        stroke-width: .5px;
      }

      .st0, .st2, .st3, .st4, .st7, .st9, .st10, .st11, .st12, .st13, .st14, .st15, .st17, .st18, .st19, .st20, .st23, .st24, .st25, .st26, .st27, .st28, .st29, .st30, .st32, .st36, .st37, .st38, .st40, .st41, .st48, .st50, .st52, .st53, .st54, .st55, .st56, .st58, .st61, .st62, .st63, .st64, .st65, .st68, .st70, .st71, .st72, .st74, .st75 {
        stroke: #000;
      }

      .st1, .st5, .st6, .st8, .st16, .st78, .st21, .st22, .st33, .st34, .st35, .st79, .st39, .st42, .st45, .st49, .st80, .st59, .st60, .st81, .st82, .st66, .st67, .st69, .st73, .st76, .st77 {
        stroke: #231815;
      }

      .st1, .st19, .st35, .st65 {
        stroke-dasharray: 3 2 3 2 3 2;
      }

      .st2 {
        stroke-dasharray: 2.93 1.96 2.93 1.96 2.93 1.96;
      }

      .st4, .st6, .st7, .st10, .st11, .st19, .st24, .st27, .st28, .st29, .st33, .st36, .st37, .st38, .st47, .st50, .st52, .st54, .st61, .st62, .st63, .st68, .st71, .st72, .st74, .st75 {
        stroke-linejoin: round;
      }

      .st4, .st10, .st12, .st28, .st33, .st79, .st37, .st42, .st43, .st44, .st51, .st62, .st82, .st72, .st74 {
        stroke-width: .75px;
      }

      .st5 {
        stroke-dasharray: 2.11 1.4 2.11 1.4 2.11 1.4;
      }

      .st7 {
        stroke-dasharray: 3.33 2.22 3.33 2.22;
      }

      .st8 {
        stroke-dasharray: 2.1 1.4 2.1 1.4;
      }

      .st9 {
        stroke-dasharray: 1 1;
      }

      .st10 {
        stroke-dasharray: 2.15 1.44 2.15 1.44;
      }

      .st11 {
        stroke-dasharray: 2.77 1.84 2.77 1.84 2.77 1.84;
      }

      .st13 {
        stroke-dasharray: 3.17 2.12 3.17 2.12 3.17 2.12;
      }

      .st14 {
        stroke-dasharray: 3.2 2.13 3.2 2.13 3.2 2.13;
      }

      .st15 {
        stroke-dasharray: 3.2 2.13 3.2 2.13;
      }

      .st16 {
        stroke-dasharray: 3.15 2.1 3.15 2.1 3.15 2.1;
      }

      .st78 {
        fill: url(#_무제_그라디언트_32);
      }

      .st17 {
        stroke-dasharray: 2.86 1.91 2.86 1.91 2.86 1.91;
      }

      .st83 {
        fill: #e1e3ce;
      }

      .st84 {
        fill: #fcf9ed;
      }

      .st85, .st82 {
        fill: #fff;
      }

      .st18 {
        stroke-dasharray: 3.34 2.23 3.34 2.23;
      }

      .st20 {
        stroke-dasharray: 3.24 2.16 3.24 2.16 3.24 2.16;
      }

      .st21 {
        stroke-dasharray: 2.97 1.98 2.97 1.98 2.97 1.98;
      }

      .st23 {
        stroke-dasharray: 2.86 1.91 2.86 1.91;
      }

      .st24 {
        stroke-dasharray: 2.86 1.91 2.86 1.91;
      }

      .st25 {
        stroke-dasharray: 3.24 2.16 3.24 2.16;
      }

      .st86 {
        fill: #f4f8e0;
      }

      .st26 {
        stroke-dasharray: 2.43 1.62 2.43 1.62;
      }

      .st87 {
        font-size: 8.99px;
      }

      .st87, .st88, .st89 {
        font-family: HyhwpEQ, HyhwpEQ;
      }

      .st28 {
        stroke-dasharray: 2.15 1.44 2.15 1.44 2.15 1.44;
      }

      .st29 {
        stroke-dasharray: 3.35 2.24 3.35 2.24 3.35 2.24;
      }

      .st30 {
        stroke-dasharray: 3.33 2.22 3.33 2.22;
      }

      .st31 {
        stroke: #e2cae0;
      }

      .st32 {
        stroke-dasharray: 3.34 2.23 3.34 2.23 3.34 2.23;
      }

      .st90 {
        fill: #e2cae0;
      }

      .st91 {
        fill: #c7dccb;
      }

      .st34 {
        stroke-dasharray: 3.04 2.03 3.04 2.03 3.04 2.03;
      }

      .st92 {
        opacity: .3;
      }

      .st92, .st93 {
        fill: #231815;
      }

      .st94 {
        fill: #afd5e4;
      }

      .st79, .st95 {
        fill: #aeb6d9;
      }

      .st37 {
        stroke-dasharray: 2.76 1.84 2.76 1.84 2.76 1.84;
      }

      .st38 {
        stroke-dasharray: 1.96 1.31 1.96 1.31;
      }

      .st39 {
        stroke-dasharray: 2.11 1.4 2.11 1.4;
      }

      .st40 {
        stroke-dasharray: 3.2 2.13 3.2 2.13;
      }

      .st41 {
        stroke-dasharray: 2.43 1.62 2.43 1.62 2.43 1.62;
      }

      .st43 {
        stroke: #036eb8;
      }

      .st44 {
        stroke: #094;
      }

      .st96 {
        fill: #c9caca;
      }

      .st45 {
        stroke-dasharray: 3.15 2.1 3.15 2.1;
      }

      .st46 {
        stroke: #aeb6d9;
      }

      .st97 {
        opacity: .75;
      }

      .st97, .st98 {
        fill: #d1c8e3;
      }

      .st47 {
        stroke: #080103;
        stroke-linecap: round;
      }

      .st99 {
        fill: #080103;
      }

      .st48 {
        stroke-dasharray: 2.93 1.96 2.93 1.96;
      }

      .st49 {
        stroke-dasharray: 3.19 2.12 3.19 2.12 3.19 2.12;
      }

      .st50 {
        stroke-dasharray: 3.09 2.06 3.09 2.06 3.09 2.06;
      }

      .st51 {
        stroke: #ea5514;
      }

      .st52 {
        stroke-dasharray: 2.86 1.91 2.86 1.91 2.86 1.91;
      }

      .st53 {
        stroke-dasharray: 3.2 2.13 3.2 2.13 3.2 2.13;
      }

      .st54 {
        stroke-dasharray: 3.33 2.22 3.33 2.22 3.33 2.22;
      }

      .st55 {
        stroke-dasharray: 3.17 2.12 3.17 2.12;
      }

      .st56, .st67 {
        stroke-linejoin: bevel;
      }

      .st57 {
        stroke: #a3af7b;
      }

      .st58 {
        stroke-dasharray: 3.49 2.33 3.49 2.33;
      }

      .st80 {
        fill: url(#_무제_그라디언트_3);
      }

      .st60 {
        stroke-dasharray: 2.97 1.98 2.97 1.98;
      }

      .st100 {
        fill: #cddee2;
      }

      .st88 {
        font-size: 9px;
      }

      .st61 {
        stroke-dasharray: 3.02 2.01 3.02 2.01 3.02 2.01;
      }

      .st62 {
        stroke-dasharray: 2.76 1.84 2.76 1.84;
      }

      .st63 {
        stroke-dasharray: 3.02 2.01 3.02 2.01;
      }

      .st81 {
        fill: url(#_무제_그라디언트_31);
      }

      .st64 {
        stroke-dasharray: 3.33 2.22 3.33 2.22 3.33 2.22;
      }

      .st66 {
        stroke-dasharray: 3.19 2.12 3.19 2.12;
      }

      .st101 {
        fill: #e6cce2;
      }

      .st89 {
        font-size: 6.11px;
      }

      .st68 {
        stroke-dasharray: 2.77 1.84 2.77 1.84;
      }

      .st69 {
        stroke-dasharray: 3.15 2.1 3.15 2.1 3.15 2.1;
      }

      .st70 {
        stroke-dasharray: 3.49 2.33 3.49 2.33 3.49 2.33;
      }

      .st71 {
        stroke-dasharray: 3.35 2.24 3.35 2.24;
      }

      .st72 {
        stroke-dasharray: 3.18 2.12 3.18 2.12;
      }

      .st73 {
        stroke-dasharray: 3.04 2.03 3.04 2.03;
      }

      .st74 {
        stroke-dasharray: 3.18 2.12 3.18 2.12 3.18 2.12;
      }

      .st75 {
        stroke-dasharray: 3.09 2.06 3.09 2.06;
      }

      .st76 {
        stroke-dasharray: 2.1 1.4 2.1 1.4 2.1 1.4;
      }

      .st77 {
        stroke-dasharray: 3.15 2.1 3.15 2.1;
      }
    </style>
    <radialGradient id="_무제_그라디언트_3" data-name="무제 그라디언트 3" cx="807.71" cy="-829.6" fx="807.71" fy="-829.6" r="9.65" gradientUnits="userSpaceOnUse">
      <stop offset=".08" stop-color="#fff"/>
      <stop offset="1" stop-color="#000"/>
    </radialGradient>
    <radialGradient id="_무제_그라디언트_31" data-name="무제 그라디언트 3" cy="-897.72" fy="-897.72" r="9.65" xlink:href="#_무제_그라디언트_3"/>
    <radialGradient id="_무제_그라디언트_32" data-name="무제 그라디언트 3" cy="-938.61" fy="-938.61" xlink:href="#_무제_그라디언트_3"/>
  </defs>
  <rect class="st85" x="93.78" y="18.43" width="53.16" height="17.32" rx="3.57" ry="3.57"/>
  <path class="st93" d="M100.96,28.43c-.26.05-.56.09-.89.12-.33.03-.68.06-1.04.08-.36.02-.72.04-1.09.05-.36.01-.71.01-1.05,0h-3.04v-.77h2.98v-.88c-.31-.02-.6-.08-.86-.16-.26-.08-.48-.19-.67-.31s-.33-.27-.44-.44-.16-.35-.16-.54c0-.22.06-.41.19-.59.12-.18.3-.33.53-.46s.5-.23.82-.29c.32-.07.67-.1,1.06-.1s.73.03,1.05.1c.32.07.59.17.82.29s.41.28.53.46.19.38.19.59c0,.19-.05.37-.16.53s-.25.3-.43.43c-.18.13-.4.23-.65.32s-.53.14-.83.17v.88c.2,0,.44,0,.71-.02.28-.02.56-.04.86-.06.3-.02.58-.05.86-.08.28-.03.51-.06.7-.09v.76ZM100.18,23.65h-5.87v-.68h5.87v.68ZM102.26,32.46h-.96v-2.03h-6.13v-.77h6.84c.1,0,.16.02.2.05s.05.1.05.2v2.54ZM98.45,26.21c.29-.14.43-.34.43-.58,0-.26-.14-.46-.43-.61-.28-.15-.67-.22-1.16-.22s-.87.07-1.16.22c-.28.15-.43.35-.43.61,0,.24.14.43.43.57.28.14.67.21,1.16.21.45,0,.83-.07,1.15-.2ZM98.76,22.4h-2.98v-.68h2.98v.68ZM102.29,29.12h-.92v-7.36h.92v3.35h1.49v.84h-1.49v3.17Z"/>
  <path class="st93" d="M112.82,32.3h-7.13c-.1,0-.16-.02-.2-.05-.04-.04-.05-.1-.05-.2v-1.81c0-.1.02-.16.05-.2.04-.04.1-.05.2-.05h5.86v-.94h-6.11v-.7h1.37v-1.01h-2.66v-.71h9.73v.71h-2.62v1.01h1.04c.1,0,.16.02.2.05s.05.1.05.2v1.8c0,.1-.02.16-.05.2-.04.04-.1.05-.2.05h-5.86v.95h6.37v.7ZM112.74,25.84h-7.04c-.1,0-.16-.02-.2-.05-.04-.04-.05-.1-.05-.2v-1.75c0-.1.02-.16.05-.2.04-.04.1-.05.2-.05h5.8v-.9h-6.05v-.7h6.82c.1,0,.16.02.2.05.04.04.05.1.05.2v1.75c0,.1-.02.16-.05.2-.04.04-.1.05-.2.05h-5.81v.91h6.29v.68ZM110.32,28.35v-1.01h-2.57v1.01h2.57Z"/>
  <path class="st93" d="M123.48,29.54h-.95v-3.11h-2.34v1.06c0,.1-.02.16-.05.2-.04.04-.1.05-.2.05h-4.27c-.1,0-.16-.02-.19-.05-.03-.04-.05-.1-.05-.2v-5.35h.94v1.86h2.98v-1.86h.91v1.25h2.28v-1.61h.95v7.76ZM119.34,26.92v-2.11h-2.98v2.11h2.98ZM123.73,32.18h-6.9c-.1,0-.16-.02-.2-.05-.04-.04-.05-.1-.05-.2v-3.02h.97v2.46h6.18v.82ZM122.53,25.65v-1.48h-2.34v1.48h2.34Z"/>
  <path class="st93" d="M134.81,28.46h-4.34v3.96h-.97v-3.96h-4.42v-.82h9.73v.82ZM133.72,26.48c-.38-.1-.77-.22-1.15-.38-.38-.16-.75-.34-1.09-.56-.34-.22-.65-.46-.92-.72-.27-.26-.47-.56-.61-.88-.18.34-.4.64-.67.91-.27.27-.58.5-.91.7-.34.21-.69.39-1.06.54-.37.15-.74.28-1.13.38l-.66-.74c2.59-.62,3.89-1.68,3.89-3.16v-.56h1.06v.55c0,.43.11.82.32,1.16.22.34.5.64.86.91.36.26.77.49,1.24.67.46.18.94.32,1.43.42l-.6.76Z"/>
  <path d="M144.1,30.81h-1.53c-.3,0-.57.02-.81.04l.12-.34c.12,0,.22-.02.32-.04.1-.01.18-.04.25-.08.1-.05.17-.1.21-.14.04-.05.06-.11.03-.19l-.86-2.63-2.34,2.32c-.12.12-.18.21-.2.29-.03.09-.01.18.06.28.04.06.1.1.17.14.08.03.18.05.32.05l-.12.34c-.22-.02-.45-.04-.7-.04h-.71l-.74.02-.49.02.12-.34c.12,0,.25,0,.38-.02.11-.01.23-.03.34-.05.1-.04.19-.07.28-.1.08-.04.16-.07.24-.1.12-.07.23-.14.32-.22.08-.06.17-.14.27-.24l2.7-2.67-1-3.07c-.03-.08-.07-.14-.11-.19-.05-.06-.1-.1-.16-.12-.06-.03-.15-.05-.26-.06-.1,0-.23-.01-.38-.01h-.21l.11-.34c.2.01.44.02.7.02.16,0,.4.01.73.01h.26c.29,0,.52,0,.67-.01.25,0,.48,0,.69-.02l-.11.34c-.13,0-.24.01-.32.03-.11.02-.19.05-.26.1-.1.04-.17.09-.22.15-.05.07-.06.15-.01.23l.72,2.12,1.88-1.87c.12-.11.18-.21.2-.31.02-.09-.01-.18-.08-.27-.04-.06-.11-.1-.18-.13-.07-.03-.16-.04-.26-.04l.11-.34c.2.01.43.02.69.02.16,0,.39.01.71.01l1.24-.03-.11.34c-.2,0-.39.02-.58.05-.21.04-.4.1-.57.18-.13.06-.26.12-.37.2-.11.07-.22.17-.33.28l-2.25,2.22,1.15,3.52c.02.08.06.15.1.2.05.04.11.08.18.11.06.02.14.04.24.05.1.01.23.02.38.02h.2l-.12.34c-.2-.02-.43-.04-.7-.04Z"/>
</svg>
