<?xml version='1.0' encoding='UTF-8'?>
<svg xmlns="http://www.w3.org/2000/svg" xmlns:xlink="http://www.w3.org/1999/xlink" version="1.1" viewBox="178.6518 17.3118 55.3964 19.5564">
  <defs>
    <style>
      .st0, .st1, .st2, .st3, .st4, .st5, .st6, .st7, .st8, .st9, .st10, .st11, .st12, .st13, .st14, .st15, .st16, .st17, .st18, .st19, .st20, .st21, .st22, .st23, .st24, .st25, .st26, .st27, .st28, .st29, .st30, .st31, .st32, .st33, .st34, .st35, .st36, .st37, .st38, .st39, .st40, .st41, .st42, .st43, .st44, .st45, .st46, .st47, .st48, .st49, .st50, .st51, .st52, .st53, .st54, .st55, .st56, .st57, .st58, .st59, .st60, .st61, .st62, .st63, .st64, .st65, .st66, .st67, .st68, .st69, .st70, .st71, .st72, .st73, .st74, .st75, .st76, .st77 {
        fill: none;
      }

      .st0, .st1, .st2, .st3, .st5, .st8, .st9, .st12, .st13, .st14, .st15, .st16, .st78, .st17, .st18, .st20, .st21, .st22, .st23, .st25, .st26, .st30, .st31, .st32, .st34, .st35, .st79, .st39, .st40, .st41, .st42, .st43, .st44, .st45, .st46, .st48, .st49, .st51, .st53, .st55, .st57, .st58, .st80, .st59, .st60, .st81, .st64, .st82, .st65, .st66, .st69, .st70, .st73, .st76, .st77 {
        stroke-miterlimit: 10;
      }

      .st0, .st1, .st2, .st5, .st7, .st8, .st9, .st11, .st13, .st14, .st15, .st16, .st17, .st18, .st19, .st20, .st21, .st22, .st23, .st24, .st25, .st26, .st27, .st29, .st30, .st31, .st32, .st34, .st38, .st39, .st40, .st41, .st45, .st46, .st47, .st48, .st49, .st50, .st52, .st53, .st54, .st55, .st58, .st60, .st61, .st63, .st64, .st65, .st66, .st68, .st69, .st70, .st71, .st73, .st75, .st76, .st77 {
        stroke-width: .5px;
      }

      .st0, .st2, .st3, .st4, .st7, .st9, .st10, .st11, .st12, .st13, .st14, .st15, .st17, .st18, .st19, .st20, .st23, .st24, .st25, .st26, .st27, .st28, .st29, .st30, .st32, .st36, .st37, .st38, .st40, .st41, .st48, .st50, .st52, .st53, .st54, .st55, .st56, .st58, .st61, .st62, .st63, .st64, .st65, .st68, .st70, .st71, .st72, .st74, .st75 {
        stroke: #000;
      }

      .st1, .st5, .st6, .st8, .st16, .st78, .st21, .st22, .st33, .st34, .st35, .st79, .st39, .st42, .st45, .st49, .st80, .st59, .st60, .st81, .st82, .st66, .st67, .st69, .st73, .st76, .st77 {
        stroke: #231815;
      }

      .st1, .st19, .st35, .st65 {
        stroke-dasharray: 3 2 3 2 3 2;
      }

      .st2 {
        stroke-dasharray: 2.93 1.96 2.93 1.96 2.93 1.96;
      }

      .st4, .st6, .st7, .st10, .st11, .st19, .st24, .st27, .st28, .st29, .st33, .st36, .st37, .st38, .st47, .st50, .st52, .st54, .st61, .st62, .st63, .st68, .st71, .st72, .st74, .st75 {
        stroke-linejoin: round;
      }

      .st4, .st10, .st12, .st28, .st33, .st79, .st37, .st42, .st43, .st44, .st51, .st62, .st82, .st72, .st74 {
        stroke-width: .75px;
      }

      .st5 {
        stroke-dasharray: 2.11 1.4 2.11 1.4 2.11 1.4;
      }

      .st7 {
        stroke-dasharray: 3.33 2.22 3.33 2.22;
      }

      .st8 {
        stroke-dasharray: 2.1 1.4 2.1 1.4;
      }

      .st9 {
        stroke-dasharray: 1 1;
      }

      .st10 {
        stroke-dasharray: 2.15 1.44 2.15 1.44;
      }

      .st11 {
        stroke-dasharray: 2.77 1.84 2.77 1.84 2.77 1.84;
      }

      .st13 {
        stroke-dasharray: 3.17 2.12 3.17 2.12 3.17 2.12;
      }

      .st14 {
        stroke-dasharray: 3.2 2.13 3.2 2.13 3.2 2.13;
      }

      .st15 {
        stroke-dasharray: 3.2 2.13 3.2 2.13;
      }

      .st16 {
        stroke-dasharray: 3.15 2.1 3.15 2.1 3.15 2.1;
      }

      .st78 {
        fill: url(#_무제_그라디언트_32);
      }

      .st17 {
        stroke-dasharray: 2.86 1.91 2.86 1.91 2.86 1.91;
      }

      .st83 {
        fill: #e1e3ce;
      }

      .st84 {
        fill: #fcf9ed;
      }

      .st85, .st82 {
        fill: #fff;
      }

      .st18 {
        stroke-dasharray: 3.34 2.23 3.34 2.23;
      }

      .st20 {
        stroke-dasharray: 3.24 2.16 3.24 2.16 3.24 2.16;
      }

      .st21 {
        stroke-dasharray: 2.97 1.98 2.97 1.98 2.97 1.98;
      }

      .st23 {
        stroke-dasharray: 2.86 1.91 2.86 1.91;
      }

      .st24 {
        stroke-dasharray: 2.86 1.91 2.86 1.91;
      }

      .st25 {
        stroke-dasharray: 3.24 2.16 3.24 2.16;
      }

      .st86 {
        fill: #f4f8e0;
      }

      .st26 {
        stroke-dasharray: 2.43 1.62 2.43 1.62;
      }

      .st87 {
        font-size: 8.99px;
      }

      .st87, .st88, .st89 {
        font-family: HyhwpEQ, HyhwpEQ;
      }

      .st28 {
        stroke-dasharray: 2.15 1.44 2.15 1.44 2.15 1.44;
      }

      .st29 {
        stroke-dasharray: 3.35 2.24 3.35 2.24 3.35 2.24;
      }

      .st30 {
        stroke-dasharray: 3.33 2.22 3.33 2.22;
      }

      .st31 {
        stroke: #e2cae0;
      }

      .st32 {
        stroke-dasharray: 3.34 2.23 3.34 2.23 3.34 2.23;
      }

      .st90 {
        fill: #e2cae0;
      }

      .st91 {
        fill: #c7dccb;
      }

      .st34 {
        stroke-dasharray: 3.04 2.03 3.04 2.03 3.04 2.03;
      }

      .st92 {
        opacity: .3;
      }

      .st92, .st93 {
        fill: #231815;
      }

      .st94 {
        fill: #afd5e4;
      }

      .st79, .st95 {
        fill: #aeb6d9;
      }

      .st37 {
        stroke-dasharray: 2.76 1.84 2.76 1.84 2.76 1.84;
      }

      .st38 {
        stroke-dasharray: 1.96 1.31 1.96 1.31;
      }

      .st39 {
        stroke-dasharray: 2.11 1.4 2.11 1.4;
      }

      .st40 {
        stroke-dasharray: 3.2 2.13 3.2 2.13;
      }

      .st41 {
        stroke-dasharray: 2.43 1.62 2.43 1.62 2.43 1.62;
      }

      .st43 {
        stroke: #036eb8;
      }

      .st44 {
        stroke: #094;
      }

      .st96 {
        fill: #c9caca;
      }

      .st45 {
        stroke-dasharray: 3.15 2.1 3.15 2.1;
      }

      .st46 {
        stroke: #aeb6d9;
      }

      .st97 {
        opacity: .75;
      }

      .st97, .st98 {
        fill: #d1c8e3;
      }

      .st47 {
        stroke: #080103;
        stroke-linecap: round;
      }

      .st99 {
        fill: #080103;
      }

      .st48 {
        stroke-dasharray: 2.93 1.96 2.93 1.96;
      }

      .st49 {
        stroke-dasharray: 3.19 2.12 3.19 2.12 3.19 2.12;
      }

      .st50 {
        stroke-dasharray: 3.09 2.06 3.09 2.06 3.09 2.06;
      }

      .st51 {
        stroke: #ea5514;
      }

      .st52 {
        stroke-dasharray: 2.86 1.91 2.86 1.91 2.86 1.91;
      }

      .st53 {
        stroke-dasharray: 3.2 2.13 3.2 2.13 3.2 2.13;
      }

      .st54 {
        stroke-dasharray: 3.33 2.22 3.33 2.22 3.33 2.22;
      }

      .st55 {
        stroke-dasharray: 3.17 2.12 3.17 2.12;
      }

      .st56, .st67 {
        stroke-linejoin: bevel;
      }

      .st57 {
        stroke: #a3af7b;
      }

      .st58 {
        stroke-dasharray: 3.49 2.33 3.49 2.33;
      }

      .st80 {
        fill: url(#_무제_그라디언트_3);
      }

      .st60 {
        stroke-dasharray: 2.97 1.98 2.97 1.98;
      }

      .st100 {
        fill: #cddee2;
      }

      .st88 {
        font-size: 9px;
      }

      .st61 {
        stroke-dasharray: 3.02 2.01 3.02 2.01 3.02 2.01;
      }

      .st62 {
        stroke-dasharray: 2.76 1.84 2.76 1.84;
      }

      .st63 {
        stroke-dasharray: 3.02 2.01 3.02 2.01;
      }

      .st81 {
        fill: url(#_무제_그라디언트_31);
      }

      .st64 {
        stroke-dasharray: 3.33 2.22 3.33 2.22 3.33 2.22;
      }

      .st66 {
        stroke-dasharray: 3.19 2.12 3.19 2.12;
      }

      .st101 {
        fill: #e6cce2;
      }

      .st89 {
        font-size: 6.11px;
      }

      .st68 {
        stroke-dasharray: 2.77 1.84 2.77 1.84;
      }

      .st69 {
        stroke-dasharray: 3.15 2.1 3.15 2.1 3.15 2.1;
      }

      .st70 {
        stroke-dasharray: 3.49 2.33 3.49 2.33 3.49 2.33;
      }

      .st71 {
        stroke-dasharray: 3.35 2.24 3.35 2.24;
      }

      .st72 {
        stroke-dasharray: 3.18 2.12 3.18 2.12;
      }

      .st73 {
        stroke-dasharray: 3.04 2.03 3.04 2.03;
      }

      .st74 {
        stroke-dasharray: 3.18 2.12 3.18 2.12 3.18 2.12;
      }

      .st75 {
        stroke-dasharray: 3.09 2.06 3.09 2.06;
      }

      .st76 {
        stroke-dasharray: 2.1 1.4 2.1 1.4 2.1 1.4;
      }

      .st77 {
        stroke-dasharray: 3.15 2.1 3.15 2.1;
      }
    </style>
    <radialGradient id="_무제_그라디언트_3" data-name="무제 그라디언트 3" cx="807.71" cy="-829.6" fx="807.71" fy="-829.6" r="9.65" gradientUnits="userSpaceOnUse">
      <stop offset=".08" stop-color="#fff"/>
      <stop offset="1" stop-color="#000"/>
    </radialGradient>
    <radialGradient id="_무제_그라디언트_31" data-name="무제 그라디언트 3" cy="-897.72" fy="-897.72" r="9.65" xlink:href="#_무제_그라디언트_3"/>
    <radialGradient id="_무제_그라디언트_32" data-name="무제 그라디언트 3" cy="-938.61" fy="-938.61" xlink:href="#_무제_그라디언트_3"/>
  </defs>
  <rect class="st85" x="179.77" y="18.43" width="53.16" height="17.32" rx="3.57" ry="3.57"/>
  <path d="M190.21,25.47c-.42.38-.98.57-1.66.57h-1.8v2.65c0,.28.08.48.23.6.17.14.47.2.91.2v.28h-2.88v-.28c.39,0,.66-.07.82-.2.15-.12.23-.32.23-.6v-5.86c0-.27-.08-.46-.23-.56s-.42-.15-.82-.15v-.28h3.63c.63,0,1.16.17,1.58.52.45.37.67.87.67,1.48,0,.69-.23,1.23-.68,1.64ZM189.68,22.63c-.33-.34-.77-.52-1.3-.52h-.85c-.28,0-.48.05-.59.15-.12.11-.18.29-.18.56v2.93h1.62c.54,0,.98-.21,1.31-.62.3-.37.45-.81.45-1.3s-.15-.87-.45-1.2Z"/>
  <path d="M194.07,22.02c-.23.5-.41,1.04-.53,1.6-.14.53-.23,1.09-.29,1.69-.06.56-.09,1.14-.09,1.76s.02,1.15.06,1.67c.06.57.15,1.12.27,1.63.14.59.31,1.13.53,1.63.24.53.52,1,.84,1.42.13.16.18.29.15.38-.03.09-.13.05-.3-.12-.28-.26-.56-.63-.84-1.1-.26-.42-.47-.85-.64-1.28-.25-.64-.43-1.34-.56-2.08-.11-.69-.16-1.4-.16-2.14s.05-1.45.16-2.12c.11-.71.29-1.38.52-2.01.16-.44.37-.89.64-1.34.3-.5.59-.88.86-1.14.16-.14.26-.19.32-.13.06.05.02.16-.12.32-.33.41-.61.86-.84,1.36Z"/>
  <path d="M202.47,29.69h-1.53c-.3,0-.57.02-.81.04l.12-.34c.12,0,.22-.02.32-.04.1-.01.18-.04.25-.08.1-.05.17-.1.21-.14.04-.05.06-.11.03-.19l-.86-2.63-2.34,2.32c-.12.12-.18.21-.2.29-.03.09-.01.18.06.28.04.06.1.1.17.14.08.03.18.05.32.05l-.12.34c-.22-.02-.45-.04-.7-.04h-.71l-.74.02-.49.02.12-.34c.12,0,.25,0,.38-.02.11-.01.23-.03.34-.05.1-.04.19-.07.28-.1.08-.04.16-.07.24-.1.12-.07.23-.14.32-.22.08-.06.17-.14.27-.24l2.7-2.67-1-3.07c-.03-.08-.07-.14-.11-.19-.05-.06-.1-.1-.16-.12-.06-.03-.15-.05-.26-.06-.1,0-.23-.01-.38-.01h-.21l.11-.34c.2.01.44.02.7.02.16,0,.4.01.73.01h.26c.29,0,.52,0,.67-.01.25,0,.48,0,.69-.02l-.11.34c-.13,0-.24.01-.32.03-.11.02-.19.05-.26.1-.1.04-.17.09-.22.15-.05.07-.06.15-.01.23l.72,2.12,1.88-1.87c.12-.11.18-.21.2-.31.02-.09-.01-.18-.08-.27-.04-.06-.11-.1-.18-.13-.07-.03-.16-.04-.26-.04l.11-.34c.2.01.43.02.69.02.16,0,.39.01.71.01l1.24-.03-.11.34c-.2,0-.39.02-.58.05-.21.04-.4.1-.57.18-.13.06-.26.12-.37.2-.11.07-.22.17-.33.28l-2.25,2.22,1.15,3.52c.02.08.06.15.1.2.05.04.11.08.18.11.06.02.14.04.24.05.1.01.23.02.38.02h.2l-.12.34c-.2-.02-.43-.04-.7-.04Z"/>
  <path d="M213.54,25.34s-.13.03-.25.03h-6.61c-.12,0-.21-.01-.26-.03-.07-.03-.11-.09-.11-.19s.04-.17.12-.19c.05-.01.14-.02.26-.02h6.58c.11,0,.2,0,.25.02.09.03.13.09.13.19,0,.09-.04.16-.12.19ZM213.54,27.47s-.13.03-.25.03h-6.61c-.12,0-.21-.01-.26-.03-.07-.03-.11-.09-.11-.19s.04-.17.12-.19c.05-.01.14-.02.26-.02h6.58c.11,0,.2,0,.25.02.09.03.13.09.13.19,0,.09-.04.16-.12.19Z"/>
  <path d="M221.91,26.02c-.12.13-.26.19-.42.19-.13,0-.23-.04-.31-.11s-.12-.17-.12-.28c0-.14.05-.27.16-.39.1-.11.23-.18.38-.2-.08-.06-.17-.1-.27-.12-.09-.01-.18-.02-.28-.02-.29,0-.55.15-.75.44-.15.22-.27.51-.34.86l-.51,2.08c-.04.18-.06.33-.05.46,0,.17.05.31.14.44.04.06.1.12.18.16.09.04.18.06.28.06.12,0,.25-.03.39-.09.11-.05.23-.11.34-.19.17-.14.31-.3.42-.48.11-.17.21-.37.29-.59v-.03c.03-.08.05-.13.08-.15.03-.04.08-.05.15-.03.06.01.08.06.08.14,0,.05-.03.13-.06.24-.1.24-.23.46-.38.66-.17.22-.35.41-.56.55-.11.07-.24.13-.37.16-.12.04-.25.06-.4.06-.17,0-.32-.03-.45-.08-.13-.04-.24-.11-.33-.19-.11-.09-.19-.18-.26-.27-.06-.1-.11-.2-.14-.3-.14.25-.31.45-.48.59-.22.17-.44.25-.68.25-.27,0-.5-.06-.69-.17-.23-.13-.34-.32-.34-.56,0-.17.06-.32.17-.45.11-.12.26-.18.43-.18.11,0,.21.03.29.1.08.07.12.17.12.29,0,.14-.05.27-.16.39-.09.1-.21.17-.36.2.07.05.16.09.26.11.09.03.18.04.29.04.27,0,.5-.13.69-.4.15-.2.27-.45.36-.75l.45-1.77h0c.06-.28.11-.48.13-.64.04-.27.02-.47-.04-.61-.05-.11-.12-.2-.22-.26-.09-.06-.2-.09-.32-.09-.13,0-.26.03-.39.08-.12.04-.24.11-.34.19-.17.13-.32.3-.45.52-.12.2-.22.42-.29.66-.02.05-.05.09-.09.11-.04.01-.08.01-.13,0-.06-.01-.08-.08-.05-.18.01-.06.04-.15.09-.26l.02-.03c.08-.21.2-.41.37-.6.16-.19.34-.36.54-.48.11-.08.23-.14.36-.18.11-.03.25-.04.4-.04.29,0,.54.07.74.22s.36.35.45.61c.1-.24.25-.43.46-.59.22-.16.45-.24.7-.24s.48.05.67.15c.24.13.36.32.36.57,0,.17-.06.31-.17.44Z"/>
  <path d="M224.26,32.15c-.08.17-.16.3-.23.38-.08.08-.16.15-.25.2-.1.05-.2.08-.3.08-.09,0-.18-.01-.25-.04-.07-.03-.14-.07-.19-.12-.1-.1-.15-.22-.17-.35-.01-.12,0-.24.05-.38l.29-.79c.08-.2.14-.35.17-.45.06-.16.12-.31.17-.44h0c.05-.17.07-.3.07-.38,0-.16-.06-.24-.18-.24-.06,0-.13.01-.2.04-.07.03-.13.08-.19.15-.07.06-.14.15-.2.28-.06.12-.11.27-.17.45h0c0,.06-.02.08-.04.09-.01.02-.04.04-.07.04-.05,0-.08-.02-.09-.05,0-.02,0-.05,0-.1v-.02c.04-.13.09-.27.16-.41.08-.15.16-.27.25-.36.08-.09.16-.15.25-.2.1-.05.21-.07.32-.07.09,0,.17.01.24.04.07.02.14.07.2.13.08.08.14.18.16.3.02.1.01.21-.01.33-.04.14-.1.3-.17.47-.04.1-.1.26-.19.46-.09.21-.15.36-.19.46-.07.17-.12.33-.16.48-.04.12-.05.22-.04.31,0,.14.06.21.17.21.09,0,.18-.03.27-.09.07-.05.14-.12.2-.2.06-.09.12-.19.17-.31.03-.07.08-.18.12-.32v-.03c.02-.05.04-.08.05-.09.01-.01.05-.01.11,0,.03,0,.04.02.04.07,0,.03-.01.06-.02.09-.04.12-.1.25-.16.38ZM224.24,28.36c-.08.08-.17.12-.27.12-.08,0-.15-.02-.2-.07-.05-.05-.08-.12-.08-.2,0-.1.04-.19.12-.28.09-.08.18-.12.28-.12.07,0,.14.02.19.07s.08.11.08.2c0,.1-.04.19-.12.27Z"/>
  <path d="M227.52,29.23c-.12.75-.31,1.44-.56,2.08-.18.43-.39.86-.64,1.28-.28.48-.56.84-.83,1.1-.18.17-.28.2-.31.11-.03-.09.02-.22.15-.38.33-.41.61-.87.84-1.4.21-.49.39-1.03.52-1.6.12-.53.21-1.08.28-1.67.06-.54.09-1.09.09-1.65,0-.61-.03-1.19-.1-1.76-.06-.6-.15-1.16-.28-1.69-.14-.56-.33-1.09-.56-1.59-.24-.52-.52-.98-.83-1.38-.14-.17-.18-.28-.13-.33.05-.05.16,0,.32.13.27.26.56.63.85,1.14.27.46.49.9.65,1.34.23.63.41,1.31.52,2.02.11.67.17,1.38.17,2.12s-.06,1.46-.17,2.14Z"/>
</svg>
