<?xml version='1.0' encoding='UTF-8'?>
<svg xmlns="http://www.w3.org/2000/svg" xmlns:xlink="http://www.w3.org/1999/xlink" version="1.1" viewBox="733.516 -79.194 172.848 33.098">
  <defs>
    <style>
      .st0, .st1, .st2, .st3, .st4, .st5, .st6, .st7, .st8, .st9, .st10, .st11, .st12, .st13, .st14, .st15, .st16, .st17, .st18, .st19, .st20, .st21, .st22, .st23, .st24, .st25, .st26, .st27, .st28, .st29, .st30, .st31, .st32, .st33, .st34, .st35, .st36, .st37, .st38, .st39, .st40, .st41, .st42, .st43, .st44, .st45, .st46, .st47, .st48, .st49, .st50, .st51, .st52, .st53, .st54, .st55, .st56, .st57, .st58, .st59, .st60, .st61, .st62, .st63, .st64, .st65, .st66, .st67, .st68, .st69, .st70, .st71, .st72, .st73, .st74, .st75, .st76, .st77 {
        fill: none;
      }

      .st0, .st1, .st2, .st3, .st5, .st8, .st9, .st12, .st13, .st14, .st15, .st16, .st78, .st17, .st18, .st20, .st21, .st22, .st23, .st25, .st26, .st30, .st31, .st32, .st34, .st35, .st79, .st39, .st40, .st41, .st42, .st43, .st44, .st45, .st46, .st48, .st49, .st51, .st53, .st55, .st57, .st58, .st80, .st59, .st60, .st81, .st64, .st82, .st65, .st66, .st69, .st70, .st73, .st76, .st77 {
        stroke-miterlimit: 10;
      }

      .st0, .st1, .st2, .st5, .st7, .st8, .st9, .st11, .st13, .st14, .st15, .st16, .st17, .st18, .st19, .st20, .st21, .st22, .st23, .st24, .st25, .st26, .st27, .st29, .st30, .st31, .st32, .st34, .st38, .st39, .st40, .st41, .st45, .st46, .st47, .st48, .st49, .st50, .st52, .st53, .st54, .st55, .st58, .st60, .st61, .st63, .st64, .st65, .st66, .st68, .st69, .st70, .st71, .st73, .st75, .st76, .st77 {
        stroke-width: .5px;
      }

      .st0, .st2, .st3, .st4, .st7, .st9, .st10, .st11, .st12, .st13, .st14, .st15, .st17, .st18, .st19, .st20, .st23, .st24, .st25, .st26, .st27, .st28, .st29, .st30, .st32, .st36, .st37, .st38, .st40, .st41, .st48, .st50, .st52, .st53, .st54, .st55, .st56, .st58, .st61, .st62, .st63, .st64, .st65, .st68, .st70, .st71, .st72, .st74, .st75 {
        stroke: #000;
      }

      .st1, .st5, .st6, .st8, .st16, .st78, .st21, .st22, .st33, .st34, .st35, .st79, .st39, .st42, .st45, .st49, .st80, .st59, .st60, .st81, .st82, .st66, .st67, .st69, .st73, .st76, .st77 {
        stroke: #231815;
      }

      .st1, .st19, .st35, .st65 {
        stroke-dasharray: 3 2 3 2 3 2;
      }

      .st2 {
        stroke-dasharray: 2.93 1.96 2.93 1.96 2.93 1.96;
      }

      .st4, .st6, .st7, .st10, .st11, .st19, .st24, .st27, .st28, .st29, .st33, .st36, .st37, .st38, .st47, .st50, .st52, .st54, .st61, .st62, .st63, .st68, .st71, .st72, .st74, .st75 {
        stroke-linejoin: round;
      }

      .st4, .st10, .st12, .st28, .st33, .st79, .st37, .st42, .st43, .st44, .st51, .st62, .st82, .st72, .st74 {
        stroke-width: .75px;
      }

      .st5 {
        stroke-dasharray: 2.11 1.4 2.11 1.4 2.11 1.4;
      }

      .st7 {
        stroke-dasharray: 3.33 2.22 3.33 2.22;
      }

      .st8 {
        stroke-dasharray: 2.1 1.4 2.1 1.4;
      }

      .st9 {
        stroke-dasharray: 1 1;
      }

      .st10 {
        stroke-dasharray: 2.15 1.44 2.15 1.44;
      }

      .st11 {
        stroke-dasharray: 2.77 1.84 2.77 1.84 2.77 1.84;
      }

      .st13 {
        stroke-dasharray: 3.17 2.12 3.17 2.12 3.17 2.12;
      }

      .st14 {
        stroke-dasharray: 3.2 2.13 3.2 2.13 3.2 2.13;
      }

      .st15 {
        stroke-dasharray: 3.2 2.13 3.2 2.13;
      }

      .st16 {
        stroke-dasharray: 3.15 2.1 3.15 2.1 3.15 2.1;
      }

      .st78 {
        fill: url(#_무제_그라디언트_32);
      }

      .st17 {
        stroke-dasharray: 2.86 1.91 2.86 1.91 2.86 1.91;
      }

      .st83 {
        fill: #e1e3ce;
      }

      .st84 {
        fill: #fcf9ed;
      }

      .st85, .st82 {
        fill: #fff;
      }

      .st18 {
        stroke-dasharray: 3.34 2.23 3.34 2.23;
      }

      .st20 {
        stroke-dasharray: 3.24 2.16 3.24 2.16 3.24 2.16;
      }

      .st21 {
        stroke-dasharray: 2.97 1.98 2.97 1.98 2.97 1.98;
      }

      .st23 {
        stroke-dasharray: 2.86 1.91 2.86 1.91;
      }

      .st24 {
        stroke-dasharray: 2.86 1.91 2.86 1.91;
      }

      .st25 {
        stroke-dasharray: 3.24 2.16 3.24 2.16;
      }

      .st86 {
        fill: #f4f8e0;
      }

      .st26 {
        stroke-dasharray: 2.43 1.62 2.43 1.62;
      }

      .st87 {
        font-size: 8.99px;
      }

      .st87, .st88, .st89 {
        font-family: HyhwpEQ, HyhwpEQ;
      }

      .st28 {
        stroke-dasharray: 2.15 1.44 2.15 1.44 2.15 1.44;
      }

      .st29 {
        stroke-dasharray: 3.35 2.24 3.35 2.24 3.35 2.24;
      }

      .st30 {
        stroke-dasharray: 3.33 2.22 3.33 2.22;
      }

      .st31 {
        stroke: #e2cae0;
      }

      .st32 {
        stroke-dasharray: 3.34 2.23 3.34 2.23 3.34 2.23;
      }

      .st90 {
        fill: #e2cae0;
      }

      .st91 {
        fill: #c7dccb;
      }

      .st34 {
        stroke-dasharray: 3.04 2.03 3.04 2.03 3.04 2.03;
      }

      .st92 {
        opacity: .3;
      }

      .st92, .st93 {
        fill: #231815;
      }

      .st94 {
        fill: #afd5e4;
      }

      .st79, .st95 {
        fill: #aeb6d9;
      }

      .st37 {
        stroke-dasharray: 2.76 1.84 2.76 1.84 2.76 1.84;
      }

      .st38 {
        stroke-dasharray: 1.96 1.31 1.96 1.31;
      }

      .st39 {
        stroke-dasharray: 2.11 1.4 2.11 1.4;
      }

      .st40 {
        stroke-dasharray: 3.2 2.13 3.2 2.13;
      }

      .st41 {
        stroke-dasharray: 2.43 1.62 2.43 1.62 2.43 1.62;
      }

      .st43 {
        stroke: #036eb8;
      }

      .st44 {
        stroke: #094;
      }

      .st96 {
        fill: #c9caca;
      }

      .st45 {
        stroke-dasharray: 3.15 2.1 3.15 2.1;
      }

      .st46 {
        stroke: #aeb6d9;
      }

      .st97 {
        opacity: .75;
      }

      .st97, .st98 {
        fill: #d1c8e3;
      }

      .st47 {
        stroke: #080103;
        stroke-linecap: round;
      }

      .st99 {
        fill: #080103;
      }

      .st48 {
        stroke-dasharray: 2.93 1.96 2.93 1.96;
      }

      .st49 {
        stroke-dasharray: 3.19 2.12 3.19 2.12 3.19 2.12;
      }

      .st50 {
        stroke-dasharray: 3.09 2.06 3.09 2.06 3.09 2.06;
      }

      .st51 {
        stroke: #ea5514;
      }

      .st52 {
        stroke-dasharray: 2.86 1.91 2.86 1.91 2.86 1.91;
      }

      .st53 {
        stroke-dasharray: 3.2 2.13 3.2 2.13 3.2 2.13;
      }

      .st54 {
        stroke-dasharray: 3.33 2.22 3.33 2.22 3.33 2.22;
      }

      .st55 {
        stroke-dasharray: 3.17 2.12 3.17 2.12;
      }

      .st56, .st67 {
        stroke-linejoin: bevel;
      }

      .st57 {
        stroke: #a3af7b;
      }

      .st58 {
        stroke-dasharray: 3.49 2.33 3.49 2.33;
      }

      .st80 {
        fill: url(#_무제_그라디언트_3);
      }

      .st60 {
        stroke-dasharray: 2.97 1.98 2.97 1.98;
      }

      .st100 {
        fill: #cddee2;
      }

      .st88 {
        font-size: 9px;
      }

      .st61 {
        stroke-dasharray: 3.02 2.01 3.02 2.01 3.02 2.01;
      }

      .st62 {
        stroke-dasharray: 2.76 1.84 2.76 1.84;
      }

      .st63 {
        stroke-dasharray: 3.02 2.01 3.02 2.01;
      }

      .st81 {
        fill: url(#_무제_그라디언트_31);
      }

      .st64 {
        stroke-dasharray: 3.33 2.22 3.33 2.22 3.33 2.22;
      }

      .st66 {
        stroke-dasharray: 3.19 2.12 3.19 2.12;
      }

      .st101 {
        fill: #e6cce2;
      }

      .st89 {
        font-size: 6.11px;
      }

      .st68 {
        stroke-dasharray: 2.77 1.84 2.77 1.84;
      }

      .st69 {
        stroke-dasharray: 3.15 2.1 3.15 2.1 3.15 2.1;
      }

      .st70 {
        stroke-dasharray: 3.49 2.33 3.49 2.33 3.49 2.33;
      }

      .st71 {
        stroke-dasharray: 3.35 2.24 3.35 2.24;
      }

      .st72 {
        stroke-dasharray: 3.18 2.12 3.18 2.12;
      }

      .st73 {
        stroke-dasharray: 3.04 2.03 3.04 2.03;
      }

      .st74 {
        stroke-dasharray: 3.18 2.12 3.18 2.12 3.18 2.12;
      }

      .st75 {
        stroke-dasharray: 3.09 2.06 3.09 2.06;
      }

      .st76 {
        stroke-dasharray: 2.1 1.4 2.1 1.4 2.1 1.4;
      }

      .st77 {
        stroke-dasharray: 3.15 2.1 3.15 2.1;
      }
    </style>
    <radialGradient id="_무제_그라디언트_3" data-name="무제 그라디언트 3" cx="807.71" cy="-829.6" fx="807.71" fy="-829.6" r="9.65" gradientUnits="userSpaceOnUse">
      <stop offset=".08" stop-color="#fff"/>
      <stop offset="1" stop-color="#000"/>
    </radialGradient>
    <radialGradient id="_무제_그라디언트_31" data-name="무제 그라디언트 3" cy="-897.72" fy="-897.72" r="9.65" xlink:href="#_무제_그라디언트_3"/>
    <radialGradient id="_무제_그라디언트_32" data-name="무제 그라디언트 3" cy="-938.61" fy="-938.61" xlink:href="#_무제_그라디언트_3"/>
  </defs>
  <path d="M745.66-73.53c.29-.19.59-.28.9-.28.43,0,.79.11,1.09.32.17.14.31.31.41.51.04.09.08.17.11.26.03.09.04.19.04.32,0,.24-.1.44-.3.58-.16.14-.34.21-.54.21-.24,0-.44-.09-.6-.26-.14-.14-.21-.31-.21-.51s.06-.38.19-.54c.16-.2.37-.29.64-.28.03,0,0-.02-.09-.06-.1-.04-.17-.06-.21-.06-.07-.03-.16-.05-.26-.06-.1-.01-.19-.02-.28-.02s-.19.04-.3.11c-.1.06-.19.14-.28.24-.09.1-.16.21-.24.34-.06.1-.12.24-.19.43-.11.33-.21.63-.3.9-.09.31-.16.66-.24,1.03-.17.79-.33,1.56-.47,2.33-.16.8-.26,1.41-.32,1.82l-.43,2.27c-.1.47-.22,1.09-.36,1.84-.19.89-.36,1.7-.51,2.44-.16.67-.28,1.19-.36,1.54-.11.47-.21.89-.3,1.24l-.02.02c-.11.4-.21.72-.3.96-.14.43-.26.77-.36,1.03-.44.96-.89,1.68-1.33,2.16-.47.51-.97.77-1.5.77-.26,0-.51-.04-.75-.11-.19-.07-.35-.15-.49-.24-.09-.07-.16-.14-.24-.19-.09-.09-.14-.16-.17-.21-.07-.13-.12-.25-.15-.36-.04-.13-.06-.24-.06-.34,0-.27.08-.49.24-.64.16-.16.37-.24.64-.24.1,0,.21.02.32.06.1.04.19.1.26.17.13.13.21.29.24.47.01.19-.04.37-.15.56-.09.13-.24.21-.45.26-.1.03-.2.04-.3.04-.01,0,0,.02.04.06.06.07.12.12.19.15.09.04.2.08.34.11.16.03.3.04.43.04.16,0,.33-.07.51-.21.2-.13.38-.29.54-.47.07-.13.16-.34.28-.62.07-.21.15-.44.24-.69.26-.86.52-1.94.79-3.26.2-.89.39-1.81.56-2.78.17-1.01.38-2.1.62-3.26.13-.69.31-1.57.56-2.66l.02-.04c.3-1.47.66-2.8,1.09-3.98.31-.91.64-1.66.96-2.25.24-.44.51-.77.81-.99Z"/>
  <path d="M747.78-51.31c-.17.32-.34.57-.52.76v.36c0,.13,0,.24.04.33.04.15.1.23.2.23.05,0,.1-.02.16-.05.04-.03.09-.07.14-.11,0-.01.02-.03.03-.05,0-.01.02-.04.04-.07.02-.06.04-.1.06-.12.03-.03.06-.05.09-.05.09,0,.11.06.06.17-.04.1-.08.17-.14.21-.07.07-.14.13-.21.16-.08.04-.16.07-.25.07-.09,0-.17-.01-.24-.04-.07-.02-.14-.06-.19-.12-.06-.06-.11-.13-.15-.2-.04-.08-.07-.16-.09-.26-.14.11-.28.21-.42.29-.13.07-.26.14-.4.19-.13.05-.25.08-.38.11-.12.02-.24.04-.37.04-.18,0-.34-.03-.49-.09-.15-.06-.28-.15-.39-.28s-.19-.26-.25-.41c-.05-.15-.07-.3-.07-.47,0-.26.06-.52.17-.78.11-.24.26-.46.45-.67.19-.2.4-.36.62-.47.25-.12.5-.18.75-.18.16,0,.3.03.44.08.15.05.27.13.38.24.14.14.24.31.31.52.07.19.1.42.1.69v.46c.16-.21.3-.44.43-.7.12-.25.22-.5.31-.77v-.04s.02-.07.03-.09c.01-.02.04-.04.08-.04.05,0,.07.02.08.07,0,.03,0,.07-.03.13v.02c-.07.29-.2.6-.38.93ZM746.75-50.62c0-.08,0-.19,0-.35v-.14c0-.23,0-.4,0-.51-.01-.18-.04-.35-.07-.49-.05-.18-.13-.31-.23-.41-.11-.1-.24-.15-.41-.15-.2,0-.4.07-.6.21-.16.12-.3.28-.42.47-.11.16-.21.41-.3.74-.09.32-.13.59-.13.81,0,.24.05.43.15.57.12.16.29.25.52.25.1,0,.21-.01.31-.04.1-.02.21-.05.31-.08.16-.05.32-.13.47-.23.15-.09.29-.19.43-.32-.01-.1-.02-.21-.02-.34Z"/>
  <path d="M754.17-73.87c-.03.12-.08.23-.15.36-.08.12-.16.23-.25.33-.1.1-.22.19-.34.27.16.12.29.27.38.45.08.17.12.36.12.58,0,.26-.06.52-.18.78-.11.23-.25.45-.44.65-.19.19-.4.34-.63.45-.25.12-.49.18-.73.18-.29,0-.54-.08-.76-.23-.22-.15-.36-.37-.44-.64l-.51,2h0c0,.07-.02.12-.04.15-.02.05-.05.08-.09.08-.06,0-.09-.02-.09-.07,0-.02,0-.06.02-.12h0s1.13-4.51,1.13-4.51c.06-.26.16-.5.29-.74.13-.23.29-.44.46-.62.19-.2.39-.35.6-.46.23-.12.47-.17.71-.17.14,0,.27.02.4.06.13.05.24.13.34.23.08.09.14.19.18.3.04.11.07.23.07.35s-.02.23-.05.34ZM753.74-74.16c.01-.13.02-.22.01-.28,0-.1-.02-.19-.05-.25-.04-.11-.11-.19-.19-.24-.08-.05-.18-.07-.29-.07-.19,0-.39.05-.58.14-.17.08-.33.2-.48.34-.21.19-.38.42-.53.69-.13.25-.23.52-.3.82l-.15.57c-.06.24-.11.42-.14.55-.05.2-.09.39-.12.56,0,.03-.02.07-.02.11v.14c0,.31.09.57.28.78.19.21.45.31.76.31.22,0,.43-.08.64-.24.18-.14.33-.31.45-.53.07-.15.14-.33.2-.54.05-.18.1-.37.13-.57.03-.19.03-.35,0-.49-.02-.17-.09-.31-.2-.42-.09.03-.18.06-.28.07-.08.01-.17.02-.28.02h-.03c-.13,0-.23,0-.3-.03-.12-.03-.18-.08-.18-.17,0-.1.08-.17.23-.2.08-.02.2-.03.36-.03.1,0,.19,0,.25,0,.1,0,.18.03.25.07.06-.05.11-.1.16-.16.05-.05.09-.11.13-.17.07-.12.12-.24.17-.38.04-.13.07-.26.09-.4h0ZM752.82-72.96s-.07,0-.14,0h-.03c-.11,0-.19,0-.24.01-.09,0-.13.02-.13.05,0,.02.03.03.09.04.04,0,.11,0,.23,0,.07,0,.13,0,.17-.01.06,0,.12-.02.17-.04-.04-.02-.08-.04-.13-.04Z"/>
  <path d="M760.39-65.71c-.13.14-.28.2-.46.2-.12,0-.22-.04-.29-.11s-.1-.16-.09-.27c0-.18.08-.32.2-.43.11-.09.26-.15.44-.17-.06-.06-.14-.11-.23-.15-.09-.04-.19-.05-.29-.05-.17,0-.31.06-.42.18-.09.09-.15.23-.21.4-.11.34-.23.7-.33,1.1-.09.34-.19.71-.29,1.11h.95c.08-.01.13,0,.16,0,.06.02.1.06.1.12-.02.1-.06.17-.13.19-.04.02-.12.03-.24.03h-.95l-.32,1.21c-.18.69-.32,1.21-.42,1.56-.16.57-.31,1.09-.46,1.54-.22.6-.45,1.09-.68,1.45-.39.6-.79.89-1.22.89-.25,0-.46-.07-.62-.2-.18-.14-.26-.33-.25-.56.02-.19.09-.34.19-.46.13-.13.29-.19.47-.19.11,0,.2.03.27.1.06.07.09.17.09.29-.01.17-.09.31-.22.42-.12.1-.26.16-.43.17.06.06.14.11.23.14.08.04.18.05.29.05.25,0,.48-.23.69-.69.11-.25.24-.64.38-1.16l.06-.2,1.21-4.35h-.77c-.08,0-.14,0-.17-.02-.06-.02-.08-.06-.08-.11,0-.1.04-.17.1-.19.04-.02.12-.03.23-.03h.03s.74.01.74.01c.07-.31.15-.6.24-.87.09-.3.19-.59.29-.86.07-.22.17-.41.29-.59.14-.19.29-.35.47-.46.11-.08.23-.14.36-.17.14-.04.27-.06.39-.06.24,0,.45.06.62.19.19.14.28.33.27.57-.01.17-.08.32-.2.45Z"/>
  <path d="M763.89-67.18c-.23.41-.41.84-.54,1.3-.14.43-.23.89-.29,1.38-.06.45-.09.93-.09,1.43s.02.93.06,1.36c.06.47.15.91.27,1.32.14.48.32.92.54,1.32.24.43.52.81.85,1.15.13.13.18.23.15.31-.03.07-.13.04-.3-.1-.28-.22-.56-.51-.85-.89-.26-.34-.47-.69-.65-1.04-.25-.52-.44-1.09-.56-1.69-.11-.56-.16-1.14-.16-1.74s.05-1.18.16-1.72c.11-.58.29-1.13.53-1.64.16-.36.37-.72.65-1.09.3-.41.59-.72.87-.93.16-.11.27-.15.32-.11s.02.13-.12.26c-.33.33-.61.7-.85,1.11Z"/>
  <path d="M770.59-62.96c-.12.13-.26.19-.42.19-.13,0-.23-.04-.31-.11s-.12-.17-.12-.28c0-.14.05-.27.16-.39.1-.11.23-.18.38-.2-.08-.06-.17-.1-.27-.12-.09-.01-.18-.02-.28-.02-.29,0-.55.15-.75.44-.15.22-.27.51-.34.86l-.51,2.08c-.04.18-.06.33-.05.46,0,.17.05.31.14.44.04.06.1.12.18.16.09.04.18.06.28.06.12,0,.25-.03.39-.09.11-.05.23-.11.34-.19.17-.14.31-.3.42-.48.11-.17.21-.37.29-.59v-.03c.03-.08.05-.13.08-.15.03-.04.08-.05.15-.03.06.01.08.06.08.14,0,.05-.03.13-.06.24-.1.24-.23.46-.38.66-.17.22-.35.41-.56.55-.11.07-.24.13-.37.16-.12.04-.25.06-.4.06-.17,0-.32-.03-.45-.08-.13-.04-.24-.11-.33-.19-.11-.09-.19-.18-.26-.27-.06-.1-.11-.2-.14-.3-.14.25-.31.45-.48.59-.22.17-.44.25-.68.25-.27,0-.5-.06-.69-.17-.23-.13-.34-.32-.34-.56,0-.17.06-.32.17-.45.11-.12.26-.18.43-.18.11,0,.21.03.29.1.08.07.12.17.12.29,0,.14-.05.27-.16.39-.09.1-.21.17-.36.2.07.05.16.09.26.11.09.03.18.04.29.04.27,0,.5-.13.69-.4.15-.2.27-.45.36-.75l.45-1.77h0c.06-.28.11-.48.13-.64.04-.27.02-.47-.04-.61-.05-.11-.12-.2-.22-.26-.09-.06-.2-.09-.32-.09-.13,0-.26.03-.39.08-.12.04-.24.11-.34.19-.17.13-.32.3-.45.52-.12.2-.22.42-.29.66-.02.05-.05.09-.09.11-.04.01-.08.01-.13,0-.06-.01-.08-.08-.05-.18.01-.06.04-.15.09-.26l.02-.03c.08-.21.2-.41.37-.6.16-.19.34-.36.54-.48.11-.08.23-.14.36-.18.11-.03.25-.04.4-.04.29,0,.54.07.74.22s.36.35.45.61c.1-.24.25-.43.46-.59.22-.16.45-.24.7-.24s.48.05.67.15c.24.13.36.32.36.57,0,.17-.06.31-.17.44Z"/>
  <path d="M774.67-61.31c-.12.61-.31,1.17-.56,1.69-.18.35-.4.7-.65,1.04-.29.39-.57.69-.84.89-.18.14-.28.17-.31.09-.03-.07.02-.18.15-.31.33-.33.61-.71.85-1.14.22-.4.39-.84.53-1.3.12-.43.22-.88.28-1.36.06-.44.09-.89.09-1.35,0-.5-.03-.97-.1-1.43-.06-.49-.15-.95-.28-1.38-.14-.46-.33-.89-.56-1.29-.24-.42-.52-.8-.84-1.12-.14-.14-.18-.23-.13-.27s.16,0,.32.11c.27.21.56.52.86.93.27.37.49.74.66,1.09.24.52.41,1.07.53,1.65.11.55.17,1.12.17,1.72s-.06,1.19-.17,1.74Z"/>
  <path d="M780.93-60.42c-.06.24-.08.45-.06.62.01.28.12.42.32.42.11,0,.22-.05.31-.14.07-.06.14-.16.22-.28.06-.14.13-.29.18-.46.05-.16.09-.32.13-.48v-.06c.02-.05.03-.09.04-.11.02-.02.06-.03.11-.03.07,0,.11.02.13.06,0,.02,0,.07-.01.14v.03c-.06.22-.1.38-.14.48-.06.19-.11.36-.16.48-.1.18-.21.32-.33.42-.14.12-.31.18-.49.18-.26,0-.48-.08-.67-.24-.19-.15-.3-.35-.33-.59-.22.25-.44.44-.65.57-.27.17-.53.26-.8.26-.47,0-.84-.19-1.11-.56-.24-.34-.36-.74-.36-1.21,0-.39.08-.79.23-1.17.14-.38.35-.73.61-1.04.24-.29.5-.53.8-.7.34-.2.68-.3,1.02-.3.23,0,.43.06.61.18.15.11.28.28.4.51l.67-2.61v-.05c.02-.08.03-.14.02-.17,0-.06-.03-.1-.08-.12-.03-.02-.08-.04-.16-.04-.07,0-.18-.01-.31-.01-.09,0-.15,0-.18-.02-.06-.02-.09-.06-.09-.12,0-.06.01-.11.03-.15.03-.04.07-.06.13-.06l1.4-.12c.06,0,.1,0,.12.04.01.03.02.07.01.12l-1.57,6.33ZM780.51-63.6c-.16-.19-.35-.29-.58-.29-.26,0-.51.11-.77.34-.21.19-.38.43-.51.71-.14.26-.28.64-.41,1.14-.13.52-.19.95-.19,1.27,0,.27.05.5.14.69.12.24.31.36.56.36.23,0,.47-.09.72-.28.23-.17.45-.4.67-.7l.04-.12.04-.1.57-2.25v-.1c-.04-.28-.14-.51-.29-.68Z"/>
  <path d="M787.75-62.96c-.12.13-.26.19-.42.19-.13,0-.23-.04-.31-.11s-.12-.17-.12-.28c0-.14.05-.27.16-.39.1-.11.23-.18.38-.2-.08-.06-.17-.1-.27-.12-.09-.01-.18-.02-.28-.02-.29,0-.55.15-.75.44-.15.22-.27.51-.34.86l-.51,2.08c-.04.18-.06.33-.05.46,0,.17.05.31.14.44.04.06.1.12.18.16.09.04.18.06.28.06.12,0,.25-.03.39-.09.11-.05.23-.11.34-.19.17-.14.31-.3.42-.48.11-.17.21-.37.29-.59v-.03c.03-.08.05-.13.08-.15.03-.04.08-.05.15-.03.06.01.08.06.08.14,0,.05-.03.13-.06.24-.1.24-.23.46-.38.66-.17.22-.35.41-.56.55-.11.07-.24.13-.37.16-.12.04-.25.06-.4.06-.17,0-.32-.03-.45-.08-.13-.04-.24-.11-.33-.19-.11-.09-.19-.18-.26-.27-.06-.1-.11-.2-.14-.3-.14.25-.31.45-.48.59-.22.17-.44.25-.68.25-.27,0-.5-.06-.69-.17-.23-.13-.34-.32-.34-.56,0-.17.06-.32.17-.45.11-.12.26-.18.43-.18.11,0,.21.03.29.1.08.07.12.17.12.29,0,.14-.05.27-.16.39-.09.1-.21.17-.36.2.07.05.16.09.26.11.09.03.18.04.29.04.27,0,.5-.13.69-.4.15-.2.27-.45.36-.75l.45-1.77h0c.06-.28.11-.48.13-.64.04-.27.02-.47-.04-.61-.05-.11-.12-.2-.22-.26-.09-.06-.2-.09-.32-.09-.13,0-.26.03-.39.08-.12.04-.24.11-.34.19-.17.13-.32.3-.45.52-.12.2-.22.42-.29.66-.02.05-.05.09-.09.11-.04.01-.08.01-.13,0-.06-.01-.08-.08-.05-.18.01-.06.04-.15.09-.26l.02-.03c.08-.21.2-.41.37-.6.16-.19.34-.36.54-.48.11-.08.23-.14.36-.18.11-.03.25-.04.4-.04.29,0,.54.07.74.22s.36.35.45.61c.1-.24.25-.43.46-.59.22-.16.45-.24.7-.24s.48.05.67.15c.24.13.36.32.36.57,0,.17-.06.31-.17.44Z"/>
  <path d="M798.47-62.37s-.09.07-.15.11l-6.48,2.91c-.08.03-.15.04-.2.03-.07,0-.12-.04-.15-.1-.03-.09-.03-.15-.01-.2.02-.05.07-.09.14-.12l6.15-2.76-6.16-2.76c-.08-.04-.13-.09-.15-.15-.02-.06-.01-.13.03-.18.05-.07.1-.11.16-.11.04,0,.11.03.19.06h.01s6.45,2.9,6.45,2.9c.06.03.11.06.15.09.04.04.06.09.06.15,0,.04-.02.09-.05.13Z"/>
  <path d="M802.73-62.2v-.44h100.27v.44h-100.27Z"/>
  <path d="M854.87-51.95h-4.09v-.26l2.24-2.51c.17-.2.31-.38.43-.55.14-.2.27-.4.38-.6.11-.22.19-.42.25-.62.07-.23.11-.45.11-.66,0-.24-.03-.46-.09-.66-.06-.22-.15-.42-.27-.58-.14-.19-.31-.33-.51-.43-.19-.09-.39-.13-.61-.13-.36,0-.67.1-.94.3-.26.2-.45.47-.56.82h.14c.17-.01.31.04.42.14.11.11.17.25.17.43,0,.16-.05.29-.16.41-.12.12-.25.17-.41.17-.19,0-.33-.06-.44-.18-.1-.11-.15-.26-.15-.44,0-.25.05-.5.15-.74.1-.23.24-.43.41-.61.19-.22.42-.38.68-.48.25-.1.52-.15.82-.15.32,0,.61.05.89.14.29.1.56.25.79.45.22.2.38.43.5.7.11.26.17.54.17.85,0,.29-.04.55-.13.78-.09.22-.22.45-.41.67-.17.19-.37.39-.6.6-.12.12-.32.31-.6.57l-.62.59-1.17,1.14h2.04c.22,0,.38,0,.51-.01.23-.01.37-.04.42-.08.07-.06.13-.18.18-.36.02-.09.05-.24.09-.45l.03-.18h.28l-.31,1.93Z"/>
  <path d="M807.07-74.37c-.23.41-.41.84-.54,1.3-.14.43-.23.89-.29,1.38-.06.45-.09.93-.09,1.43s.02.93.06,1.36c.06.47.15.91.27,1.32.14.48.32.92.54,1.32.24.43.52.81.85,1.15.13.13.18.23.15.31-.03.07-.13.04-.3-.1-.28-.22-.56-.51-.85-.89-.26-.34-.47-.69-.65-1.04-.25-.52-.44-1.09-.56-1.69-.11-.56-.16-1.14-.16-1.74s.05-1.18.16-1.72c.11-.58.29-1.13.53-1.64.16-.36.37-.72.65-1.09.3-.41.59-.72.87-.93.16-.11.27-.15.32-.11s.02.13-.12.26c-.33.33-.61.7-.85,1.11Z"/>
  <path d="M814.56-72.43c-.05.17-.13.35-.23.53-.11.18-.24.34-.38.48-.15.14-.32.28-.51.4.24.17.43.4.56.67.12.25.18.54.18.86,0,.38-.09.76-.27,1.15-.16.34-.37.66-.65.96-.29.28-.6.5-.94.67-.37.18-.73.27-1.09.27-.43,0-.8-.11-1.12-.34-.32-.23-.54-.55-.65-.95l-.75,2.97h-.01c-.01.1-.03.17-.05.22-.03.08-.07.12-.13.12-.09,0-.13-.03-.14-.1,0-.04.01-.09.03-.17h.01s1.67-6.69,1.67-6.69c.09-.38.24-.75.43-1.1.19-.34.42-.65.69-.93.28-.29.57-.52.88-.68.34-.17.7-.26,1.06-.26.21,0,.41.03.59.1.19.08.36.19.51.34.11.13.2.28.27.45.06.17.1.34.1.52s-.03.34-.08.51ZM813.91-72.86c.02-.19.03-.32.02-.41,0-.15-.03-.28-.08-.38-.06-.16-.16-.28-.28-.36-.12-.07-.27-.11-.43-.11-.29,0-.57.07-.86.2-.26.12-.5.29-.71.51-.31.28-.57.62-.79,1.02-.19.37-.34.78-.45,1.22l-.23.85c-.09.35-.16.62-.21.82-.07.3-.13.58-.18.83-.01.05-.03.1-.03.16v.2c0,.47.14.85.42,1.15.29.31.66.46,1.12.46.32,0,.64-.12.95-.36.27-.2.49-.46.67-.79.11-.22.21-.48.3-.81.08-.27.14-.55.19-.85.04-.28.05-.52.01-.72-.04-.26-.14-.47-.3-.62-.13.05-.27.09-.41.11-.12.02-.25.03-.41.03h-.04c-.19,0-.34-.01-.44-.04-.18-.04-.27-.13-.27-.25,0-.15.11-.25.33-.3.12-.03.3-.04.53-.04.15,0,.28,0,.38.01.14.01.27.05.38.1.09-.07.17-.15.24-.24.07-.08.14-.17.19-.26.1-.17.18-.36.25-.57.06-.19.11-.38.14-.59h0ZM812.55-71.08s-.11-.01-.2-.01h-.04c-.17.01-.28.01-.36.02-.13,0-.19.03-.19.08,0,.03.05.05.14.05.06,0,.17.01.33.01.1,0,.19,0,.26-.02.09-.01.18-.04.26-.06-.06-.04-.12-.06-.19-.06Z"/>
  <path d="M823.3-69.82s-.13.03-.25.03h-6.39c-.13,0-.22-.01-.26-.03-.07-.03-.11-.09-.11-.18,0-.1.04-.17.12-.2.05-.01.14-.02.26-.02h6.37c.12,0,.2,0,.25.02.09.04.13.1.13.2,0,.09-.04.15-.12.18Z"/>
  <path d="M831.54-69.2c-.25.47-.51.85-.77,1.13v.54c0,.19.01.35.05.5.06.23.15.34.29.34.07,0,.15-.02.24-.08.06-.04.13-.1.2-.16.01-.02.03-.05.04-.08,0-.02.03-.05.05-.1.04-.09.06-.14.09-.17.04-.05.09-.08.14-.08.13,0,.16.08.09.25-.06.14-.13.25-.21.31-.1.11-.2.19-.31.24-.11.06-.24.1-.37.1-.14,0-.25-.02-.36-.06-.11-.04-.2-.09-.28-.17-.09-.09-.17-.19-.23-.3-.06-.11-.1-.24-.14-.39-.21.17-.42.31-.62.43-.19.11-.39.2-.59.28-.19.07-.38.13-.57.16-.18.04-.36.05-.55.05-.27,0-.51-.05-.72-.14-.22-.09-.42-.23-.58-.41-.17-.18-.29-.38-.37-.61-.07-.22-.11-.45-.11-.7,0-.39.08-.78.25-1.16.16-.36.38-.69.67-.99.28-.3.59-.54.93-.7.37-.18.75-.27,1.12-.27.23,0,.45.04.66.12.22.08.41.2.57.36.21.21.36.46.46.76.1.29.15.63.15,1.02v.68c.24-.31.45-.65.64-1.03.18-.37.33-.75.45-1.14v-.05c.01-.06.03-.11.04-.13.02-.04.06-.05.12-.05.07,0,.11.04.12.11,0,.04-.01.11-.04.19v.03c-.11.42-.29.88-.56,1.38ZM830.01-68.18c0-.11-.01-.29-.01-.52v-.2c0-.34,0-.59-.01-.75-.02-.27-.06-.51-.11-.72-.08-.27-.19-.47-.33-.6-.16-.15-.36-.23-.61-.23-.3,0-.6.1-.88.31-.24.18-.45.41-.62.7-.16.24-.31.6-.44,1.1-.13.48-.19.88-.19,1.2,0,.35.07.63.22.84.17.24.43.37.78.37.15,0,.31-.02.46-.05.15-.03.31-.07.46-.12.24-.08.47-.19.7-.33.22-.13.43-.29.64-.47-.02-.14-.03-.31-.03-.51Z"/>
  <path d="M835.96-68.5c-.12.61-.31,1.17-.56,1.69-.18.35-.4.7-.65,1.04-.29.39-.57.69-.84.89-.18.14-.28.17-.31.09-.03-.07.02-.18.15-.31.33-.33.61-.71.85-1.14.22-.4.39-.84.53-1.3.12-.43.22-.88.28-1.36.06-.44.09-.89.09-1.35,0-.5-.03-.97-.1-1.43-.06-.49-.15-.95-.28-1.38-.14-.46-.33-.89-.56-1.29-.24-.42-.52-.8-.84-1.12-.14-.14-.18-.23-.13-.27s.16,0,.32.11c.27.21.56.52.86.93.27.37.49.74.66,1.09.24.52.41,1.07.53,1.65.11.55.17,1.12.17,1.72s-.06,1.19-.17,1.74Z"/>
  <path d="M841.6-64.56c-.83-.13-1.42-.42-1.76-.86-.23-.29-.34-.65-.33-1.06v-2.38c0-.4-.08-.69-.24-.87-.23-.27-.65-.41-1.26-.41v-.25c.62,0,1.04-.14,1.26-.42.16-.2.24-.54.24-1.03v-2.12c0-.4.1-.73.3-1.01.34-.46.93-.75,1.79-.86v.21c-.56.07-.96.29-1.2.65-.19.27-.28.64-.28,1.11v1.95c0,.49-.09.86-.26,1.1-.2.29-.56.47-1.07.55.52.13.88.3,1.07.51.17.18.26.47.26.85v2.3c0,.51.1.9.3,1.17.22.3.61.52,1.17.67v.21Z"/>
  <path d="M847.94-73.02c-.13.14-.28.2-.46.2-.12,0-.22-.04-.29-.11s-.1-.16-.09-.27c0-.18.08-.32.2-.43.11-.09.26-.15.44-.17-.06-.06-.14-.11-.23-.15-.09-.04-.19-.05-.29-.05-.17,0-.31.06-.42.18-.09.09-.15.23-.21.4-.11.34-.23.7-.33,1.1-.09.34-.19.71-.29,1.11h.95c.08-.01.13,0,.16,0,.06.02.1.06.1.12-.02.1-.06.17-.13.19-.04.02-.12.03-.24.03h-.95l-.32,1.21c-.18.69-.32,1.21-.42,1.56-.16.57-.31,1.09-.46,1.54-.22.6-.45,1.09-.68,1.45-.39.6-.79.89-1.22.89-.25,0-.46-.07-.62-.2-.18-.14-.26-.33-.25-.56.02-.19.09-.34.19-.46.13-.13.29-.19.47-.19.11,0,.2.03.27.1.06.07.09.17.09.29-.01.17-.09.31-.22.42-.12.1-.26.16-.43.17.06.06.14.11.23.14.08.04.18.05.29.05.25,0,.48-.23.69-.69.11-.25.24-.64.38-1.16l.06-.2,1.21-4.35h-.77c-.08,0-.14,0-.17-.02-.06-.02-.08-.06-.08-.11,0-.1.04-.17.1-.19.04-.02.12-.03.23-.03h.03s.74.01.74.01c.07-.31.15-.6.24-.87.09-.3.19-.59.29-.86.07-.22.17-.41.29-.59.14-.19.29-.35.47-.46.11-.08.23-.14.36-.17.14-.04.27-.06.39-.06.24,0,.45.06.62.19.19.14.28.33.27.57-.01.17-.08.32-.2.45Z"/>
  <path d="M851.44-74.37c-.23.41-.41.84-.54,1.3-.14.43-.23.89-.29,1.38-.06.45-.09.93-.09,1.43s.02.93.06,1.36c.06.47.15.91.27,1.32.14.48.32.92.54,1.32.24.43.52.81.85,1.15.13.13.18.23.15.31-.03.07-.13.04-.3-.1-.28-.22-.56-.51-.85-.89-.26-.34-.47-.69-.65-1.04-.25-.52-.44-1.09-.56-1.69-.11-.56-.16-1.14-.16-1.74s.05-1.18.16-1.72c.11-.58.29-1.13.53-1.64.16-.36.37-.72.65-1.09.3-.41.59-.72.87-.93.16-.11.27-.15.32-.11s.02.13-.12.26c-.33.33-.61.7-.85,1.11Z"/>
  <path d="M858.93-72.43c-.05.17-.13.35-.23.53-.11.18-.24.34-.38.48-.15.14-.32.28-.51.4.24.17.43.4.56.67.12.25.18.54.18.86,0,.38-.09.76-.27,1.15-.16.34-.37.66-.65.96-.29.28-.6.5-.94.67-.37.18-.73.27-1.09.27-.43,0-.8-.11-1.12-.34-.32-.23-.54-.55-.65-.95l-.75,2.97h-.01c-.01.1-.03.17-.05.22-.03.08-.07.12-.13.12-.09,0-.13-.03-.14-.1,0-.04.01-.09.03-.17h.01s1.67-6.69,1.67-6.69c.09-.38.24-.75.43-1.1.19-.34.42-.65.69-.93.28-.29.57-.52.88-.68.34-.17.7-.26,1.06-.26.21,0,.41.03.59.1.19.08.36.19.51.34.11.13.2.28.27.45.06.17.1.34.1.52s-.03.34-.08.51ZM858.29-72.86c.02-.19.03-.32.02-.41,0-.15-.03-.28-.08-.38-.06-.16-.16-.28-.28-.36-.12-.07-.27-.11-.43-.11-.29,0-.57.07-.86.2-.26.12-.5.29-.71.51-.31.28-.57.62-.79,1.02-.19.37-.34.78-.45,1.22l-.23.85c-.09.35-.16.62-.21.82-.07.3-.13.58-.18.83-.01.05-.03.1-.03.16v.2c0,.47.14.85.42,1.15.29.31.66.46,1.12.46.32,0,.64-.12.95-.36.27-.2.49-.46.67-.79.11-.22.21-.48.3-.81.08-.27.14-.55.19-.85.04-.28.05-.52.01-.72-.04-.26-.14-.47-.3-.62-.13.05-.27.09-.41.11-.12.02-.25.03-.41.03h-.04c-.19,0-.34-.01-.44-.04-.18-.04-.27-.13-.27-.25,0-.15.11-.25.33-.3.12-.03.3-.04.53-.04.15,0,.28,0,.38.01.14.01.27.05.38.1.09-.07.17-.15.24-.24.07-.08.14-.17.19-.26.1-.17.18-.36.25-.57.06-.19.11-.38.14-.59h0ZM856.93-71.08s-.11-.01-.2-.01h-.04c-.17.01-.28.01-.36.02-.13,0-.19.03-.19.08,0,.03.05.05.14.05.06,0,.17.01.33.01.1,0,.19,0,.26-.02.09-.01.18-.04.26-.06-.06-.04-.12-.06-.19-.06Z"/>
  <path d="M862.34-68.5c-.12.61-.31,1.17-.56,1.69-.18.35-.4.7-.65,1.04-.29.39-.57.69-.84.89-.18.14-.28.17-.31.09-.03-.07.02-.18.15-.31.33-.33.61-.71.85-1.14.22-.4.39-.84.53-1.3.12-.43.22-.88.28-1.36.06-.44.09-.89.09-1.35,0-.5-.03-.97-.1-1.43-.06-.49-.15-.95-.28-1.38-.14-.46-.33-.89-.56-1.29-.24-.42-.52-.8-.84-1.12-.14-.14-.18-.23-.13-.27s.16,0,.32.11c.27.21.56.52.86.93.27.37.49.74.66,1.09.24.52.41,1.07.53,1.65.11.55.17,1.12.17,1.72s-.06,1.19-.17,1.74Z"/>
  <path d="M872.45-69.76s-.13.03-.25.03h-3.09v3.07c0,.12-.02.2-.03.25-.03.09-.08.13-.16.13-.11,0-.18-.04-.2-.11-.02-.04-.03-.12-.03-.24v-.03s.01-3.07.01-3.07h-3.09c-.12,0-.21-.01-.26-.03-.07-.03-.11-.09-.11-.19s.04-.17.12-.19c.05-.01.14-.02.26-.02h3.06v-3.07c0-.13,0-.22.02-.26.04-.08.1-.12.2-.12.09,0,.15.04.18.11.02.05.03.13.03.25v3.09h3.08c.11,0,.2,0,.25.02.09.03.13.09.13.19,0,.09-.04.16-.12.19Z"/>
  <path d="M880.32-73.02c-.13.14-.28.2-.46.2-.12,0-.22-.04-.29-.11s-.1-.16-.09-.27c0-.18.08-.32.2-.43.11-.09.26-.15.44-.17-.06-.06-.14-.11-.23-.15-.09-.04-.19-.05-.29-.05-.17,0-.31.06-.42.18-.09.09-.15.23-.21.4-.11.34-.23.7-.33,1.1-.09.34-.19.71-.29,1.11h.95c.08-.01.13,0,.16,0,.06.02.1.06.1.12-.02.1-.06.17-.13.19-.04.02-.12.03-.24.03h-.95l-.32,1.21c-.18.69-.32,1.21-.42,1.56-.16.57-.31,1.09-.46,1.54-.22.6-.45,1.09-.68,1.45-.39.6-.79.89-1.22.89-.25,0-.46-.07-.62-.2-.18-.14-.26-.33-.25-.56.02-.19.09-.34.19-.46.13-.13.29-.19.47-.19.11,0,.2.03.27.1.06.07.09.17.09.29-.01.17-.09.31-.22.42-.12.1-.26.16-.43.17.06.06.14.11.23.14.08.04.18.05.29.05.25,0,.48-.23.69-.69.11-.25.24-.64.38-1.16l.06-.2,1.21-4.35h-.77c-.08,0-.14,0-.17-.02-.06-.02-.08-.06-.08-.11,0-.1.04-.17.1-.19.04-.02.12-.03.23-.03h.03s.74.01.74.01c.07-.31.15-.6.24-.87.09-.3.19-.59.29-.86.07-.22.17-.41.29-.59.14-.19.29-.35.47-.46.11-.08.23-.14.36-.17.14-.04.27-.06.39-.06.24,0,.45.06.62.19.19.14.28.33.27.57-.01.17-.08.32-.2.45Z"/>
  <path d="M883.83-74.37c-.23.41-.41.84-.54,1.3-.14.43-.23.89-.29,1.38-.06.45-.09.93-.09,1.43s.02.93.06,1.36c.06.47.15.91.27,1.32.14.48.32.92.54,1.32.24.43.52.81.85,1.15.13.13.18.23.15.31-.03.07-.13.04-.3-.1-.28-.22-.56-.51-.85-.89-.26-.34-.47-.69-.65-1.04-.25-.52-.44-1.09-.56-1.69-.11-.56-.16-1.14-.16-1.74s.05-1.18.16-1.72c.11-.58.29-1.13.53-1.64.16-.36.37-.72.65-1.09.3-.41.59-.72.87-.93.16-.11.27-.15.32-.11s.02.13-.12.26c-.33.33-.61.7-.85,1.11Z"/>
  <path d="M890.91-69.2c-.25.47-.51.85-.77,1.13v.54c0,.19.01.35.05.5.06.23.15.34.29.34.07,0,.15-.02.24-.08.06-.04.13-.1.2-.16.01-.02.03-.05.04-.08,0-.02.03-.05.05-.1.04-.09.06-.14.09-.17.04-.05.09-.08.14-.08.13,0,.16.08.09.25-.06.14-.13.25-.21.31-.1.11-.2.19-.31.24-.11.06-.24.1-.37.1-.14,0-.25-.02-.36-.06-.11-.04-.2-.09-.28-.17-.09-.09-.17-.19-.23-.3-.06-.11-.1-.24-.14-.39-.21.17-.42.31-.62.43-.19.11-.39.2-.59.28-.19.07-.38.13-.57.16-.18.04-.36.05-.55.05-.27,0-.51-.05-.72-.14-.22-.09-.42-.23-.58-.41-.17-.18-.29-.38-.37-.61-.07-.22-.11-.45-.11-.7,0-.39.08-.78.25-1.16.16-.36.38-.69.67-.99.28-.3.59-.54.93-.7.37-.18.75-.27,1.12-.27.23,0,.45.04.66.12.22.08.41.2.57.36.21.21.36.46.46.76.1.29.15.63.15,1.02v.68c.24-.31.45-.65.64-1.03.18-.37.33-.75.45-1.14v-.05c.01-.06.03-.11.04-.13.02-.04.06-.05.12-.05.07,0,.11.04.12.11,0,.04-.01.11-.04.19v.03c-.11.42-.29.88-.56,1.38ZM889.38-68.18c0-.11-.01-.29-.01-.52v-.2c0-.34,0-.59-.01-.75-.02-.27-.06-.51-.11-.72-.08-.27-.19-.47-.33-.6-.16-.15-.36-.23-.61-.23-.3,0-.6.1-.88.31-.24.18-.45.41-.62.7-.16.24-.31.6-.44,1.1-.13.48-.19.88-.19,1.2,0,.35.07.63.22.84.17.24.43.37.78.37.15,0,.31-.02.46-.05.15-.03.31-.07.46-.12.24-.08.47-.19.7-.33.22-.13.43-.29.64-.47-.02-.14-.03-.31-.03-.51Z"/>
  <path d="M895.45-68.5c-.12.61-.31,1.17-.56,1.69-.18.35-.4.7-.65,1.04-.29.39-.57.69-.84.89-.18.14-.28.17-.31.09-.03-.07.02-.18.15-.31.33-.33.61-.71.85-1.14.22-.4.39-.84.53-1.3.12-.43.22-.88.28-1.36.06-.44.09-.89.09-1.35,0-.5-.03-.97-.1-1.43-.06-.49-.15-.95-.28-1.38-.14-.46-.33-.89-.56-1.29-.24-.42-.52-.8-.84-1.12-.14-.14-.18-.23-.13-.27s.16,0,.32.11c.27.21.56.52.86.93.27.37.49.74.66,1.09.24.52.41,1.07.53,1.65.11.55.17,1.12.17,1.72s-.06,1.19-.17,1.74Z"/>
  <path d="M899.69-69.72c-.15.18-.23.47-.23.87v2.38c0,.41-.12.76-.34,1.06-.34.44-.92.73-1.75.86v-.21c.55-.15.94-.37,1.17-.67.2-.27.3-.66.3-1.17v-2.3c0-.38.08-.66.25-.85.19-.21.55-.37,1.08-.51-.52-.08-.88-.26-1.08-.55-.17-.24-.25-.61-.25-1.1v-1.95c0-.47-.1-.84-.29-1.11-.24-.36-.63-.58-1.19-.65v-.21c.85.11,1.44.4,1.78.86.21.28.31.62.31,1.01v2.12c0,.49.08.84.23,1.03.22.28.64.42,1.27.42v.25c-.62,0-1.04.14-1.27.41Z"/>
</svg>
