<?xml version="1.0" encoding="UTF-8"?>
<svg xmlns="http://www.w3.org/2000/svg" version="1.1" viewBox="0 0 480.0 477.09999999999997">
  <defs>
    <style>
      .axis-text { font-family: HyhwpEQ, "HCR Batang", serif; font-size: 17.98px; fill: #231815; }
      .axis-fill { fill: #231815; }
      .axis-line { fill: none; stroke: #231815; stroke-miterlimit: 10; stroke-width: 1.5px; }
    </style>
    <clipPath id="plot-area">
      <rect x="0.000" y="0.000" width="480.000" height="477.100"/>
    </clipPath>
  </defs>
  <g clip-path="url(#plot-area)">
    <path d="M 94.333,46.017 L 96.444,55.657 L 98.556,65.157 L 100.667,74.517 L 102.778,83.735 L 104.889,92.813 L 107.000,101.750 L 109.111,110.546 L 111.222,119.202 L 113.333,127.717 L 115.444,136.091 L 117.556,144.324 L 119.667,152.417 L 121.778,160.369 L 123.889,168.180 L 126.000,175.850 L 128.111,183.380 L 130.222,190.769 L 132.333,198.017 L 134.444,205.124 L 136.556,212.091 L 138.667,218.917 L 140.778,225.602 L 142.889,232.146 L 145.000,238.550 L 147.111,244.813 L 149.222,250.935 L 151.333,256.917 L 153.444,262.757 L 155.556,268.457 L 157.667,274.017 L 159.778,279.435 L 161.889,284.713 L 164.000,289.850 L 166.111,294.846 L 168.222,299.702 L 170.333,304.417 L 172.444,308.991 L 174.556,313.424 L 176.667,317.717 L 178.778,321.869 L 180.889,325.880 L 183.000,329.750 L 185.111,333.480 L 187.222,337.069 L 189.333,340.517 L 191.444,343.824 L 193.556,346.991 L 195.667,350.017 L 197.778,352.902 L 199.889,355.646 L 202.000,358.250 L 204.111,360.713 L 206.222,363.035 L 208.333,365.217 L 210.444,367.257 L 212.556,369.157 L 214.667,370.917 L 216.778,372.535 L 218.889,374.013 L 221.000,375.350 L 223.111,376.546 L 225.222,377.602 L 227.333,378.517 L 229.444,379.291 L 231.556,379.924 L 233.667,380.417 L 235.778,380.769 L 237.889,380.980 L 240.000,381.050 L 242.111,380.980 L 244.222,380.769 L 246.333,380.417 L 248.444,379.924 L 250.556,379.291 L 252.667,378.517 L 254.778,377.602 L 256.889,376.546 L 259.000,375.350 L 261.111,374.013 L 263.222,372.535 L 265.333,370.917 L 267.444,369.157 L 269.556,367.257 L 271.667,365.217 L 273.778,363.035 L 275.889,360.713 L 278.000,358.250 L 280.111,355.646 L 282.222,352.902 L 284.333,350.017 L 286.444,346.991 L 288.556,343.824 L 290.667,340.517 L 292.778,337.069 L 294.889,333.480 L 297.000,329.750 L 299.111,325.880 L 301.222,321.869 L 303.333,317.717 L 305.444,313.424 L 307.556,308.991 L 309.667,304.417 L 311.778,299.702 L 313.889,294.846 L 316.000,289.850 L 318.111,284.713 L 320.222,279.435 L 322.333,274.017 L 324.444,268.457 L 326.556,262.757 L 328.667,256.917 L 330.778,250.935 L 332.889,244.813 L 335.000,238.550 L 337.111,232.146 L 339.222,225.602 L 341.333,218.917 L 343.444,212.091 L 345.556,205.124 L 347.667,198.017 L 349.778,190.769 L 351.889,183.380 L 354.000,175.850 L 356.111,168.180 L 358.222,160.369 L 360.333,152.417 L 362.444,144.324 L 364.556,136.091 L 366.667,127.717 L 368.778,119.202 L 370.889,110.546 L 373.000,101.750 L 375.111,92.813 L 377.222,83.735 L 379.333,74.517 L 381.444,65.157 L 383.556,55.657 L 385.667,46.017" fill="none" stroke="#231815" stroke-width="2.0" stroke-linejoin="round" stroke-linecap="round"/>
    <circle cx="176.667" cy="317.717" r="2.8" fill="#231815"/>
    <circle cx="240.000" cy="381.050" r="2.8" fill="#231815"/>
    <circle cx="303.333" cy="317.717" r="2.8" fill="#231815"/>
    <text x="327.953" y="234.532" class="axis-text" text-anchor="start" paint-order="stroke fill" stroke="white" stroke-width="3" stroke-linejoin="round" fill="#231815"></text>
    <line x1="176.66666666666669" y1="316.21666666666664" x2="176.66666666666669" y2="319.21666666666664" stroke="#231815" stroke-width="1.5"/>
    <text x="181.701" y="339.293" class="axis-text" text-anchor="start" paint-order="stroke fill" stroke="white" stroke-width="3" stroke-linejoin="round" fill="#231815"></text>
    <line x1="303.33333333333337" y1="316.21666666666664" x2="303.33333333333337" y2="319.21666666666664" stroke="#231815" stroke-width="1.5"/>
    <text x="308.368" y="339.293" class="axis-text" text-anchor="start" paint-order="stroke fill" stroke="white" stroke-width="3" stroke-linejoin="round" fill="#231815"></text>
    <line x1="111.83333333333334" y1="127.71666666666664" x2="114.83333333333334" y2="127.71666666666664" stroke="#231815" stroke-width="1.5"/>
    <text x="110.333" y="128.975" class="axis-text" text-anchor="end" paint-order="stroke fill" stroke="white" stroke-width="3" stroke-linejoin="round" fill="#231815"></text>
    <line x1="111.83333333333334" y1="381.04999999999995" x2="114.83333333333334" y2="381.04999999999995" stroke="#231815" stroke-width="1.5"/>
    <text x="110.333" y="392.377" class="axis-text" text-anchor="end" paint-order="stroke fill" stroke="white" stroke-width="3" stroke-linejoin="round" fill="#231815"></text>
  </g>
  <g>
    <line class="axis-line" x1="113.33333333333334" y1="437.09999999999997" x2="113.33333333333334" y2="40.0"/>
    <polygon class="axis-fill" points="116.11333333333334 42.099999999999994 113.33333333333334 40.919999999999995 110.55333333333334 42.099999999999994 113.33333333333334 35.519999999999996 116.11333333333334 42.099999999999994"/>
  </g>
  <g>
    <line class="axis-line" x1="50.0" y1="317.71666666666664" x2="430.0" y2="317.71666666666664"/>
    <polygon class="axis-fill" points="427.90000000000003 320.4966666666666 429.08000000000004 317.71666666666664 427.90000000000003 314.93666666666667 434.48 317.71666666666664 427.90000000000003 320.4966666666666"/>
  </g>
  <text class="axis-text" transform="translate(435.98 325.91666666666663)"><tspan x="0" y="0"></tspan></text>
  <text class="axis-text" transform="translate(105.89333333333335 36.589999999999996)"><tspan x="0" y="0"></tspan></text>
  <text class="axis-text" transform="translate(95.71333333333334 339.51666666666665)"><tspan x="0" y="0"></tspan></text>
</svg>